<svg xmlns="http://www.w3.org/2000/svg" preserveAspectRatio="none" viewBox="0 0 107.3 1500"><path fill="#d3d3d3" d="M89.3 1434.7a113 113 0 0 1 8.9-87.1l-.5-2.2a187.5 187.5 0 0 1-44.6-123c0-50.5 19-96 49.3-128.3a33.7 33.7 0 0 1 5-55.8 67.5 67.5 0 0 1-4.2-23.4c0-7.6 1.2-14.9 3.5-21.6a110.9 110.9 0 0 1-31.3-77.7c0-27 9.4-51.7 25-70.7v-2.5C57.6 812.9 29 760.1 29 699.9c0-62.4 30.5-116.8 75.8-145.6l-.8-4.4a66.6 66.6 0 0 1-12.4-65.1c-21-20-34.3-48.7-34.3-80.7 0-32.7 13.8-62 35.7-82a21.7 21.7 0 0 1 .1-28.5l-.2-3.1a85.8 85.8 0 0 1-18.4-53.3 86.6 86.6 0 0 1 1.4-15.4 132.2 132.2 0 0 1-55-108.2 134 134 0 0 1 31.7-87 71.8 71.8 0 0 1-5-26.6H0v1500h47.6a72 72 0 0 1 41.8-65.3z"/></svg>