<svg xmlns="http://www.w3.org/2000/svg" preserveAspectRatio="none" viewBox="0 0 1500 150"><path fill="#d3d3d3" d="M65.3 89.3a113 113 0 0 1 87.1 8.9l2.2-.5a187.5 187.5 0 0 1 123-44.6c50.5 0 96 19 128.3 49.3a33.7 33.7 0 0 1 55.8 5 67.5 67.5 0 0 1 23.4-4.2c7.6 0 14.9 1.2 21.6 3.5a110.8 110.8 0 0 1 77.7-31.3c27 0 51.6 9.4 70.7 25h2.5C687 57.6 739.9 29 800 29c62.4 0 116.8 30.5 145.6 75.8l4.4-.8a66.6 66.6 0 0 1 65.1-12.4c20-21 48.7-34.3 80.7-34.3 32.6 0 62 13.8 82 35.7a21.7 21.7 0 0 1 28.5.1l3-.2a85.8 85.8 0 0 1 53.4-18.4 86.6 86.6 0 0 1 15.4 1.4 132 132 0 0 1 108.2-55 134 134 0 0 1 87 31.7 71.8 71.8 0 0 1 26.6-5.1V0H0v47.6a72 72 0 0 1 65.3 41.8z"/></svg>