<svg xmlns="http://www.w3.org/2000/svg" preserveAspectRatio="none" viewBox="0 0 1500 150"><path fill="#d3d3d3" d="M375.5 98.5a75.1 75.1 0 0 1 14.2-9.6A184.7 184.7 0 0 0 321 58c24.5 9.3 43.8 23.6 54.6 40.6zm199.3-28.4a119 119 0 0 0-76 25.4 75 75 0 0 0-20.7-3 75.5 75.5 0 0 0-11.9 1 75 75 0 0 0-42-13 74.6 74.6 0 0 0-34.5 8.4 172 172 0 0 1 16.1 13.5 33.7 33.7 0 0 1 55.9 5 67.5 67.5 0 0 1 23.4-4.2 67.6 67.6 0 0 1 21.6 3.5 110.9 110.9 0 0 1 77.7-31.3c27 0 51.6 9.4 70.7 25h1C637.8 82 608.2 70 574.9 70zm375.3 34a66.6 66.6 0 0 1 65.1-12.4c20-21 48.7-34.3 80.7-34.3 32.6 0 62 13.8 82 35.7l1.5-1.2c-16.8-24-50.8-40.5-89.9-40.5a118 118 0 0 0-77.3 26.6 137.4 137.4 0 0 0-12.7-.6 125 125 0 0 0-62.1 15.8c3 3.8 5.7 7.7 8.3 11.7l4.4-.8zm321-38.6a102 102 0 0 0-66.9 26.1 22 22 0 0 1 2.2 1.7l3-.3a85.8 85.8 0 0 1 68.8-17c20.4-28.7 52.8-49 90.2-53.9h-2.6c-41.3 0-77.1 17.6-94.7 43.4zM98.4 84.5c19.6 0 38 5 54 13.7l2.2-.5a187.5 187.5 0 0 1 123-44.6c15 0 29.5 1.7 43.4 4.8A189.4 189.4 0 0 0 253.9 46c-42.1 0-79.6 12.7-103.6 32.4A173 173 0 0 0 58 77a72 72 0 0 1 7.3 12.2c10.5-3.2 21.6-4.9 33.1-4.9z" opacity=".5"/><path fill="#d3d3d3" d="M0 0v47.6c23.8 0 45 11.6 58 29.5a173.1 173.1 0 0 1 92.3 1.4C174.3 58.8 211.8 46 254 46c24.5 0 47.4 4.3 67 11.8a186 186 0 0 1 68.8 31 74.7 74.7 0 0 1 34.4-8.3c15.6 0 30.1 4.8 42.1 13a75.5 75.5 0 0 1 12-1 75 75 0 0 1 20.7 3A118.7 118.7 0 0 1 575 70c33.3 0 62.8 12 81.3 30.3h1.4C687 57.6 739.9 29 800 29c56.9 0 107 25.4 137.3 64.1a125 125 0 0 1 74.8-15.2 118 118 0 0 1 77.3-26.6c39.1 0 73 16.5 90 40.5a21.6 21.6 0 0 1 12.6-4 21.6 21.6 0 0 1 12.1 3.7 102 102 0 0 1 67-26.1c17.5-25.8 53.3-43.4 94.7-43.4h2.5a133.3 133.3 0 0 1 105 30.6 71.8 71.8 0 0 1 26.6-5.1V0H0z"/></svg>