<svg xmlns="http://www.w3.org/2000/svg" preserveAspectRatio="none" viewBox="0 0 107.3 1500"><g fill="#d3d3d3"><path d="M98.5 1124.5a75.1 75.1 0 0 1-9.6-14.2 184.7 184.7 0 0 0-31 68.7c9.3-24.4 23.6-43.7 40.6-54.5zM70.1 925.1c0 30.3 9.8 57.5 25.4 76a75 75 0 0 0-3 20.8 75.5 75.5 0 0 0 1 11.9 75 75 0 0 0-13 42 74.6 74.6 0 0 0 8.4 34.5 172 172 0 0 1 13.5-16.1 33.7 33.7 0 0 1 5-55.9 67.5 67.5 0 0 1-4.2-23.4 67.6 67.6 0 0 1 3.5-21.6 110.9 110.9 0 0 1-31.3-77.7c0-27 9.4-51.6 25-70.7v-1C82 862.2 70 891.8 70 925zM104 550a66.6 66.6 0 0 1-12.4-65.1c-21-20-34.3-48.7-34.3-80.7 0-32.6 13.8-62 35.7-82l-1.2-1.5c-24 16.8-40.5 50.8-40.5 89.9A118 118 0 0 0 78 487.8a137.4 137.4 0 0 0-.6 12.7c0 23.4 6 45 15.8 62.1 3.8-3 7.7-5.7 11.7-8.3l-.8-4.4zM65.5 229a102 102 0 0 0 26.1 66.9 22 22 0 0 1 1.7-2.2l-.3-3a85.8 85.8 0 0 1-17-68.8 131.6 131.6 0 0 1-53.9-90.2v2.5c0 41.4 17.6 77.2 43.4 94.8zm19 1172.7c0-19.6 5-38 13.7-54l-.5-2.2a187.5 187.5 0 0 1-44.6-123c0-15 1.7-29.5 4.8-43.4a189.4 189.4 0 0 0-11.8 67.1c0 42.1 12.7 79.5 32.4 103.6A173 173 0 0 0 77 1442a72 72 0 0 1 12.2-7.3 113.3 113.3 0 0 1-4.9-33.1z" opacity=".5"/><path d="M0 1500h47.6c0-23.8 11.6-45 29.5-58a173.1 173.1 0 0 1 1.4-92.3c-19.7-24-32.4-61.5-32.4-103.6 0-24.5 4.3-47.4 11.8-67 5.8-25.7 16.5-49 31-68.8a74.7 74.7 0 0 1-8.3-34.4c0-15.6 4.8-30.1 13-42.1a75.5 75.5 0 0 1-1-12 75 75 0 0 1 3-20.7 118.7 118.7 0 0 1-25.5-76c0-33.3 12-62.8 30.3-81.3v-1.4C57.6 813 29 760.1 29 700c0-56.9 25.4-107 64.1-137.3A125 125 0 0 1 78 487.8a118 118 0 0 1-26.6-77.3c0-39.1 16.5-73 40.5-90a21.6 21.6 0 0 1-4-12.6 21.6 21.6 0 0 1 3.7-12.1 102 102 0 0 1-26.1-67c-25.8-17.5-43.4-53.3-43.4-94.7v-2.5a133.3 133.3 0 0 1 30.6-105A71.8 71.8 0 0 1 47.6 0H0z"/></g></svg>