<svg xmlns="http://www.w3.org/2000/svg" preserveAspectRatio="none" viewBox="0 0 131.4 1500"><path fill="none" d="m20.2 940-.6-.3-1 .6 1.6-.4zm29.3 17c-4.8 3.7-10.3 7.5-16.7 11.6 8.6-4 16.8-8 23.6-11.8l-2.2-1.3-4.7 1.5zm-4.5-6.3a406 406 0 0 0-19.3 6.6l1.3 1.3-7.6 3.1a540 540 0 0 1 20.6-4.8 353.4 353.4 0 0 0 7.7-4.9l-2.7-1.3zm-13.3-13.3A586.5 586.5 0 0 1 21 934l1.5 1.9 4.3 2.4 4.9-1zm11.5 12.4a310 310 0 0 0-8.7-4l-5.7 1.2-2.8 1.1 12.6 2.6 4.6-.9zm2.6-90.2a364 364 0 0 0-5.2-.9l-2.8 1 3.5 1 4.5-1zm-.6 81.6a374.3 374.3 0 0 0-7 2.4l4.4.7-4.5.9a641.3 641.3 0 0 1 7 4.3 631 631 0 0 1 9-1.7 222.2 222.2 0 0 0 4.8-3.3l-13.7-3.3zM41 940a464.2 464.2 0 0 1-4.6-1.3 424.7 424.7 0 0 0-5.7 2l1.9 1A609.6 609.6 0 0 1 41 940zm-2-48 9-1.8a747.3 747.3 0 0 0-14.5.2L39 892zm.7-16.7a99.7 99.7 0 0 1-4.8-.2l-4.3 1 2.2.6 6.9-1.4zm13.4 15a271.1 271.1 0 0 0-9.8 3l4 1.2h.4c2.7-1.4 5.2-2.9 7.5-4.3H53zm-30.4 5.3h-.1l-.4.2.5-.2zm21.8 2.4a721.3 721.3 0 0 1-5.7 3.8l8.6 3-18 3a536.4 536.4 0 0 1-3.7 2.4l-1 1.7 1.2 1c3.6 1 7.2 1.8 10.5 2.4a272 272 0 0 1 34-13.2c-7.6-1.6-16.6-3-25.9-4.1zm-2.7-.4-8.2-.9a530.9 530.9 0 0 0-6.8 2.6l8.4 1.6a369.6 369.6 0 0 0 6.6-3.3zm-23 26.5a339.6 339.6 0 0 1 3.7-2l-2.8.5zm37.8 82.4a329 329 0 0 0-16.8-3.2l-.9.3-3.8 2.5 7.4 2.5-14.1 3.4-.3.4 8.6 1.9a189 189 0 0 1 20-7.8zm-24.3 66.7c6-1.6 12-3 17.5-4.2-5.5.2-12.2 1.3-19.4 3zm-3.2-35.5a627.2 627.2 0 0 0-6.9-.8l-1.4.4 20.2 3.6-13.5 3.3a419.8 419.8 0 0 0 10.5 3.7c6.5-1.6 12.8-3 18.6-4a270 270 0 0 1-27.5-6.2zm4.3 11.4a614.5 614.5 0 0 1-7.8-1.7l-.1.7 6.9 1.2 1-.2zm8.2 1.6-.8-.1-.6.1.3.1h1.1zm13-58.2-.9-.2a45 45 0 0 1-8.5 1 264.5 264.5 0 0 1-3.4 4l3.4.4c3.4-1.7 6.6-3.5 9.4-5.2zm5.2 50.2 2 .5h.3a255 255 0 0 0-2.3-.5zm-23.4-49.5-2.7-.2a496 496 0 0 0-4.3.8l5 1.6 2-2.2zm10.1-43 2 1.3a278.5 278.5 0 0 0 5-3.3 183.7 183.7 0 0 0-7 2zm10 6.5a142.6 142.6 0 0 0 6.6-4 212.6 212.6 0 0 0-8.6 2.6l2 1.4zm8-4.7a539 539 0 0 1 4-.7 105.9 105.9 0 0 0 2.5-4.8c-2.4-.3-5-.8-7.6-1.3-2.9 2.8-6.2 5.7-10.1 8.9a640 640 0 0 1 11-2.1l1.1-.7-1 .7zM30 987.6a505.5 505.5 0 0 1-5.2-1.2l-2.6.8 1 .3 3.5.7 3.3-.6zm25.5-8a208.7 208.7 0 0 1-4 5.5c8.4-.7 16-.8 22.7-.6a179 179 0 0 0-18.7-5zm-6.3-1.3-7.8-1.4L38 980l-3.7 3.6-2.3.6 6 2.2 4.8-.6 6.4-7.6zm3.2 14-5.6-1.1-.7.8c2.3.2 4.4.3 6.3.2zm4.6-35.1a649.9 649.9 0 0 1-19.4 13 212.1 212.1 0 0 1 15 3.8 191 191 0 0 0 15.6-22.5l-5 1.3a532 532 0 0 1-6.2 4.4l.4.2-.4-.2zm-7.5-252.4a243.4 243.4 0 0 1-7-.5l4.7 1.5 2.3-1zM38 705c-.6 0-1.2-.2-1.7-.3l-4 1.2.9.2 4.8-1zm20.8-21.6-.3.2h.5l-.2-.2zm20.7 58c-8.2-2-17.4-5-27.7-9l-.6.2a548.6 548.6 0 0 1 3 2c9.4 2.7 15.7 4.2 15.7 4.2-3.4 0-7.3-.4-11.4-1l.9.6a79.3 79.3 0 0 0-1-.7C53.8 737 49 736 44 735a715.3 715.3 0 0 0-10 3.4l13 1.7-13.8 3.6 4 2.6c13.2-2.7 22.6-4.1 22.6-4.1a175 175 0 0 0-20.4 5.6l3.3 3.1.4 1.3c4.4.7 8.4 1.1 11.9 1.1a170 170 0 0 0 24.5-11.8zM39 705.3l-4.1 1.3 5.1 1.3-13.8 2.9 4.7 2.4a321.8 321.8 0 0 1 14.7-6.7 632 632 0 0 1-6.6-1.2zm2.7-26.8c3.2 2.2 6.1 4.4 8.8 6.4 2.6-.5 5.2-1 7.7-1.3l.4-.3c-3-2-6.7-4.1-10.8-6.3l-6.1 1.5zm6.7 43.4 10.3-1.8c-3.8.3-7.6.8-11.4 1.3l1.1.5zm-1.9 9a261.8 261.8 0 0 0-4.4-2.3l-.3.8-2.4 1.1 4.2 1.2 3-.8zm1-39.7 5.7 1.6a268.4 268.4 0 0 0-4-2.7l-1.7 1zM33 694.5l-3-1-.4.2zm20.4 5.3-2.2.5 7.8.9.7-.3a130.5 130.5 0 0 1-6.3-1.1zm-2-.5a205.5 205.5 0 0 1-6.8-1.6l-1 1.6 4.2.6 3.6-.6zm-7.3 154.2a232 232 0 0 0 5-2.7l-10 1.5 5 1.2zm13.4-154.6 4.3 1.3 1.2-.4a176.5 176.5 0 0 0-2-1.6l-3.5.7zm-.8-.3 4.1-.5a212.3 212.3 0 0 0-6.8-4.9l-7.6-1.4-3.5 2.4a803.3 803.3 0 0 0 13.8 4.4zm-26 118.8a629.9 629.9 0 0 1-5.9-1l-1.4 2.5 3.5.8a468.5 468.5 0 0 0 3.9-2.3z"/><path fill="none" d="M49 733.1c1.3.4 2.5.8 3.7 1l-2.5-1.4-1.2.4zm4.3 70.4-10.3 3 4 1.2a284 284 0 0 0 6.3-4.2zm3.5-5.9a797.2 797.2 0 0 0-12.6 4l-.2 3-1.4.5a635.8 635.8 0 0 1 11.5-2 212 212 0 0 0 6.8-5 547.1 547.1 0 0 1-4.1-.5zM40.2 819a251.5 251.5 0 0 1-4.4 3l2.5.5-3.9 2.2 2.3.5a300.8 300.8 0 0 0 10.2-5.2 715.4 715.4 0 0 1-6.7-1zm16 38a225 225 0 0 0 25.7-8.3c-9.7-.2-20.2.6-30.8 2a755.8 755.8 0 0 1-5 3.3l7.6 1.5-5.4-.7 7.9 2.3zm-14.4-39 6.1 1.5c4.2-2.3 7.9-4.5 11-6.6l-8.3-1.4a210.3 210.3 0 0 1-8.8 6.4zm1.7-8a316.4 316.4 0 0 1-6.2-1.5 429.2 429.2 0 0 0-11.7 4.1v.5l8.4 2.6a402.2 402.2 0 0 0 9.5-5.7zm11.6-49.3h-4.7a228.5 228.5 0 0 1-12 4.9l5.6 1.3c4-2.1 7.8-4.2 11.1-6.2zm-2.5-6.5c-2.3.3-5.3.4-9.1.3l-11.6 2.7c4 0 8 0 12 .3a318.4 318.4 0 0 0 8.7-3.3zm-15-20.7-2.9-.8-.5.3-14.2 3.6 5.5.7a415.5 415.5 0 0 1 12.1-3.8zm28 61.2v-.1c-4.7.3-9.5.8-14.3 1.4l2.2.5c4.3-.9 8.4-1.5 12-1.8zM51.5 797a573.1 573.1 0 0 1-3.6-.5 395.4 395.4 0 0 0-15.1 2.3l6.4 1.3c4.2-1.2 8.4-2.3 12.3-3.1zm4-36.3a596 596 0 0 1-6.1 4.3 268.6 268.6 0 0 1 11.2-4.3 826.9 826.9 0 0 0-5 0zm5.2 443.4 1.9.5 2.2-1.7-4 1.2zm-17 180.9a441 441 0 0 0-13.8-2.2l-.6.4zm5.6 1a338.4 338.4 0 0 0-2.5-.5l-2.6 3.5-11.9 3.1 5.8 2.1a274.2 274.2 0 0 1 4.8-.6 355.7 355.7 0 0 0 6.4-7.6zm7.2-21.5a143.5 143.5 0 0 0 6.5-4l-8.6 2.6a445.7 445.7 0 0 1 2 1.4zm-.9 22.8a207 207 0 0 1-4 5.5c8.4-.6 16-.8 22.7-.6a178 178 0 0 0-18.7-5zm-3 12.7a682.2 682.2 0 0 1-5.7-1.1l-.7.8 6.3.3zm-6.2-42 2 1.3a284.3 284.3 0 0 0 5-3.2 182.8 182.8 0 0 0-7 2zm18 1.8 4-.7a105.9 105.9 0 0 0 2.5-4.7l-7.6-1.3a213 213 0 0 1-10.1 8.8 650.4 650.4 0 0 1 11-2 79 79 0 0 0 .1 0zm-7.3 5.1a651 651 0 0 1-18.3 12.3l7.3 1-4.4.6a205.7 205.7 0 0 1 11 2.9c6-7.6 11.4-15.2 15.6-22.4l-5 1.2a559.9 559.9 0 0 1-6.2 4.4l.4.3-.4-.3zm-14-7.3a322.2 322.2 0 0 0-9.8-4.5 544.4 544.4 0 0 0-4.9 1.8l3 1.8-10.4 3.6 3.6 1.1a632.1 632.1 0 0 1 18.6-3.8zm2.1-8.7a380.7 380.7 0 0 0-8.7 3 670.6 670.6 0 0 1 8.6 5.3 643 643 0 0 1 9-1.6 222.2 222.2 0 0 0 4.8-3.4c-4.4-1-9-2-13.7-3.3zm9.3 51.4-.9-.1c-1.5.3-4.3.8-8.5 1a266.7 266.7 0 0 1-3.6 4.2l1.5.5c.4 0 .7.2 1 .3 3.9-2 7.4-4 10.5-5.9zM41 1347.7l-4.6-1.3-4 1.4.8 1.5 7.8-1.6zm4 10.6c-4.6 1.5-9.5 3.1-14.6 5l1.6.5-12.3 3.4-.4.2 1 1.7c6.8-1.7 13.5-3.3 19.7-4.6a353.4 353.4 0 0 0 7.7-4.8l-2.7-1.4zm4.5 6.3c-4.8 3.7-10.3 7.6-16.7 11.6 8.6-4 16.8-8 23.6-11.8a106.2 106.2 0 0 0-2.2-1.3l-4.7 1.5zm-27.3 10.2zm14.1 26.1-2.7-.2a507 507 0 0 0-3.5.7l.7.6 3.5 1.1 2-2.2zm-4.6-55.9-2.5-.7 1.5 1 1-.3zm34.6 145.4c-2.1.8-4.4 1.7-7 2.5 6.7.7 13.2 1 19.4 1.1a214.5 214.5 0 0 1-12.4-3.6zm-46 2.7-.2 2.1 3.4-.4-.4-1.2-2.8-.5zm30.2 6.9h2.3a198.5 198.5 0 0 1-3.9-1l1.6 1zm-17.5 0h16a241 241 0 0 0-4.7-2.5l-.3-.1c-3.3.8-6.9 1.6-10.6 2.3zm27.4-11.7a279.5 279.5 0 0 1-17.4-6.9 718.3 718.3 0 0 0-13.1 4 413 413 0 0 0 13.2 5.5l2.9.4c5-.9 9.8-1.9 14.4-3zm-48.9 7.9-.9-3.2-.6 3.4 1.5-.2zm45-44.5a233 233 0 0 1-19-4l-5.3 2.2-1.4 3.2c2.4 1 4.8 1.7 7.1 2.5 6.5-1.6 12.8-3 18.6-3.9zm-23.2 5.1a643.1 643.1 0 0 1-4.4-1l-.8 1.3-2 .8 1.5.4a396.7 396.7 0 0 1 5.7-1.5zm23.2-42.6a329 329 0 0 0-16.8-3.2l-.9.3a658.2 658.2 0 0 1-4.8 3.2l8.8 3-6 3.7.2.7c7-3.2 13.6-5.7 19.5-7.7zm-18.2 65.1-2-.9-1.2.3-3 2.2 6.2-1.6zm2.4-21-1 .3a99.5 99.5 0 0 1 1.8-.1l-.8-.2zm19-7.9 2 .6h.3l-2.3-.6zM48 1212.6c-4.4 1.3-9.2 2.8-14.1 4.6l4.3 3-12.6 3.7-7 3.6 4.4 2a423 423 0 0 0 27.5-16.5l-2.5-.4zm7-59.5h-4.7a229.3 229.3 0 0 1-12 5l5.6 1.2c4-2 7.8-4.2 11.1-6.2zm-18.7-6.5 6.9 2 1 1.1a317.7 317.7 0 0 0 8.3-3c-3.6.3-9 .5-16.2-.1zm1.2-20.7a379 379 0 0 1-8.3-2.2L18 1127l1.1.3a398.4 398.4 0 0 0 16.8-1 357.8 357.8 0 0 1 1.6-.4zm10.5-10.2c-4.8 1.5-10 3.3-15.4 5.2a735.2 735.2 0 0 0 11 3.3 214 214 0 0 1 13.3-3.3c-2.6-1.7-5.6-3.4-8.9-5.2zm4.4 88.6c-4.7-.9-9.6-2-14.6-3.2a379 379 0 0 0-5.3 1.8l7.5 3 .1 1.4a220 220 0 0 1 12.3-3zm8-36c-6.7-1.5-13.8-2.9-21.1-4l-1.1.7 7.8 1.5-4.4 3.6-.4 3.6-12.3 3 7.3 1.6a289 289 0 0 1 24.1-10zm-25-4.7-9.2-1.3H26l1.3.6 6.8 1.3 1.3-.6zm19-50.3 4.3-.8-5.1.6.8.2zm-5.6-22a593.7 593.7 0 0 1 6.7 4.6c4.9 0 9 0 12-.2-5.5-1-11.7-2.4-18.7-4.4zm-30.3 240.6a386.6 386.6 0 0 1 6-3.1l-6.8 2.7z"/><path fill="none" d="M96.3 1112.3c-10.5-1.4-23-1.2-35.8 0l-4.9 1.3a99.9 99.9 0 0 0 4.1.9s-1.7-.3-4.6-.8l-5.8 1.6a592 592 0 0 1 7.9 5.6c5-1 9.4-1.7 13.4-2 0 0-7.6 2.2-18.7 5.8 17-2.2 33-6 44.4-12.4zm-75-17.2 3-1.4-4.7.7-.2.4zm32.3 18.3-1.1-.2a338.6 338.6 0 0 0-5.3.7l.9.6 5.5-1zm3.6 91.7a824.1 824.1 0 0 0-15.8 5.1l6.1 1.6 6.6-1.2a210.2 210.2 0 0 0 7-5 136.9 136.9 0 0 1-3.9-.5zm-10.8-90.3-1.1-.6a422.3 422.3 0 0 0-17.7 3l-2.6 1.3 1.5.4a629.9 629.9 0 0 1 20-4.1zm6.6 183.1a273 273 0 0 0-9.8 3.1l4 1.2h.4a173.4 173.4 0 0 0 7.5-4.2H53zm2.6 0a609.4 609.4 0 0 1-6.6 4.6l3.8.8A241 241 0 0 0 66 1298l-10.4-.1zm-16.7 1.9 9-1.9-14.5.2 5.5 1.7zm46-11.4c-10.5-.3-22.3.5-34.2 2 2.8.2 5.4.2 7.7 0 0 0-5.4 1.8-17 1.3l-2.6.5c7.7-.2 11.4.9 11.4.9-4-.3-9 .3-14.5 1.4 8 .1 15.9.5 22.9 1.3l.7-.5-.7.5h.7l6-1-5 1.2 7.9 1.1c6-2.7 11.8-5.6 16.8-8.7zm-40.5 17.3-1.3.9 2.3-.8-1-.1zm12.1 1.7c-5.4 2.5-11.4 5-18 7.3l8 2.4-9.5 3.6 2.6.9c11.3-5.1 21.6-9 30.8-11.7-4.3-1-9-1.8-13.9-2.5zm-14.8-2a586.8 586.8 0 0 0-8.2-1A603.3 603.3 0 0 0 19 1310l7.2 1.6a435 435 0 0 0 6.5-1.8 372.9 372.9 0 0 0 9-4.4zm3.6-93.2a629.3 629.3 0 0 1-5-.7l-.1 1.6-.4.2 5.5-1zm4 0 1.8.4 2.2-1.4-4 1zm-5-122.4H44a234.4 234.4 0 0 1-8.4 1.8 574.6 574.6 0 0 1-6.2 4l15.7.3 1.6-.3-1.3.3H55c-3.2-2-6.9-4-10.8-6zm.2-398.3a516.4 516.4 0 0 1-4.5-1l-4 1.3 4.7 1.6a296 296 0 0 0 3.8-2zm-.3 569.6a229.5 229.5 0 0 0 5-2.7l-10 1.5 5 1.2zm-20.8 10a618.3 618.3 0 0 0 3.5-1.6l-6.2 1zm28-29.6a324.7 324.7 0 0 0-5.7-1l-.4 1.3-23.8 3.6 5.2 3.6-3.4 1.3 5.3 1.4c8-4 15.7-7.4 22.8-10.2zm6.2-444.1 3.4.6 3.8-2.9a727 727 0 0 0-7.2 2.3zM54.5 229l4.3-.8-5.1.6.8.2zm41.8-1a162 162 0 0 0-35.8 0l-4.9 1.2 4.1 1-4.6-.8-5.8 1.6a760.3 760.3 0 0 1 3.2 2.2h1.2-1.1a518 518 0 0 1 4.6 3.3c5-1 9.4-1.7 13.4-2 0 0-7.6 2.3-18.7 6 17-2.3 33-6.2 44.4-12.5z"/><path fill="none" d="m51.8 233.5-7 1.5-8.2 2.9 7 2a213 213 0 0 1 13.4-3.2 137 137 0 0 0-5.2-3.2zm-3.7-2a291.3 291.3 0 0 0-7.3 2.4l3 .6 7.9-1a198.6 198.6 0 0 0-3.6-2zM49 207a593 593 0 0 1 6.7 4.6 782.3 782.3 0 0 0 12.1-.2A176 176 0 0 1 49 207zm4.7 22.1-1.1-.2-5.3.7.9.5 5.5-1zm-7.2 1.4-1.1-.7A405 405 0 0 0 32 232l3.4.7a646 646 0 0 1 11.1-2.2zm-10.6-4.8a644.6 644.6 0 0 1-4.6-1l-2.4 2 7-1zm13.9-41c-7.2.3-16.2 2-25.8 4.7l3.8.7c7.5-2 15-4 22-5.3zm-22.3 17.6-1.9-.3-1.5.4 1 .2 2.4-.3zm14.1-35.8-.8-.2-1 .3h1.8zM21.3 211l3-1.4-4.7.7zm38.4-52.3 2 .5h.3l-2.3-.5zm-4.6 53c-2.9-1.7-6.1-3.5-9.6-5.3l-10 1.2a629.5 629.5 0 0 1-6.1 4l15.7.2a193.5 193.5 0 0 1 .3 0H55zm-10.8-6h-.8l1.1.2-.3-.2zm-9.8 52 7.4-1.1-7 1-.4.2zm15.8 42c-2.7-.4-6-1-9.6-1.8l-4 1.2 1.7.3-2.8.5 2.7.8 12-1zm-17.7-3.1a133.7 133.7 0 0 1-10.4-1.4l-.8.1 6.8 2.3h.5l4-1zm28.1-4.3c1.7.5 3 1 4.1 1.2a166 166 0 0 0-2.2-1.7l-1.9.5zm-8.3 7.4c7.2-.4 13.7-.3 19.5 0a104.4 104.4 0 0 0-6.4-5.6c-2.3-.2-5-.5-7.6-1l-9.7 2.6c2.5.2 4.8.2 6.8 0 0 0-3.6 1.2-11.3 1.4h-.1c3 1 6 1.8 8.8 2.6zm0-7.7a239 239 0 0 1-16.8-4.3l-3 .9 7.8 3.6-7.5 1.2c2.4.6 4.7 1 7 1.4 4.3-1 8.5-2 12.6-2.8zm-22.8 9.8-1-.2-2 .6 3-.4zM55.1 269a716.7 716.7 0 0 0-4.7 0 222.5 222.5 0 0 1-7 3l2.8 2c3.3-1.7 6.2-3.4 9-5zm-2.5-6.5c-2.9.3-6.9.5-12.1.2a247.5 247.5 0 0 1-8.4 1.8l1.6 1c3.4 0 6.8.1 10.1.3a318.8 318.8 0 0 0 8.8-3.3zm-17.1 17-1-.2.7.3.3-.1zm9.8 4.6a664.8 664.8 0 0 1-9.2-1.8l-2 1.3 4.4 1.5 6.8-1zm2.6-2.5a370 370 0 0 0-8.5-1.5l-.9.6a264.5 264.5 0 0 0 9.6 3l2.5-.3a260.1 260.1 0 0 0-2.7-1.8zM31 286.2l-.7-.2-.8.5 1.5-.3zM74 47.5c-6.1.2-12.5.7-19 1.4l-11 3.2-.3.1L50 54c9.5-1.8 15.7-2.7 15.7-2.7-4 .7-8.4 2-13.3 3.4a793.6 793.6 0 0 0 10.2 2.8c4.4-3.4 8.3-6.8 11.4-10zM41.4 286a825.3 825.3 0 0 0 15.8 5.1l3.9-.5a210.5 210.5 0 0 0-7-5 670 670 0 0 1-6.6-1.2l-6.1 1.6zM71.7 60.8c2.3-4.7 4-9.2 4.8-13.3h-1.2a88 88 0 0 1-9.2 10.9l3.7.9a69.6 69.6 0 0 1-4.4-.2l6.3 1.7zm-30.6-9.5a661.2 661.2 0 0 1 9.5-1.8L40 51zm4.1 5.7a374.4 374.4 0 0 0-8.7 3 657 657 0 0 1 8.6 5.2 616.2 616.2 0 0 1 9-1.6 224.7 224.7 0 0 0 4.8-3.4L45.2 57zm-2 8.6a324.9 324.9 0 0 0-10-4.5l-6 2.3 10 3 .1.3a656.7 656.7 0 0 1 5.9-1.1zM29.3 33.3l2.6.9-2.1 3.6-1 1.2c11.4-1.6 21.6-2.3 30.6-2.5a315.5 315.5 0 0 0-7-3.2c-3.6.7-11.1 1.5-23 0zM41 55.8a412.2 412.2 0 0 1-4-1.1l-2.7 1-2.3 1.6.6.3 8.4-1.8zM52 6.4A272.4 272.4 0 0 0 43.5 9h-.2l3.9 1.2.4.1a172.8 172.8 0 0 0 7-4H52zM47.8 6h-9.3l2.3 1.4 7-1.4zM29 153.6a642.3 642.3 0 0 0-4.6-.6l-3.3 3 11.7 3.6 9.6 3 14-2.8c-8.3-1.3-17.8-3.6-27.4-6.2zM83.7 21.5a170 170 0 0 0-26.8-6 226.5 226.5 0 0 1-10.1.8L38 18.1l-3.4 2.2a508.6 508.6 0 0 1 7.2 4c14.3-.5 28.8-1.3 41.9-2.8zM51.5 32.9a447.8 447.8 0 0 0-9-3.8c-4.1.3-8.5.5-13.2.6 8.4 2 16 3.3 22.2 3.2zM38.7 13.2a591 591 0 0 0-5.2-.6l-1.2.4 6.4.2zM45 66.5a276.2 276.2 0 0 0-6.6 2.1l.8 1.4-10 1.8a534.1 534.1 0 0 0-8.6 3.2l1.6 1.8A518.8 518.8 0 0 1 40 72.6a354.8 354.8 0 0 0 7.7-4.8L45 66.5zm9.5 41.9-.9-.2c-1.5.3-4.3.8-8.5 1a271.2 271.2 0 0 1-3.6 4.3l1.5.4 1 .3c3.9-2 7.4-4 10.5-5.8zm-18.2.7-2.7-.2-4.3.8a651.8 651.8 0 0 0 5 1.6l2-2.2zm16.2-1.1a682.2 682.2 0 0 1-5.6-1l-.7.8c2.3.2 4.4.3 6.3.2zm3.1-12.7a207.7 207.7 0 0 1-4 5.5c8.4-.6 16-.7 22.7-.5-5.5-1.9-11.9-3.5-18.7-5zm1 27a327 327 0 0 0-16.9-3.1l-.9.3a523.3 523.3 0 0 1-3.6 2.3l7 2-1.8 3.5 1.2.7c5.3-2.3 10.3-4.1 15-5.7zm-32 12.3-2.3-.4h-.4l-1.3 1.3a493.6 493.6 0 0 1 4-1zm31.9-62a142.5 142.5 0 0 0 6.5-4 214.2 214.2 0 0 0-8.6 2.6 368.9 368.9 0 0 1 2 1.3zm-7 .2c-4.8 3.6-10.3 7.5-16.7 11.6 8.6-4 16.8-8 23.6-11.8a115.5 115.5 0 0 0-2.2-1.3c-1.6.4-3.1 1-4.7 1.5zM46.4 66l2 1.2a284.3 284.3 0 0 0 5-3.2 183.7 183.7 0 0 0-7 2zm10.7 7a650.6 650.6 0 0 1-19.4 13 213.2 213.2 0 0 1 15 3.7c6-7.6 11.4-15.2 15.6-22.4l-5 1.2a574.4 574.4 0 0 1-6.2 4.5l.4.2-.4-.2zm-7.8 21a317.2 317.2 0 0 0-4.7-.8L42.5 95l-14.9 3.3a500.3 500.3 0 0 0 10.5 3.8l4.8-.5a358.2 358.2 0 0 0 6.4-7.7zm15-26.2 4-.6a105.4 105.4 0 0 0 2.6-4.8c-2.4-.3-5-.8-7.6-1.3A156 156 0 0 1 53.2 70a638.8 638.8 0 0 1 11-2l1.1-.8-1 .7zm-34.2 35.6a536.1 536.1 0 0 1-9.4-2.2l-1.8.8 2.6.8 6.1 1 2.5-.4zm27 272c-4.3-1-8.8-2-13.4-3.4l-5.6 1.7 2.5.8-1.8 3a308 308 0 0 0 9.3 3c3.3-1.8 6.3-3.5 9-5.2zm-17 164a528.3 528.3 0 0 1-16.2-3.8l-.4.2-1.4 1.7a512.4 512.4 0 0 0 9 3.4l12.7 1.8 1-.3-4.8-3zm24.1 4.7-2.9-.5a340.2 340.2 0 0 0-4.4 1.5 148.2 148.2 0 0 1 6.4 5.8c2.6-.5 5.2-1 7.6-1.3a106.4 106.4 0 0 0-2.5-4.8 539.8 539.8 0 0 1-4-.7 152.1 152.1 0 0 1-.2 0zm2.4-2.2A290.8 290.8 0 0 0 63 543l.5.4 4.9 1.2a123.5 123.5 0 0 0-1.7-2.8zm-3.6 1.5-.3-.3-.2.1.5.2zm-31.3 15.4a636 636 0 0 1-4.9-1 558.8 558.8 0 0 1-4.6 2.6l.2.4 1.6.4a575.7 575.7 0 0 1 7.7-2.4zM54 548.4a797.6 797.6 0 0 1-4.2-.7 377.3 377.3 0 0 0-5 1.8l1.7.6-3.1 3.6-1.6.2 3.3 1.1c4.7-1.2 9.3-2.3 13.7-3.2a220 220 0 0 0-4.8-3.4zm-.8-.5a251.3 251.3 0 0 0-1.4-1l-1 .3 2.4.7zM41 556.2a601.3 601.3 0 0 1-5.6-1.2l-4.2.6 5.2 1.9c1.5-.5 3-1 4.6-1.3zm1.9-45.9a281.6 281.6 0 0 1-4.8-.6l5 1-.2-.4zm9.6-6.3c-1.9 0-4 0-6.3.2l.7.9a748 748 0 0 1 5.6-1.1zm-3.2 14a360.3 360.3 0 0 0-6-7.3l-17.4 3.6 12.4 3.5 1.9 1.8 9.1-1.6zm14.3 19a198 198 0 0 0-10.8-14.8 212.1 212.1 0 0 1-15 3.8 650.1 650.1 0 0 1 19 12.7 207 207 0 0 1 6.8-1.7zm-12-26a208.7 208.7 0 0 1 4 5.6c6.8-1.5 13.2-3.1 18.7-5-6.7.2-14.3 0-22.7-.6zm4.2 28c-6.7-3.8-14.7-7.7-23-11.5 6.4 4 12 8 16.7 11.6l2.7.9 3.6-1zm-19.5-36.2-2-2.2-4.5 1.5 3.3.8.5.1 2.7-.2zm-.8 135.4-1.4-.6a746.3 746.3 0 0 0-5 1.6l6.4-1zm15.9 24a317 317 0 0 1-22.8-10.1 238.5 238.5 0 0 0-8.9 2.3l13 3.1-8.3 2.6a490.2 490.2 0 0 1 3.2 2l12.4 2.2a353.3 353.3 0 0 0 11.4-2zm-2.1-16.9a236.4 236.4 0 0 0-5-2.7l-5 1.2c3.3.6 6.6 1 10 1.5zm0-361.4 4 1-2.2-1.4-1.7.4zM31 678.8a533.7 533.7 0 0 0-7.1-4l-3.2.7 4.3 3.6 1.5.4 4.5-.7zm12.6 7.5a420.5 420.5 0 0 0-9.5-5.7l-2 .6 5.3 1.5-6.5 2.9 6.5 2.2a289 289 0 0 1 6.2-1.5zm13.5-68a223 223 0 0 1-24.2-1.9h-.2l3.2 1.2 2.9.6-.7.1c2.7 1 5.3 1.8 7.8 2.5 6.2.3 9.2 1.4 9.2 1.4a38 38 0 0 0-5.2-.2c3.6 1 6.9 1.8 9.9 2.4l-12.9-2.2c-4 .3-8.7 1-13.5 2.1l3.8 1-12.9 2.6a550.3 550.3 0 0 1 9 5.7l7.2-1.2a154 154 0 0 1 29.4-4.6s-13.1 3.2-30 8.2l.8.1-2.8.6 1.6 1c18-3 35.1-7 45.6-12.3a160 160 0 0 1-28-7zM48 606a780 780 0 0 1-3.7-.7l1.4.7H48zm7.1 0a173 173 0 0 0-7.5-4.3h-.4l-4 1.2A271 271 0 0 0 53 606h2zm-14.9 5.8a70.8 70.8 0 0 1-1.4 0l2.2.3c-.3 0-.5-.2-.8-.3z"/><path fill="none" d="M39.6 620.8a674.9 674.9 0 0 1-6.3-1.3l-9.1 2.3 1.2.3a115 115 0 0 1 14.2-1.3zm2-22.3c-4.7-2.4-9.9-5-15.2-7.3L24 593l9.3 3.6-3.2 1.1 1.8 1 1.7.6a588.5 588.5 0 0 0 8.2-1zm-16 35.2a594.7 594.7 0 0 0-6.9-3l-.7 1.8zM47 676.3a296.2 296.2 0 0 0-10.2-5.2l-2.7.6 1 .2-2.2.6a253.6 253.6 0 0 1 7.4 4.8l6.7-1zM34 343a484.2 484.2 0 0 0-7.6-2.3l-2.4.3 2.8 1.4 2.2.5 5 .1zm21.2.2c-3.3-2-7-4.1-11-6.2l-5.6 1.3a231 231 0 0 1 11.9 4.9h4.7zm-5.7-15 5.3 1 5.7-1.2a245.1 245.1 0 0 1-4.4-1.6 149.8 149.8 0 0 0-6.6 1.7zM36 369.7l-11.4-.7 5.4 2 2.3.8 5.4-1.4-1.6-.5zm16.6-20.2a326 326 0 0 0-8.8-3.3l-3 .1-.8 3c5.4-.3 9.6-.2 12.6.2zm-17.1-17-.3-.1-.7.2 1-.1zm12.8 356.8-1.3-.9-4 1.2 3 1 2.3-1.3zm2-377a241.3 241.3 0 0 1-6.7-.5l2.6 1.2a760.9 760.9 0 0 1 4.1-.8zm-5.3 9.4a313.2 313.2 0 0 1-8.7-3.8l-4 .8a471.1 471.1 0 0 0-7 2.5 413.2 413.2 0 0 0 10.3 3.1 280.6 280.6 0 0 1 9.4-2.6zm3 6.6a265 265 0 0 0-9.5 3l.9.6a340.9 340.9 0 0 0 15-2.8 584 584 0 0 1-6.3-.8zm9.3-22.4a628.7 628.7 0 0 1-9.4-1.3l-7 1 5.4.7-1.8.4 3.4.5 9.4-1.3zM49 323.5l-7.6 2.5 6.1 1.6a615 615 0 0 1 8.2-1.5 284.2 284.2 0 0 1-6.7-2.6zm-3.7 4.5a667.3 667.3 0 0 1-6.8-1l-2 .6.8.3-1.4 1.8.2.1a682.7 682.7 0 0 1 9.2-1.8zm9.8 72.3h-9.7l1.3.3-1.6-.3-15.3.3 13.5 2.6-4.2 2.1 4.9 1.2.3-.1c4-2 7.6-4.1 10.8-6.1zm6.5 52.6a433.2 433.2 0 0 0 .4 0h-.4zm-5.1-.8c-5.8-.9-12-2.2-18.5-3.9l-.8.3-4.3 1.4 3.4 3.4-2.7 3.6.1.2c8-2 15.8-3.8 22.8-5zm-6.8-25a262.5 262.5 0 0 1-10.8-2.4l-3.1.6c5 1 9.8 1.7 13.9 1.8zm-22.3-17.5-1.8-.2-4.1 1 .2.1 5.7-.9zm-.6 83.1a95.1 95.1 0 0 1-.5-.1l-.2.2 1 .3-.3-.4zm29.7-3a197 197 0 0 1-17.4-6.8l-10.7 1.4a320 320 0 0 1 3.8 3.9 622.1 622.1 0 0 1 6.6 4.3l1 .3c5.7-1 11.4-2 16.7-3.1zm-8.4-108-.9.6 5.3.7 1.1-.2-5.5-1zm6.4 1.2-.8.2 5 .6-4.2-.8zm-8-1.5a643.8 643.8 0 0 1-12-2.4l-3.2.8a409.6 409.6 0 0 0 14 2.2l1.1-.6zm9.1 1.3 4.9 1.2c12.9 1.2 25.3 1.4 35.8 0A130.8 130.8 0 0 0 52 371.5a693 693 0 0 0 18.7 5.8c-4-.2-8.5-1-13.4-2a569.8 569.8 0 0 1-7.9 5.6l5.8 1.6 4.6-.7c-1.3.2-2.7.5-4 .9zm-1 121c-3.2-2-6.7-4-10.6-5.9l-1 .3-1.5.4a265.9 265.9 0 0 1 3.6 4.3c4.2.2 7 .7 8.5 1l1-.2zm-25.3-107-3-.7-1.2.8h4.2zm26.3 3.6a617.3 617.3 0 0 1-6.7 4.6c7-2 13.2-3.4 18.8-4.4l-12.1-.2z"/><path fill="#d3d3d3" d="M0 0v1500h33l.4-.3a236 236 0 0 0 10.6-2.3h.3a55 55 0 0 0 4.7 2.6h1.5l-1.6-1 4 1h16.6a209.9 209.9 0 0 1-10-3c10.2 0 18.7-.5 25.6-1.4 31.3 7 46.3 1.7 46.3 1.7a84 84 0 0 1-34.3-3.7c6.3-1.4 9.5-2.7 9.5-2.7-3.3 1-7 1.7-11 2.3-6.5-1.9-13.2-4.2-20.1-6.9a52.8 52.8 0 0 0 12.4-7.8c-4 2.5-9.3 4.7-15.5 6.6a387.6 387.6 0 0 1-17-7.2 649 649 0 0 1 14.4-3.8c-5 .2-11 1-17.6 2.2a23.5 23.5 0 0 0-.5-.1 529.4 529.4 0 0 1-8-3.9c41.3 3.5 63-5.2 63-5.2-18.2 5.4-46 3.1-72-1.3l7.2-1.2a53 53 0 0 0 19.1-1.2c-5.5.6-13-.3-21.3-2a91 91 0 0 1 9.4-1.5 481 481 0 0 0 10.6 1.8c-2.6-.5-5.4-1.1-8.4-2 2.6-.1 5-.1 7 .1 0 0-3.7-1.3-11.7-1.4a242 242 0 0 1-3-1 810 810 0 0 1 18-5c3 .4 5.7.6 8.2.7l-5.4-1.4.5-.1a102 102 0 0 1 29 10.2s-13.5-13.2-55-21.3l7.5-1.4-4-2.7c23.7-3.6 47.9-5 64.2 0 0 0-25-10.1-72.6-4.3a404 404 0 0 1 8-4.2c8.9 0 13-1.4 13-1.4-2.8.3-6.2.2-9.8-.2 5-2.4 10-4.7 14.9-6.8l5.6-1.3-4.3.7a215.5 215.5 0 0 1 5.5-2.2c8.6 2.3 15.9 5 21 8.2 0 0-4.6-4.5-16.6-9.8l1.1-.4 3.4.2-2.2-.6c13-4.4 24.7-6.6 33.7-5 0 0-14-5.5-43 2.5l-4.6-1.2a177.2 177.2 0 0 0-9.7-3c5.8-1.8 11.2-3.3 15.7-4.1 0 0-7.6 1.2-18.6 3.3-.4 0-.8-.2-1.1-.3a641.4 641.4 0 0 0 9-6.2 484.7 484.7 0 0 0 10.2 1.8l-9.5-2.3 3.6-2.6a103 103 0 0 1-3.9 2.5 219.2 219.2 0 0 1-5.6-1.7 269 269 0 0 1 32.1-3l6 3s-1.3-1.1-4.2-3c11-.2 20.9.7 29 3 0 0-11.3-4.5-33.3-5.7a129 129 0 0 0-21.1-9 134 134 0 0 0 14.8-28.8c3 .4 5.7.6 8.2.7l-7.8-2c3.5-10.3 3.3-15.8 3.3-15.8-.7 4.6-2.4 9.8-5 15.3a778 778 0 0 1-6.5-1.7l4.5.2-3.7-1a62.3 62.3 0 0 0 12.2-15.8 81 81 0 0 1-15.7 15 769.9 769.9 0 0 1-10.2-2.9c4.9-1.4 9.4-2.6 13.3-3.4 0 0-6.2 1-15.7 2.8a812 812 0 0 1-6.4-1.9c6-1.8 11.4-3.3 16.1-4.2 0 0-7.8 1.2-19 3.4a713.6 713.6 0 0 1-10.2-3l3.2-1.6-4.3-2c27.4-5 57.8-8 77.2-2.2 0 0-21.6-8.7-63-5.2a512 512 0 0 1 8.1-3.9c2.2-.3 3.3-.7 3.3-.7l-2 .1c9.7-4.4 19.5-8.5 29-12l5.9 2.3s-1.5-1-5-2.6c18.7-6.6 36-10.3 48.5-8.2 0 0-18.7-6.7-57.6 4.6-3.5-1.1-7.7-2.4-12.7-3.6a139 139 0 0 0 26.4-16.7c7 .4 13.6 1.3 19.1 3 0 0-6-2.4-17.6-4.2 6.7-5.6 9.4-9.4 9.4-9.4-3 3.2-6.9 6.3-11.2 9.1a198.7 198.7 0 0 0-45-.6l-2.2-1.5a268.7 268.7 0 0 1 5.8-1.9c6.3-.3 9.2-1.3 9.2-1.3-1.6.2-3.3.2-5.2.1 3.6-1 6.9-1.8 9.9-2.4l-12.9 2.3a75.6 75.6 0 0 1-3.1-.3l.1-.1-18-3.6 10.3-3.6-6.6-1.5 3.6-2.4 7.3 1.2c11 2.7 21.4 4.5 29.4 4.7 0 0-13.5-3.4-30.7-8.5l4.6-.7h-.2c18.2 3.1 35 7.4 44.4 13.2 0 0-10.1-9.9-39.6-17.8l5.4.7c-2.3-.3-4.8-.8-7.5-1.4a660 660 0 0 0 4.9-3.4c20.8-2.6 41.2-3.2 55.5 1.1 0 0-16.6-6.7-48.6-6l1.3-1-1.4 1c-4.5.1-9.2.4-14.3.8 7-3.4 14-6.6 21-9.6a88.2 88.2 0 0 1 23.3 8.8s-5.1-5-18.7-10.7c23.8-9.8 46.6-16 62.2-13.5 0 0-23.5-8.4-72.6 9.6-5.3-1.8-11.5-3.6-18.7-5.2a588 588 0 0 0 19.2-13.3 186 186 0 0 1-22.6 12.5l-4.6-.9a212.7 212.7 0 0 0 25-18h.6-.6a142.3 142.3 0 0 0 8.3-7.7l4.4.2-3.7-.9a62.6 62.6 0 0 0 12.2-15.8c-3 4-7.3 8.2-12.7 12.6-2.4.2-5 .6-7.7 1a802.4 802.4 0 0 1-14.3-4c6-1.8 11.4-3.3 16.1-4.3 0 0-7.8 1.3-19 3.5a704.8 704.8 0 0 1-10.7-3.2l7.8-3.6-3.3-.6c4.4-.8 9-1.5 13.4-2.1 9.4 1.4 15.6 2.1 15.6 2.1a137 137 0 0 1-12.2-2.5c20.7-2.6 41-3.2 55.3 1 0 0-21.6-8.6-63-5.1a529.4 529.4 0 0 1 8.1-3.9l3.3-.7-2 .1c6.5-3 13-5.8 19.4-8.3 6.2 2 11.5 4.1 15.5 6.6 0 0-3.5-3.4-12.4-7.9 21.5-8.2 41.7-13.3 56-10.9 0 0-21.2-7.5-65.2 6.9-5.5-2.2-12.2-4.4-20.3-6.5a629.2 629.2 0 0 0 9.6-6.7c10.7.1 17.8.4 17.8.4a103 103 0 0 0-14.8-2.5l.7-.5-.7.4-3-.2c29.9-14.4 37-27.5 37-27.5-6.8 8.3-21 15.9-37.7 22.6a97 97 0 0 1-22.3-3.3c10.2-3.5 19.7-6.4 27.1-7.9 0 0-5.3.8-13.5 2.4l-3-2.8-.8-.2a173 173 0 0 0 17.4-3.6c3.6.5 7 .8 10 .8l-6.8-1.7a99.9 99.9 0 0 0 35.3-16.9c3 .5 5.7 1.1 8.3 1.9 0 0-2.6-1-7.8-2.3a41 41 0 0 0 6.7-6.5 42.4 42.4 0 0 1-8.3 6.1 181 181 0 0 0-54-2.5l.4-.2-4.8-.9a603.4 603.4 0 0 0-10.5-6.8 264.5 264.5 0 0 1 3.3-1.2l6-.9c7.4-.1 14.5-.5 21-1.2l.7.5-.7-.5c4.4-.5 8.5-1 12-1.9 21.1 3.3 31.3 0 31.3 0-10.9 1.7-26.1-1.5-42.4-7 31 .6 47.1-6 47.1-6a131.8 131.8 0 0 1-47.3 2.1c21-7.1 28.6-14.4 28.6-14.4-8.6 5.3-23.4 9.3-39.9 12.4 7-4.7 11.3-8 11.3-8-3.9 2.7-8.7 5.5-14 8.3l-2.2-.3a382 382 0 0 1-5.3-2.2l2-.7-9.7-2.7a712.6 712.6 0 0 1 39.7-11.2c-5 .1-11 .9-17.6 2.1a75.6 75.6 0 0 0-20.6-.2l9.8-2.3-19-3.6-.6-.6c55.6 9.3 84.8-2.4 84.8-2.4-19.9 5.9-51.2 2.6-79.2-2.7l4.1-1c20.4 3.1 29.5 0 29.5 0-5.5.5-13-.3-21.3-2.1 3.3-.7 6.5-1.1 9.4-1.4l10.6 1.8c-2.6-.5-5.4-1.2-8.4-2 2.6-.2 5-.2 7 0 0 0-3.7-1.2-11.7-1.3l-3-1a816 816 0 0 1 18-5c3 .4 5.7.6 8.2.6l-5.4-1.3.5-.2a102 102 0 0 1 29 10.2s-14-13.7-57.4-21.7l5.9-2.1.3-1.6c23.5-3.5 47.6-4.9 64 0 0 0-25-10-72.7-4.3a398.7 398.7 0 0 1 8-4.1c8.9 0 13-1.4 13-1.4-2.8.3-6.2.2-9.8-.2 5-2.4 10-4.8 14.9-6.8a107.4 107.4 0 0 1 5.6-1.3s-1.5.2-4.3.7a216.9 216.9 0 0 1 5.5-2.2 83 83 0 0 1 21 8.2s-4.6-4.5-16.6-9.8l1.1-.4 3.4.1-2.2-.5c13-4.4 24.7-6.6 33.7-5 0 0-14-5.5-43 2.5l-4.6-1.2a177.9 177.9 0 0 0-9.7-3 154 154 0 0 1 15.7-4.2s-7.6 1.2-18.6 3.4l-1.1-.3a635.3 635.3 0 0 0 9-6.2l10.2 1.7c-2.9-.5-6-1.3-9.5-2.3l3.6-2.5a103 103 0 0 1-3.9 2.4 215.3 215.3 0 0 1-5.6-1.6c10.9-1.6 21.8-2.8 32.1-3l6 3s-1.3-1.2-4.2-3c11-.2 20.9.7 29 3 0 0-11.3-4.5-33.3-5.7-4.7-2.6-11.6-5.9-21.1-9A134 134 0 0 0 73 946.9c3 .4 5.7.6 8.2.6l-7.8-2c3.5-10.2 3.3-15.8 3.3-15.8a56 56 0 0 1-5 15.4 817.4 817.4 0 0 1-6.5-1.8 71.2 71.2 0 0 0 4.5.2s-1.4-.3-3.7-1c9.5-9.6 12.2-15.7 12.2-15.7a81 81 0 0 1-15.7 14.9 768 768 0 0 1-10.2-2.8c4.9-1.5 9.4-2.6 13.3-3.4 0 0-6.2 1-15.7 2.8a812 812 0 0 1-6.4-1.9c6-1.9 11.4-3.4 16.1-4.3 0 0-7.8 1.3-19 3.5a682.6 682.6 0 0 1-15.4-4.7 614.5 614.5 0 0 1 3-1.7c27.8-5.1 58.7-8.3 78.3-2.4 0 0-21.6-8.7-63-5.3a520.6 520.6 0 0 1 8.1-3.8 22 22 0 0 0 3.3-.7l-2 .1c9.7-4.5 19.5-8.6 29-12l5.9 2.2s-1.5-1-5-2.5c18.7-6.6 36-10.3 48.5-8.2 0 0-18.7-6.7-57.6 4.6-6-2-14-4.2-24.8-6.3a603.7 603.7 0 0 0 6.6-4.6c10.7.1 17.8.4 17.8.4-3.8-1-8.2-1.8-13.1-2.4a105.5 105.5 0 0 1 5-1s-2.3.3-6 1l-.7-.2.7-.4-.7.4c-5.8-.6-12.2-1-18.8-1.2h.1l-2-.5c4.7-.8 8.9-1.2 12.3-1 0 0-3.7-1-11.4-.9l2.7-.4c11.5.5 16.9-1.3 16.9-1.3-2.3.2-4.9.2-7.7 0 21-2.6 41.5-3.2 56 1 0 0-22.9-9.1-66.6-4.8l-2.9-.9 8.6-2.7C52 875 55 874 55 874c-1.6.1-3.3.2-5.2.1 3.5-1 6.9-1.8 9.9-2.4L46.8 874a81.2 81.2 0 0 1-4.8-.6l3.8-.9-12.1-2a243.5 243.5 0 0 0 17.2-4.5c7 1.3 13.5 2.2 18.9 2.3l-14.5-3.7 5.6-2a97.2 97.2 0 0 1 27 9.8s-5.9-5.7-21.5-11.9c9.6-3.8 17.3-7.9 23.4-11.7 6.2.4 11.9 1.3 16.8 2.8 0 0-5.1-2.1-15.3-3.8 14.4-9.4 19-17.2 19-17.2A70.4 70.4 0 0 1 85.7 847a172 172 0 0 0-27.6-1.3l1.3-1-1.4 1c-4.3 0-8.8.3-13.7.7l-3.6-2.4-7-3.6-10.1-3.6 21-3.6-4.4-1.4C59.7 835 78 839.5 88 845.6c0 0-12-11.6-47.8-19.7a638.9 638.9 0 0 0 8.5-5.8l9 1.2-8.4-1.6a526.5 526.5 0 0 0 9.8-6.9c3.9.6 7.5 1 10.8 1L53 809.4c7.2-5.8 12.5-11 16.3-15.2 14-.8 27.1-.2 37.2 2.8 0 0-11.8-4.7-34.6-5.8a46 46 0 0 0 6.3-9.2 52 52 0 0 1-8.7 9.1c-7.8-.3-16.8-.1-27 .8a173 173 0 0 1 17.1-4.6s-6.2 1-15.5 2.8l.7-1.5c6.9-.2 10.1-1.4 10.1-1.4-2.7.3-6 .3-9.4 0l.2-.6-3.4-3.5 3.4-3.6-5.7-1a540.9 540.9 0 0 1 10-4.9c15.7 3 29.6 7 37.8 12 0 0-8.1-7.8-30.9-15.2 28-12.5 56.2-21.7 74.4-18.6 0 0-21.6-7.7-66.6 7.4a140 140 0 0 0-6.2-.8l.7-.5-.7.5-3-.3a130.3 130.3 0 0 0 26.2-16c33.5 8.1 49.6 2.3 49.6 2.3-11.7 2-27.4-1-44.6-6.8 4.3-4.3 5.8-7 5.8-7a41 41 0 0 1-7 6.6 347 347 0 0 1-22.2-8.6 494.3 494.3 0 0 1 7.2-2.2c-2.9.2-6 .6-9.5 1.2a447.4 447.4 0 0 1-11-5c3.7-1.1 7.2-2 10.4-2.8 17.4-1.6 34-1.5 46.1 2.1 0 0-21.6-8.6-63-5.2 8.6-4.1 17.3-8 25.8-11.6h.2a61 61 0 0 1 8.7 9.1s-1.5-3.4-6.3-9.2c22.8-1 34.6-5.8 34.6-5.8a98.4 98.4 0 0 1-30 3c21-8 40.9-12.8 54.8-10.4 0 0-21-7.6-65.1 6.9-3.4-3.5-7.6-7.4-13-11.6l.8-.5 15.7-4.2a90.6 90.6 0 0 0-11 .8l.5-.4-.6.4a546.3 546.3 0 0 0-9.5-6.6c3-.7 5.9-1.3 8.5-1.7l-9.1 1.2a672.7 672.7 0 0 0-8.5-5.7c7.2-1.7 13.3-3.4 18.7-5.2 49.1 18 72.6 9.5 72.6 9.5-15.6 2.6-38.4-3.7-62.2-13.4a66 66 0 0 0 18.7-10.7 88.2 88.2 0 0 1-23.3 8.8c-7-3-14-6.3-21-9.6a232.6 232.6 0 0 0 14.3.7l1.4 1-1.3-1c32 .7 48.6-6 48.6-6-14.3 4.3-34.8 3.8-55.5 1.1a639.9 639.9 0 0 0-5-3.3l7.6-1.5-5.4.7c22-5.9 33.2-12.9 37.4-16a61 61 0 0 0 27.6-1c-10.3 1.9-24.1-1-39.2-6.4 21.5-1.3 32.5-5.7 32.5-5.7a120 120 0 0 1-40.7 2.5 295.6 295.6 0 0 1-14.3-6.2l7-.6.7.4-.7-.4h.7l6 1a105 105 0 0 1-5-1.2 98 98 0 0 0 13.1-2.3l-17.8.3a614.2 614.2 0 0 0-6.6-4.6C78 595.7 88 589 88 589c-9.2 4-25.6 7-43.5 9.3a636.9 636.9 0 0 0-13.8-9.1l13.5-3.2-.8-3.6-8.5-1.2a69.6 69.6 0 0 1 20.2-1.8s-9.7-3.4-31.1.2l-4.7-.7 13.8-3.6-10.5-3.2c55.1 9.1 84.1-2.5 84.1-2.5-19.8 5.8-51 2.6-78.8-2.6l12.3-2.5L33 563l7.8-2.3c11.2 2.2 19 3.4 19 3.4-4.7-1-10.2-2.4-16.1-4.3A746.3 746.3 0 0 1 50 558c9.5 1.8 15.7 2.7 15.7 2.7-4-.7-8.4-2-13.3-3.4a777.1 777.1 0 0 1 10.2-2.8 81 81 0 0 1 15.7 15s-2.7-6.2-12.2-15.9l3.7-.9a71.2 71.2 0 0 0-4.4.2 816.8 816.8 0 0 1 6.3-1.7 52.8 52.8 0 0 1 5 15.3s.3-5.6-3.2-15.8l7.8-2c-2.5 0-5.3.3-8.2.6a106 106 0 0 0-3.4-8.3c17.3-5.2 33.3-8 44.8-5.8 0 0-15-5.6-47 1-2.5-4.7-5.5-10-9.3-15.6a127 127 0 0 0 21.2-9c22-1.3 33.3-5.8 33.3-5.8-8.1 2.4-18 3.2-29 3 3-1.8 4.2-3 4.2-3l-6 3c-10.3-.2-21.2-1.3-32.1-3l5.6-1.6a101.6 101.6 0 0 1 3.9 2.4s-1.3-.9-3.6-2.5c3.4-1 6.6-1.8 9.5-2.3 0 0-4 .6-10.2 1.8a633.9 633.9 0 0 0-9-6.3l1-.3a539 539 0 0 0 18.7 3.4c-4.5-.9-9.9-2.3-15.7-4.2l9.7-3 4.5-1.2c29 8 43 2.5 43 2.5a70.9 70.9 0 0 1-33.6-5 309 309 0 0 1 2.2-.5 67.2 67.2 0 0 0-3.4.2l-1.1-.4c12-5.4 16.6-9.9 16.6-9.9a83 83 0 0 1-21 8.2 214.8 214.8 0 0 1-5.5-2.2l4.3.8a108.1 108.1 0 0 1-5.6-1.3c-5-2.1-10-4.4-15-6.9 3.7-.4 7-.5 9.9-.1 0 0-4.1-1.5-13-1.5l-.9-.4 2.9-.7-6-.9a428 428 0 0 1-4-2.1c47.7 5.8 72.6-4.2 72.6-4.2-19.2 5.7-49.2 2.8-76.4-2.2l-.8-.3c48.9-7.8 64.5-23 64.5-23a102 102 0 0 1-29 10.2 57.3 57.3 0 0 1-.5-.1 459.3 459.3 0 0 1 5.3-1.4c-2.4 0-5.2.3-8 .6a822.4 822.4 0 0 1-17.7-4.9l1.1-.3-.1-.2 1.6-.5a42 42 0 0 0 11.8-1.5c-2.2.3-4.5.3-7.1.1 3-.8 5.8-1.5 8.4-2L49 444a92.3 92.3 0 0 1-6.6-.9l-.4-.4-.8-.4a69.3 69.3 0 0 1 19.7-1.7s-7.7-2.7-24.8-.7l-1.7-.8-1-.7c26.3-4.6 54.7-7 73.1-1.6 0 0-25.1-10-73-4.1l1-.8-12.9-3.5 5.1-1.1a82.2 82.2 0 0 0 25.4.4 111 111 0 0 0 17.6 2.1s-12.4-3-28.5-7.8l.7-.8-4.3-3.6-3.3-1A394.8 394.8 0 0 1 43 413l2.2-.3c5.3 2.9 10.1 5.6 14 8.2 0 0-4.4-3.2-11.3-7.9 16.5 3.1 31.3 7.2 39.9 12.4 0 0-7.6-7.3-28.6-14.4 17.9-1.7 34.9-1.7 47.3 2 0 0-16-6.4-47.1-6 16.3-5.4 31.5-8.5 42.4-6.9 0 0-10.2-3.3-31.2 0-3.6-.8-7.7-1.4-12-1.9l.6-.4-.7.4c-7.5-.8-16-1.2-24.7-1.3a267.6 267.6 0 0 1-5.6-2l1.3-.9 8.2-1.5.6-3.6 4.4-2c26 2.4 44.2-.2 54.4-2.4 3.2 1.8 6 3.8 8.3 6 0 0-2-2.6-6.7-6.4 5.2-1.2 7.8-2.3 7.8-2.3-2.6.8-5.4 1.4-8.3 1.9-6.4-5-17.6-11.8-35.3-16.9l6.8-1.7c-3 0-6.4.3-10 .8-8.2-2.1-17.8-4-28.9-5l2.9-.6 6.8-2c11.3 2.2 19.1 3.4 19.1 3.4a174 174 0 0 1-16.2-4.3l2.4-.7-10.1-1.8-3.2-1.1a102 102 0 0 1 22.2-3.3c16.9 6.7 31 14.3 37.7 22.6 0 0-7-13.1-36.8-27.5l2.9-.2.7.4-.7-.4c5.6-.6 10.6-1.5 14.8-2.6 0 0-7.2.3-17.8.4a622.2 622.2 0 0 0-9.6-6.7 153 153 0 0 0 20.3-6.5c44 14.5 65.1 6.9 65.1 6.9-14.2 2.4-34.4-2.7-56-11 9-4.4 12.5-7.8 12.5-7.8-4 2.5-9.3 4.7-15.5 6.6a350.9 350.9 0 0 1-6.7-2.7l4 .2-9-2.3 6.5-2c-2.6.2-5.5.6-8.5 1a461.6 461.6 0 0 1-5.7-2.5l2 .1-3.3-.7a549.6 549.6 0 0 1-4.1-2l4.8-1.3c35.7 1.7 54.2-5.8 54.2-5.8-14.3 4.3-34.6 3.8-55.3 1.2a169.5 169.5 0 0 1 7-1.7 384.3 384.3 0 0 0 .8-.1l4.4-.8-5.1.7a168 168 0 0 1-7.1-1.7c8-1 15.8-1.7 23.4-1.9a46 46 0 0 1 3.6 4.3s-.7-1.6-2.6-4.3a103 103 0 0 1 31 3s-11.2-4.4-33-5.7a94.4 94.4 0 0 0-7.6-8.8l3.7-1a70.4 70.4 0 0 0-4.4.3 139.4 139.4 0 0 0-7-6.4A103 103 0 0 1 88 294s-9.8-9.6-38.1-17.4a190 190 0 0 0-2.5-1.9 619.5 619.5 0 0 0 8.3-5.8c10.7 0 17.8.3 17.8.3a103 103 0 0 0-14.8-2.5l.7-.4-.7.4-3-.3c29.9-14.3 37-27.4 37-27.4-6.8 8.2-21 15.9-37.7 22.5-2.4 0-5-.1-7.8-.5 30.4-8 40.8-18 40.8-18-9.4 5.8-26.4 10-44.8 13.3l-2.2-.8c7-2.3 13.4-4 18.8-5.1 0 0-9.2 1.4-22 4l-5-1.7-2-1.5a186 186 0 0 0 29.1-5c3.6.5 7 .8 10 .8l-6.8-1.7c17.7-5 28.9-11.9 35.3-16.9 3 .5 5.7 1.1 8.3 1.9 0 0-2.6-1-7.8-2.3a41 41 0 0 0 6.7-6.5 42.4 42.4 0 0 1-8.3 6.1c-8.7-2-23.3-4-43.6-3.2 9.7-2.7 16.2-4.3 16.2-4.3-8 .2-18.5 2-29.6 4.8l-.2-.1a625.8 625.8 0 0 0-9.1-6l5.8-2-3.5-1.3.7-.3c8.7-.1 17.2-.5 24.7-1.3l.7.4-.7-.4c4.4-.5 8.5-1.1 12-1.9 21.1 3.3 31.3 0 31.3 0-10.9 1.6-26-1.5-42.4-7 31 .5 47.1-6 47.1-6a131.8 131.8 0 0 1-47.3 2c21-7 28.6-14.4 28.6-14.4-8.6 5.3-23.4 9.4-39.9 12.5 7-4.7 11.3-8 11.3-8-3.9 2.7-8.7 5.4-14 8.3L43 199a374.2 374.2 0 0 1-3.2-1.3l6.8-2.3-11.3-3.6c19-5.7 34.4-9.5 34.4-9.5-5 .1-11 .9-17.6 2.1a92.2 92.2 0 0 0-32.8 1.7l1.2-1.5-3-3.6 13.2-2c49.7 6.8 75.8-3.8 75.8-3.8-18.7 5.6-47.7 3-74.4-1.7l3.6-1.3c17.4 2 25.2-.7 25.2-.7-5.5.6-13-.3-21.3-2 3.3-.7 6.5-1.2 9.4-1.4l10.6 1.8c-2.6-.5-5.4-1.2-8.4-2 2.6-.2 5-.2 7 0 0 0-3.7-1.2-11.7-1.4l-3-.9a825.3 825.3 0 0 1 18-5c3 .3 5.7.6 8.2.6l-5.4-1.3.5-.2a102 102 0 0 1 29 10.2s-12.9-12.5-52-20.7l2-.4-3.1-3.6-1.4-.2c24.6-3.9 50.2-5.6 67.2-.6 0 0-25-10-72.6-4.2a398.7 398.7 0 0 1 8-4.1c8.9 0 13-1.5 13-1.5-2.8.4-6.2.3-9.9-.1 5-2.5 10-4.8 15-6.9l5.6-1.3-4.3.8 5.5-2.2a83 83 0 0 1 21 8.2s-4.6-4.5-16.6-9.9l1.1-.4 3.4.2-2.2-.6c13-4.4 24.7-6.5 33.7-4.9 0 0-14-5.5-43 2.5l-4.6-1.2a178 178 0 0 0-9.7-3 154 154 0 0 1 15.7-4.2S58 112.8 47 115l-1.1-.3a633.9 633.9 0 0 0 9-6.3 476 476 0 0 0 10.2 1.8c-2.9-.5-6-1.3-9.5-2.3a351.3 351.3 0 0 0 3.6-2.5 101.6 101.6 0 0 1-3.9 2.4 224.8 224.8 0 0 1-5.6-1.7c10.9-1.6 21.8-2.7 32.1-3 2.2 1 4.2 2 6 3.1 0 0-1.3-1.2-4.2-3 11-.2 20.9.6 29 3 0 0-11.3-4.5-33.3-5.7-4.7-2.7-11.6-5.9-21.1-9A134 134 0 0 0 73 62.6c3 .3 5.7.6 8.2.6l-7.8-2c2.3-6.7 3-11.4 3.2-13.8 11-.2 21.1.7 29.3 3 0 0-10-3.9-29.1-5.4l1.4-2.5a41.5 41.5 0 0 1-2 2.5c-8.4-.7-18.6-.8-30.5 0l1-.2-8.8-1.6A317 317 0 0 1 66.3 40c3 1.5 5.6 3 8 4.5l-7-4.5c14.9-1 28.7-.5 39.3 2.6 0 0-15.2-6.1-44.6-6a662.2 662.2 0 0 0-12.8-7.8c56.7-4 74.2-16.2 74.2-16.2-8.5 4.2-22.4 7-38.7 8.9a109 109 0 0 0-19.1-7c2.8-.4 5.4-.9 7.8-1.5l-13 .3A234.3 234.3 0 0 0 49 10.7a609.5 609.5 0 0 0 6-4.2 205.8 205.8 0 0 0 18.4 0l-.3-.2A113 113 0 0 0 106.6.6 122 122 0 0 1 64.8 3l.4-.1h-.5a297 297 0 0 1-17.4-1.8h3s-3-.8-9-1L40 .2l.7-.1H0zm20 1495.2.3-2c1 0 1.9.2 2.8.4l.4 1.2-3.4.4zm-9.4-2.2.9 3.2-1.5.2zm48.7 0a148.7 148.7 0 0 0 7-2.6c4.4 1.4 8.5 2.6 12.4 3.6-6.2 0-12.7-.4-19.4-1zM43 1481.3a279.8 279.8 0 0 0 17.4 7l-14.4 3-3-.5a415.3 415.3 0 0 1-13.1-5.5 712.8 712.8 0 0 1 13-4zm-6.7-3 2 1-6.1 1.5 3-2.2 1.1-.3zm25.3-27.4-2-.6 2.4.5h-.4zm-21.8 7.6.9-.3.8.2a89 89 0 0 0-1.7 0zm-10.9-2.7 4.4 1-5.7 1.4-1.5-.4 2-.8zm8.6-8.2c6.6 1.7 13 3 19 4-5.8 1-12.1 2.3-18.6 4a395.5 395.5 0 0 1-7.1-2.6l1.4-3.2zm2.2-36.7c5.8 1 11.5 2 16.8 3.2-6 2-12.5 4.5-19.5 7.7l-.2-.7 6-3.6-8.8-3.1a680.4 680.4 0 0 0 4.8-3.2l1-.3zm-6.1-10.3 2.7.2-2 2.2-3.5-1-.7-.7 3.5-.7zm20-.6 1 .1A144 144 0 0 1 44 1406l-1-.3-1.5-.5a261.6 261.6 0 0 0 3.6-4.3c4.2-.1 7-.6 8.5-1zm-6.7-1.3 5.6 1c-1.9.1-4 0-6.3-.2l.7-.8zm21.5-39.8-4 .7a316 316 0 0 0-.2 0 660.5 660.5 0 0 0-11 2c3.9-3 7.2-6 10-8.7 2.7.5 5.3 1 7.7 1.3a106 106 0 0 1-2.5 4.7zm-20 .2-2-1.3a181.2 181.2 0 0 1 7-2 269.5 269.5 0 0 1-5 3.3zm14.6 1.3-6.5 3.9-2-1.4a213.6 213.6 0 0 1 8.5-2.5zm-11.4 32.2a207 207 0 0 0 4-5.5c6.8 1.4 13.2 3 18.7 5-6.7-.3-14.3-.1-22.7.5zm-4.8-7.3 2.5.5a349.7 349.7 0 0 1-6.4 7.6l-4.8.6a476.1 476.1 0 0 1-5.8-2l12-3.2zm-16.9-2.7 13.9 2.2-14.5-1.8.6-.4zm8.9-5.6a652.2 652.2 0 0 0 18.3-12.3l.4.3-.4-.3a559.9 559.9 0 0 0 6.3-4.4l4.9-1.2c-4.2 7.2-9.5 14.8-15.5 22.4l-11-3 4.3-.5zm-6-.9c6.4-4 12-7.9 16.7-11.6l4.7-1.5 2.2 1.3c-6.8 3.9-15 7.9-23.6 11.8zm-10.6-1.4zm8.2-11.6c5-1.8 10-3.4 14.6-4.9l2.7 1.4a355.9 355.9 0 0 1-7.7 4.8 508.8 508.8 0 0 0-19.7 4.6l-1-1.7.4-.2 12.3-3.4zm2.9-10.2a323.6 323.6 0 0 1 9.9 4.5 632.1 632.1 0 0 0-18.6 3.8l-3.6-1.1 10.4-3.6-3-1.8a544.4 544.4 0 0 1 4.9-1.8zm3.2-1.2 8.7-3a301.2 301.2 0 0 0 13.7 3.3 222.2 222.2 0 0 1-4.8 3.4 645.7 645.7 0 0 0-9 1.6 670 670 0 0 0-8.6-5.3zm-.1-5.4 4.6 1.3a620.8 620.8 0 0 0-7.8 1.6l-.7-1.5 3.9-1.4zm-7.2-2.1 2.5.7-1 .2zm-4.6-15.5a395.6 395.6 0 0 0-6 3l-.8-.3zm18.5-22.2 1.3-1 1 .2-2.3.8zm-4.6 8.1c6.6-2.3 12.6-4.8 18-7.3 5 .7 9.6 1.6 13.9 2.5-9.2 2.8-19.5 6.6-30.8 11.7l-2.6-.9 9.5-3.6zm-5-10.3 8.2 1a372.9 372.9 0 0 1-9 4.4l-6.6 1.8-7.2-1.6 14.6-5.6zm15.5-1.9a599.4 599.4 0 0 0 6.6-4.5H66a241.2 241.2 0 0 1-13.2 5.3 278.2 278.2 0 0 0-3.8-.8zm-5.8-1.5a271.7 271.7 0 0 1 9.8-3h2a170.2 170.2 0 0 1-7.5 4.3l-.4-.1a741.1 741.1 0 0 1-4-1.2zm4.7-3a665.4 665.4 0 0 0-9 1.8 744 744 0 0 1-5.5-1.7l14.5-.2zm37-9.6c-5 3.1-10.6 6-16.7 8.7a119.9 119.9 0 0 0-8-1.1l5-1.2-6 1h-.6l.7-.5-.7.5c-7-.8-14.9-1.2-23-1.3a57.8 57.8 0 0 1 14.6-1.4s-3.7-1.1-11.4-1c.9 0 1.8-.2 2.7-.4 11.5.5 16.9-1.3 16.9-1.3-2.3.2-4.9.2-7.7 0 11.9-1.5 23.7-2.3 34.3-2zm-58-18.9-3.5 1.6-2.7-.6zm22.4-11a229.5 229.5 0 0 1-5 2.6c-1.7-.3-3.3-.8-5-1.2l10-1.5zm-3.6-18 5.7 1c-7.1 2.8-14.7 6.2-22.8 10.2a220.8 220.8 0 0 1-5.3-1.4l3.4-1.3-5.3-3.6h.1l23.8-3.6zm16.9-36-1.9-.5c1.7-.5 3-1 4.1-1.2l-2.2 1.7zm-11.5 8.1c-.6 0-1.1-.2-1.7-.4l4-1-2.3 1.4zm-17.1 4.6c5-1.8 9.7-3.3 14-4.6l2.6.4a423 423 0 0 1-27.5 16.5l-4.3-2 7-3.6 12.5-3.6zm6.3-5.7 5 .7a708.5 708.5 0 0 0-5.5 1h.4zm1-1.3a824.1 824.1 0 0 1 16-5.1l3.8.5a210.2 210.2 0 0 1-7 5l-6.6 1.2a220.6 220.6 0 0 1-6.1-1.6zm-3.4-9.1c5 1.2 10 2.3 14.6 3.2-4 .8-8 1.9-12.3 3l-.1-1.4-7.5-3a378.8 378.8 0 0 1 5.3-1.8zm1.5-36.9a356 356 0 0 1 21 4.1c-7.4 2.7-15.5 6-24.1 10a165.5 165.5 0 0 1-7.3-1.6l12.3-3 .4-3.6 4.4-3.6-7.8-1.5 1-.8zm-13-1.9 9 1.3-1.2.6-6.8-1.3-1.3-.5.2-.1zm24-9.2H55c-3.3 2-7 4.1-11 6.2a230.5 230.5 0 0 0-5.6-1.3 229.3 229.3 0 0 0 11.9-4.9zm-14-6.5a82 82 0 0 0 16.2 0 310.7 310.7 0 0 1-8.3 3.1l-1-1.1zm-7.1-22.9 8.3 2.2-1.6.5-16.8 1-1.1-.4zm3.4-2.8c5.4-2 10.6-3.7 15.4-5.2 3.3 1.8 6.3 3.5 9 5.2-4.3.9-8.8 2-13.4 3.3a726.5 726.5 0 0 1-11-3.3zm12.6-6.7 1.1.6a626.5 626.5 0 0 0-20 4.2l-1.4-.5 2.6-1.4a422 422 0 0 1 17.7-3zm7.2-1 1.1.2-5.5 1-.9-.5 5.3-.7zm6.3-.7-4.3.8-.8-.2 5-.6zm37.5-.2a130.8 130.8 0 0 1-44.4 12.4 571 571 0 0 1 18.7-5.8c-4 .3-8.5 1-13.4 2a592 592 0 0 0-7.9-5.6 196.3 196.3 0 0 1 5.8-1.6l4.6.7a99.9 99.9 0 0 1-4-.8l4.8-1.2c12.9-1.3 25.3-1.5 35.8 0zM55.6 1096a593.7 593.7 0 0 0-6.7-4.6c7 2 13.2 3.5 18.8 4.4l-12.1.2zm-31.2-2.2-3 1.4-2-.3.2-.4 4.8-.7zm19.6-4 .3.1c4 2.1 7.6 4.2 10.8 6.1h-9.7l1.3-.3-1.6.3a703.6 703.6 0 0 1-15.7-.2 574.6 574.6 0 0 0 6.2-4 230 230 0 0 0 8.4-2zm5.7-20.6c-5.6 1.1-11.5 2.6-17.5 4.2l-2-1.2a107 107 0 0 1 19.5-3zm-9-18.4.8.1-1.2.1h-.2l.6-.2zm21-7.4-2-.5 2.3.5h-.4zm-36.2 4.2 7.8 1.7-1 .2-6.9-1.2zm-3.4-10.5 7 .8c9.5 2.7 19 5 27.4 6.3-5.8 1-12.1 2.3-18.6 3.9a415.7 415.7 0 0 1-10.5-3.7l13.5-3.3-20.2-3.6zm17.6-33.6c5.8 1 11.5 2 16.8 3.2-6 2-12.7 4.5-19.9 7.8l-8.6-2 .3-.3 14-3.4-7.3-2.5a659 659 0 0 0 3.8-2.5l1-.3zM33.6 993l2.7.2a431.2 431.2 0 0 1-2 2.2 682.9 682.9 0 0 1-5-1.6 588 588 0 0 1 4.3-.8zm20-.7 1 .2c-2.9 1.7-6 3.5-9.5 5.2l-3.4-.4a264.5 264.5 0 0 0 3.4-4c4.2-.2 7-.6 8.5-1zm-6.7-1.3 5.6 1.1c-1.9 0-4 0-6.3-.2l.7-.9zm4.7-6a210.3 210.3 0 0 0 4-5.6c6.8 1.5 13.2 3.1 18.7 5-6.7-.2-14.3 0-22.7.6zM25 986.4l5.2 1.2-3.3.6-3.5-.7-1-.3zm16.6-9.5 7.8 1.4a350.1 350.1 0 0 1-6.4 7.6l-4.8.6a473.8 473.8 0 0 1-6-2.2l2.3-.6L38 980zm26.9-25.5-4 .7a316 316 0 0 0-.2 0 649.8 649.8 0 0 0-11 2c3.9-3 7.2-6 10-8.8 2.7.5 5.3 1 7.7 1.3a104.3 104.3 0 0 1-2.5 4.8zm-20 .2-2-1.3a180.7 180.7 0 0 1 7-2 269.5 269.5 0 0 1-5 3.3zm14.6 1.3-6.5 3.9a499.8 499.8 0 0 0-2-1.4A217 217 0 0 1 63 953zM37.7 970a651.2 651.2 0 0 0 19.4-13c.1.2.3.2.4.3l-.4-.2a560.7 560.7 0 0 0 6.3-4.4l4.9-1.3c-4.2 7.3-9.5 14.9-15.5 22.5a212 212 0 0 0-15-3.9zm-5-1.5c6.5-4 12-8 16.8-11.6l4.7-1.5 2.2 1.3c-6.8 3.8-15 7.9-23.6 11.8zm-7-11.3a406 406 0 0 1 19.3-6.6l2.7 1.3A353.4 353.4 0 0 1 40 957c-6.5 1.4-13.5 3-20.6 4.8l7.6-3.1zm8.8-11.4a313 313 0 0 1 8.7 4l-4.6.8L26 948l2.8-1zm3.6-2.3a381.5 381.5 0 0 1 7.1-2.4 299.6 299.6 0 0 0 13.7 3.3 224.7 224.7 0 0 1-4.8 3.3l-9 1.7a648 648 0 0 0-7-4.3l4.5-1zm-18.5-4 .6.3-1.6.4zm16.8-.8L41 940a640.6 640.6 0 0 0-8.4 1.7l-1.9-1a374 374 0 0 1 5.7-2zM21 934a586.5 586.5 0 0 0 10.7 3.3l-4.9 1a531 531 0 0 0-4.3-2.4zm1.4-11.8-3.6 1.9.8-1.5zm16.3-20.4a670.9 670.9 0 0 0 5.7-3.8c9.3 1.1 18.3 2.5 26 4.1a275 275 0 0 0-34.1 13.2 175.3 175.3 0 0 1-10.5-2.3l-1.2-1.1 1-1.7a535.5 535.5 0 0 0 3.7-2.3l18-3.2zm-5.2-5 8.2.8A356 356 0 0 1 35 901l-8.4-1.6a552 552 0 0 1 6.8-2.6zm-11-1.2h.1l-.5.2zm20.7-2.3a270.5 270.5 0 0 1 9.8-3h2a173.5 173.5 0 0 1-7.5 4.2h-.4a742.2 742.2 0 0 1-4-1.2zm4.7-3a665.4 665.4 0 0 0-9 1.7 698.8 698.8 0 0 1-5.5-1.6l14.5-.2zm-13-15.2 4.7.2-6.9 1.4-2.2-.6zm5.7-16.5 5.2 1-4.5 1-3.5-1zm8.7-7.9-5 2.7-5-1.2c3.3-.6 6.6-1 10-1.5zm32.6-2.2c-7.9 3.1-16.6 6-25.7 8.4a187.6 187.6 0 0 0-7.9-2.3l5.4.7-7.5-1.5a753.9 753.9 0 0 0 4.9-3.3 230 230 0 0 1 30.8-2zM61 798a120.8 120.8 0 0 1-3.4-.6 683.5 683.5 0 0 1 7.2-2.3 151.5 151.5 0 0 1-3.8 3zm-13 21.4a215 215 0 0 1-6.2-1.6 210.3 210.3 0 0 0 8.8-6.4l8.3 1.4c-3.1 2.1-6.8 4.3-11 6.6zm-12.2 2.4a240.6 240.6 0 0 0 4.4-2.9l6.7 1a300.8 300.8 0 0 1-10.2 5.2l-2.3-.5 3.9-2.2zm-10.9-5.4 6 1a502.7 502.7 0 0 1-4 2.3l-3.4-.8zm12.4-8 6.2 1.5a416 416 0 0 1-9.5 5.7 425.3 425.3 0 0 1-8.4-2.6v-.5a425.8 425.8 0 0 1 11.7-4.1zm5.7-1.9 10.3-3a286.4 286.4 0 0 1-6.3 4.2 653.2 653.2 0 0 1-4-1.2zm1.2-4.8a808.8 808.8 0 0 1 12.6-4l4.1.4a212 212 0 0 1-6.8 5c-3 .4-7 1.1-11.5 2l1.4-.6zm3.7-5.3 3.6.5c-4 .8-8 1.9-12.3 3l-6.4-1.2a397.7 397.7 0 0 1 15.1-2.3zm17.8-2-.2.2c-3.6.3-7.7 1-12 1.8l-2.2-.5c4.8-.6 9.6-1 14.4-1.4zM49.4 765a606.9 606.9 0 0 0 6.2-4.3h5a268.7 268.7 0 0 0-11.2 4.3zm1-4.3H55c-3.3 2-7 4-11 6.2a235.2 235.2 0 0 0-5.6-1.3 227.7 227.7 0 0 0 11.9-5zm2.2-6.5a320.9 320.9 0 0 1-8.8 3.3A363 363 0 0 0 32 757l11.6-2.7c3.8.1 6.8 0 9.1-.3zm-17.9-21.5 3 .8a403.7 403.7 0 0 0-12.2 3.8l-5.5-.7 14.2-3.6zm14.3.5c.4 0 .8-.2 1.2-.4l2.5 1.5-3.7-1zm2.7-.9a248 248 0 0 0 27.7 9.2 170 170 0 0 1-24.5 11.8c-3.5 0-7.5-.4-11.9-1l-.4-1.4-3.3-3a155 155 0 0 1 20.4-5.7s-9.4 1.4-22.5 4l-4-2.5 13.7-3.6-13-1.7a715.3 715.3 0 0 1 10-3.4c5 1.1 9.9 2 14.4 2.7l1 .7-.9-.7c4.1.7 8 1 11.4 1.1 0 0-6.3-1.5-15.7-4.1a586.6 586.6 0 0 0-3-2.1l.6-.3zm-9.5-3.7a254.8 254.8 0 0 1 4.4 2.3l-3 .8a784.5 784.5 0 0 1-4.1-1.2l2.4-1.1zm16.6-8.5a609.2 609.2 0 0 0-10.3 1.8l-1-.5c3.7-.5 7.5-1 11.3-1.3zM35 706.5c1.4-.5 2.8-1 4.1-1.3l6.6 1.2a322.9 322.9 0 0 0-14.7 6.7 704.8 704.8 0 0 1-4.7-2.4l13.8-3zm1.2-2 1.7.4-4.8 1.1-1-.2 4-1.2zm6.4-.2 7 .5-2.3 1a264.4 264.4 0 0 1-4.7-1.5zm15.8-20.8.3-.2.2.1h-.5zm-7.8 1.3a211.3 211.3 0 0 0-8.8-6.4 214.2 214.2 0 0 1 6.1-1.5c4 2.2 7.7 4.3 10.8 6.3l-.4.3a168.5 168.5 0 0 0-7.7 1.3zm2.7 7.9a176.4 176.4 0 0 1-5.7-1.6l1.6-1.1 4.1 2.7zM61 698l-4.1.5a803.3 803.3 0 0 1-13.8-4.4 788.4 788.4 0 0 0 3.5-2.4l7.6 1.4A212.3 212.3 0 0 1 61 698zm1 2a865.6 865.6 0 0 1-4.3-1.2 123.5 123.5 0 0 1 3.4-.7l2.1 1.6c-.4 0-.8.2-1.2.4zm-10.6.2 2.2-.5 6.3 1.1-.7.3-7.8-.9zm-6.6-2.6c2.3.6 4.6 1.2 6.8 1.6l-3.6.6a353.6 353.6 0 0 1-4.2-.6zm-14.5-4.1 3 .9-3.5-.8.5-.1zm9.8-3 4.5.9a289.3 289.3 0 0 1-3.8 1.9 719.8 719.8 0 0 1-4.7-1.6l4-1.2zm7-2 1.3.8-2.3 1.2-3-.9 4-1.2zm-13-8a418.3 418.3 0 0 1 9.5 5.7l-6.2 1.5a395.4 395.4 0 0 1-6.5-2.2l6.5-3-5.2-1.4 2-.6zm-10.2-5.9a509.7 509.7 0 0 1 7 4l-4.4.8-1.5-.4-4.3-3.6zm12.9-3.6a302.6 302.6 0 0 1 10.2 5.2l-6.7 1a253.6 253.6 0 0 0-7.4-4.8l2.2-.6-1-.2 2.7-.6zm-8-19c8 4 15.6 7.4 22.7 10.3l-11.4 2-12.4-2.1a490.2 490.2 0 0 0-3.2-2l8.3-2.7-13-3a240.6 240.6 0 0 1 9-2.4zm15.5-9.4 5 2.7-10-1.5 5-1.2zm-10-5 1.3.6-6.5 1a764 764 0 0 1 5.1-1.6zm-15.5-7a594.7 594.7 0 0 1 7 3l-7.7-1.2zm14.6-11.2 6.3 1.3c-4 0-8.7.5-14.2 1.3l-1.2-.3zm-.5-3c8.8 1 17 1.6 24.2 1.8 11 3.8 20.3 6 28 7a170.4 170.4 0 0 1-45.6 12.4l-1.6-1 2.8-.6-.8-.1c16.9-5 30-8.2 30-8.2-8 .2-18.4 2-29.4 4.6l-7.3 1.2a550.3 550.3 0 0 0-8.9-5.7l12.9-2.5-3.8-1.1c4.8-1 9.4-1.8 13.5-2.1l12.9 2.2c-3-.6-6.3-1.4-10-2.4 2 0 3.7 0 5.3.2 0 0-3-1-9.2-1.4a272 272 0 0 1-7.8-2.5l.7-.1-2.9-.6a367.4 367.4 0 0 1-3.2-1.1h.2zm6-4.8h1.4l.8.3-2.2-.3zm5.5-6.5 3.6.7h-2.2l-1.4-.7zm3.3-3.6a172.8 172.8 0 0 1 7.5 4.3H53a271 271 0 0 1-9.8-3l4-1.2.4-.1zm-21.2-10.4c5.3 2.4 10.5 4.9 15.3 7.3l-8.2 1-1.7-.7-1.8-1 3.2-1.1L24 593zm.4-33.4 4.9 1a575.6 575.6 0 0 0-7.7 2.4l-1.6-.4-.2-.4 4.6-2.6zm8.6-2.8 5.6 1.2-4.6 1.3a386.5 386.5 0 0 1-5.2-1.9zm14.5-7.4 4.2.8a224.6 224.6 0 0 1 4.8 3.4c-4.4.9-9 2-13.7 3.2l-3.3-1 1.6-.3 3-3.6-1.5-.6a465.3 465.3 0 0 1 4.9-1.9zm2-.7 1.4 1-2.3-.7.9-.3zm9.4-3.3 3 .5 1 .8-1-.8 4 .7a105.8 105.8 0 0 1 2.6 4.8c-2.4.3-5 .8-7.6 1.3A148.2 148.2 0 0 0 57 545l4.4-1.5zm1.4-.5.3.3-.5-.2h.2zm.2 0a290.8 290.8 0 0 1 3.7-1.2l1.7 2.8a135 135 0 0 1-5-1.2l-.4-.4zm-39-7.5a528.3 528.3 0 0 0 16.1 3.8 385 385 0 0 1 4.9 3c-.4 0-.7.2-1.1.3L31 541a507.5 507.5 0 0 1-9-3.4l1.4-1.7zm8.9-8c8.3 3.8 16.3 7.7 23 11.5l-3.6 1-2.7-.9c-4.8-3.6-10.3-7.5-16.7-11.6zm20-5.3c4 5 7.6 10 10.8 14.8a208.9 208.9 0 0 0-6.8 1.7 651.5 651.5 0 0 0-19-12.7 212.3 212.3 0 0 0 15-3.8zm2.8-5.6a207 207 0 0 0-4-5.6c8.4.7 16 .8 22.7.6-5.5 1.9-11.9 3.5-18.7 5zm-12.4-6a357 357 0 0 1 6.1 7.3 375.9 375.9 0 0 1-9.1 1.6l-2-1.8-12.3-3.5zm-5.1-1 4.8.6.2.3-5-.8zm14.4-5.7-5.6 1-.7-.8a46 46 0 0 1 6.3-.2zm-18.2-3.3 2 2.2-2.7.2H33l-3.3-1 4.5-1.4zm9.7-2.9c3.9 2 7.4 4 10.5 5.8l-.9.2c-1.5-.3-4.3-.8-8.5-1a260.8 260.8 0 0 0-3.6-4.3l1.5-.4 1-.3zm-17.7-5.2.5.1.4.4-1.1-.3zm12.8-9.7c6.3 2.8 12 5 17.4 6.8-5.3 1.1-11 2.2-16.8 3.1l-.9-.3a622.1 622.1 0 0 0-6.6-4.3 320 320 0 0 0-3.8-4zm20.6-29.5 2-.5h.3l-2.3.5zM38 448.2c6.4 1.7 12.7 3 18.5 4-7 1-14.8 2.8-22.8 5l-.1-.3 2.7-3.6L33 450l4.3-1.4zm1-23.5a264.9 264.9 0 0 0 10.7 2.4c-4.1-.1-8.8-.8-13.9-1.8zm-13.4-15.3 1.8.2-5.7.9-.2-.2zm23.3-4.5a617.3 617.3 0 0 0 6.7-4.6l12 .2c-5.5 1-11.7 2.4-18.7 4.4zm6.2-4.6c-3.2 2-6.9 4-10.8 6l-.3.2a227.6 227.6 0 0 0-5-1.2l4.3-2.1-13.5-2.6a698.4 698.4 0 0 1 15.3-.3l1.6.3a83.6 83.6 0 0 1-1.3-.3H55zM26.3 396l3 .8h-4.2l1.2-.8zm34.2-12-4.9-1.2 4.1-1-4.6.8-5.8-1.6a582.5 582.5 0 0 0 7.9-5.5c5 1 9.4 1.7 13.4 1.9 0 0-7.6-2.2-18.7-5.8 17 2.2 33 6 44.4 12.4a162 162 0 0 1-35.8 0zm-6.8-.8.8-.2 4.3.8-5.1-.6zm-6.5-.8.9-.5 5.5 1-1.1.2a317 317 0 0 1-5.3-.7zM34.4 379c4.4 1 8.4 1.7 12 2.4l-1.1.6a410 410 0 0 1-14-2.2zm9.3-7c4.6 1.3 9.1 2.4 13.3 3.3-2.6 1.7-5.6 3.4-8.9 5.2l-9.3-3 1.8-3-2.5-.8 5.6-1.7zm-19-2.9 11.3.7 1.6.5-5.4 1.4-2.3-.8zm19.1-22.8a322.6 322.6 0 0 1 8.8 3.3c-3-.4-7.2-.5-12.6-.2l.9-3h3zm-17.5-5.7 7.5 2.3a611.4 611.4 0 0 1-4.9-.1l-2.2-.5-2.8-1.4 2.4-.3zm17.7-3.7c4 2.1 7.8 4.2 11.1 6.2h-4.7a231 231 0 0 0-12-5c2-.3 3.8-.8 5.6-1.2zm10.7-7.8a129.3 129.3 0 0 1-5.3-1 149.8 149.8 0 0 1 6.6-1.8l4.4 1.6-5.7 1.2zm-19.5 3.4.3.1-1 .1.7-.2zm3.3-1.1a267 267 0 0 1 9.6-3l6.2.8a341.2 341.2 0 0 1-15 2.8l-.8-.6zm0-4.4 6.8 1a654 654 0 0 0-9.2 1.8l-.2-.1 1.4-1.8-.7-.3 1.9-.6zm2.9-1 7.6-2.5c2.3 1 4.5 1.8 6.7 2.6l-8.2 1.5a219.9 219.9 0 0 1-6.1-1.6zm-5.1-8a314.5 314.5 0 0 0 8.7 3.8 279.4 279.4 0 0 0-9.4 2.6 414.6 414.6 0 0 1-10.2-3.1 471.2 471.2 0 0 1 6.8-2.5l4.1-.8zm7.3-6.1 6.7.4-4.1.8-2.6-1.2zm4.3-7.2 9.4 1.3a629 629 0 0 0-9.4 1.3 392.4 392.4 0 0 1-3.4-.5l1.8-.4-5.5-.7 7-1zm5.4-19.6a162.5 162.5 0 0 1-4-1.1 163 163 0 0 1 1.8-.4l2.2 1.5zm4 6c-4.4-1.3-9.8-3-16-5.1a219.3 219.3 0 0 1 6.2-1.6l6.6 1.2a210.5 210.5 0 0 1 7 5l-3.9.5zm7.5 2.3-4-1.2 1.8-.5 2.2 1.7zm-12.4 6.2a204.2 204.2 0 0 1-8.8-2.6c7.8-.2 11.4-1.4 11.4-1.4-2 .2-4.3.2-6.8 0A818.6 818.6 0 0 1 58 293c2.7.5 5.3.8 7.6 1 2.4 1.9 4.5 3.7 6.4 5.5-5.8-.2-12.3-.3-19.5 0zm-23.8 2 1 .1-3 .4 2-.6zm12-3.8 9.7 1.9c-3.8.2-7.8.5-12 1a421.5 421.5 0 0 1-2.7-.9l2.8-.5-1.6-.3 3.9-1.2zm-18.4-2.7c3.8.6 7.3 1.1 10.4 1.4l-3.9 1h-.5a597.2 597.2 0 0 1-6.8-2.3zm13.4-7.5c5.9 1.7 11.6 3.2 16.9 4.3-4 .8-8.3 1.7-12.7 2.8a135.8 135.8 0 0 1-7-1.4l7.6-1.2-7.8-3.6a357.1 357.1 0 0 1 3-1zm-5.3-1.6.7.2-1.5.3.8-.5zm5.8-3.8 9.2 1.8-6.8 1a945.4 945.4 0 0 1-4.4-1.5l2-1.3zm3.3-2.2 8.5 1.5 2.7 1.8-2.5.3a265 265 0 0 1-9.6-3l.9-.6zm-4.9-.8 1 .2h-.3c-.2 0-.4 0-.7-.2zM50.4 269H55c-2.7 1.6-5.6 3.3-8.9 5l-2.8-2a223.4 223.4 0 0 0 7-3zm2.2-6.5a317.7 317.7 0 0 1-8.8 3.3 352.1 352.1 0 0 0-10-.3l-1.7-1a247.5 247.5 0 0 0 8.4-1.8c5.2.3 9.2.1 12.1-.2zm-10.7-6-7.4 1.3.4-.2zm2.8-21.4a134.8 134.8 0 0 1 7-1.5 136.3 136.3 0 0 1 5.3 3.2c-4.2.8-8.7 2-13.3 3.2a752 752 0 0 1-7.1-2zm-4-1.1a291.3 291.3 0 0 1 7.4-2.4 189.3 189.3 0 0 1 3.6 2l-7.9 1zm4.6-4 1.1.7a654.7 654.7 0 0 0-11 2.2l-3.5-.7a404.9 404.9 0 0 1 13.4-2.1zm7.2-1 1.1.3-5.5 1-.9-.5a343.4 343.4 0 0 1 5.3-.7zm6.3-.6-4.3.8-.8-.2 5-.6zm37.5-.2A130.8 130.8 0 0 1 52 240.5a571 571 0 0 1 18.7-5.8c-4 .2-8.5 1-13.4 2a549.5 549.5 0 0 0-4.6-3.3l1-.2-1 .1a760.3 760.3 0 0 0-3.3-2.2 191.6 191.6 0 0 1 5.8-1.6l4.6.7a101.5 101.5 0 0 1-4-.9 128.4 128.4 0 0 1 4.8-1.2c12.9-1.2 25.3-1.4 35.8 0zm-65-3.2 4.5 1-7 .8zm24.3-13.2a608.5 608.5 0 0 0-6.7-4.6c7 2 13.2 3.4 18.8 4.4l-12.1.2zm-31.2-2.2-3.1 1.4-1.7-.7a306.6 306.6 0 0 0 4.8-.7zm21-3.2c3.6 1.8 6.8 3.6 9.7 5.4h-9.7l1.3-.4-1.6.4a697.4 697.4 0 0 1-15.7-.3 617 617 0 0 0 6-3.9zm-1.4-.8.3.1.3.2-1-.2h.4zm-18.5-3.4 1.9.3c-.8 0-1.6.2-2.3.3l-1-.2zM24 189.5a122 122 0 0 1 25.8-4.6 366 366 0 0 0-22 5.3zm16.8-23 .8.1-1.7.1.9-.3zm21-7.4-2-.5 2.3.5h-.4zm-37.3-6 4.6.5a269 269 0 0 0 27.5 6.2 206 206 0 0 0-14 2.9l-9.7-3.1L21 156zm-2.1-19 2.2.5-3.9.9 1.3-1.3zm17.4-15c5.8 1 11.5 2 16.8 3.2a194 194 0 0 0-14.9 5.7l-1.2-.7 1.7-3.6-6.9-1.9a547.7 547.7 0 0 0 3.6-2.3l1-.3zM33.6 109l2.7.2-2 2.2a651.8 651.8 0 0 1-5-1.6l4.3-.8zm20-.7 1 .2c-3.2 1.9-6.7 3.8-10.6 5.8l-1-.3-1.5-.4a265.9 265.9 0 0 0 3.6-4.3c4.2-.2 7-.7 8.5-1zm-6.7-1.3 5.6 1c-1.9.2-4 0-6.3-.1l.7-.9zm4.7-6a207.7 207.7 0 0 0 4-5.6c6.8 1.5 13.2 3.1 18.7 5-6.7-.2-14.3 0-22.7.5zm-30.9.3 9.4 2.2-2.4.4-6.2-1-2.6-.8zm23.9-8 4.7.8a352.5 352.5 0 0 1-6.4 7.7l-4.8.5a498.3 498.3 0 0 1-10.5-3.8l14.9-3.3zm23.8-26-4 .6 1-.7-1.2.8a640.6 640.6 0 0 0-11 2c3.9-3.1 7.2-6 10-8.8 2.7.5 5.3 1 7.7 1.3a106.5 106.5 0 0 1-2.5 4.8zm-20 .1-2-1.2a180.6 180.6 0 0 1 7-2 262.6 262.6 0 0 1-5 3.2zM63 68.6l-6.5 4-2-1.4 8.5-2.6zM37.7 86a650 650 0 0 0 19.4-13l.4.3-.4-.2a558.6 558.6 0 0 0 6.3-4.5l4.9-1.2c-4.2 7.2-9.5 14.8-15.5 22.4a211.9 211.9 0 0 0-15-3.8zm-5-1.5c6.5-4 12-8 16.8-11.6l4.7-1.5 2.2 1.3a370 370 0 0 1-23.6 11.8zm5.7-15.8a280.9 280.9 0 0 1 6.6-2.1l2.7 1.3a354.8 354.8 0 0 1-7.7 4.8 520 520 0 0 0-17.8 4.2L20.6 75a530.6 530.6 0 0 1 8.7-3.2l10-1.8zm-5.1-7.5a326 326 0 0 1 9.9 4.5l-5.9 1.1-.2-.3-9.9-3a566.1 566.1 0 0 1 6-2.3zm3.2-1.1a374.4 374.4 0 0 1 8.7-3c4.7 1.2 9.3 2.3 13.7 3.2a224.7 224.7 0 0 1-4.8 3.4l-9 1.6a657.5 657.5 0 0 0-8.6-5.2zm.4-5.3 4.1 1.1a612.8 612.8 0 0 0-8.4 1.8l-.6-.3 2.3-1.6zm13.7-5.2a658.6 658.6 0 0 0-9.5 1.8l-1-.3c3.4-.6 7-1.1 10.5-1.5zm23.4-2a99 99 0 0 1-11.4 10 800.4 800.4 0 0 1-10.2-2.8c4.9-1.5 9.4-2.7 13.3-3.4L50 54a763.7 763.7 0 0 1-6.3-1.8l.4-.1H44c3.9-1.3 7.6-2.3 11-3.2a241 241 0 0 1 19-1.4zm2.5 0c-.9 4.1-2.5 8.6-4.8 13.3a749.8 749.8 0 0 1-6.4-1.7 70.4 70.4 0 0 0 4.5.2s-1.4-.3-3.7-1a88 88 0 0 0 9.2-10.8h1.2zM29.4 33.3c11.9 1.5 19.4.7 23 0a319.7 319.7 0 0 1 7 3.2c-9 .2-19.2.9-30.6 2.5l1-1.2 2-3.6zm13.2-4.2a460 460 0 0 1 8.9 3.8c-6.1 0-13.8-1.2-22.2-3.2 4.7-.1 9-.3 13.3-.6zm14.3-13.5a171 171 0 0 1 26.8 5.9 598.2 598.2 0 0 1-42 2.9 519 519 0 0 0-7-4L38 18l8.8-1.8 10.1-.7zm-23.4-3 5.2.6a695.7 695.7 0 0 1-6.4-.2l1.2-.4zm10-3.5A272.4 272.4 0 0 1 52 6.4h2.5a175.3 175.3 0 0 1-6.9 4h-.4a661.4 661.4 0 0 1-4-1.2l.4-.1zm3.9-3h.4l-7 1.4-2.3-1.3 8.9-.1z"/></svg>