<svg xmlns="http://www.w3.org/2000/svg" fill="#d3d3d3" preserveAspectRatio="none" viewBox="0 0 73.5 1500"><path d="M38.4 0h-2a36 36 0 0 1 1 7.7c0-2.7.6-5.4 1-7.7zm32.7 698.7a3 3 0 0 1-.8-.6c.3.3.6 1 .9 2zM73.5 806l-.1-4.4-.1-.4c-.5 1.1 0 3.4.2 4.8zM64 367.5l-.1-2.7v2.7zm-.5-23.5-.1-4.9a23 23 0 0 0 0 4.9zM0 1500h56l2.6-102.6c-.5-1-1-1.7-1.7-2 .7-9.3-.3-20.4-2-34.5-1.1-.5 2.9 1.4 2.7-5l-4.5-14 1-1.2c-4.2-6-2.3-25.4-6-32.3l2.7.7c-3-13.7-3-33.3-7.3-44.2 3.1 3 1.4-6.2.8-12.5l3.8 6c-1.8-7.8 1.8-7.4.2-15.5.9 2.8 1.9 6.2 2.5 5.7 1-9.4-3.5-10.3-1.8-19l-2.9.9c2.7-12.4 1-14.3 2.5-28.6-2.5-4.1-5.4-3.1-7.1-10 1.1-2 3.3-1 1.6-10.3-1.1-.4-1.2 2.9-1.6 5.5-2.8-17.9-6.4-40.4-6.3-59.3 2.5 9.8 2.6-4.1 4.4-3.1L37 1106c1.6 5.1 3.3 17.7 6.1 27.3 2.7-5 7.7 6.4 7.7-6.7-2-5-2.2 4-4-4.4.9-3.5.3-7.4-.2-12.2 1.6.3 2.7 5.6 4 4.4-.5-6.4-2.8-9.7-3.9-10.1.5-1 1.8 1 2-3.2-.5-9.6-3.5-5.4-4.6-5.8 1.1-4.5 5.7-10.8 1-18.3l4.8 6.6c-.3-7.2-3.4-7.8-2.9-17 .5 8 2.1 14.8 4 11-3.8-10.2 2.2-22.4-3.4-28l5.2 1.7c.2-14.4-3.7-5.3-5.1-15.4.8 3.9 2 .3 2.5 5 1.5-1.2 1.6-10.8 1.2-18-1.5-28.2 1.3-51-2.1-78.8.6-.1 1.1-.6 1.5-2.7 1-28.8-4-41.2-1.8-71 3.3-3.2.4-15.3 2.8-23-2.5-10.6-2.4-24.5-1.9-38.5s1.5-27.8.9-38.1c4 15 5.9 33.6 6.7 53.3s.6 40.2.5 59.3c.7-1 1.3-.3 1.5-2.7C61 917 58.1 958 62 990.2l-.9.2C61 1004 64 1003.2 65 1014c-.8-1.3-1.3-7.5-2.8-4.8-.2 4 1.7 21.7-.1 30 1.7 6.7 3.2 1.6 4.5 10.7l-3 4.8c1 8.4.1 13.4 2.4 22.2l1-4.9 5.7-226.7c-1.4-2.4-.5-4.2.1-6.6l.2-5.4-.2-.6c-.7-1.4-1.3 4.7-1.6-1.2l.7.3c-.8-8.2-3.2-12.9-4-19.6 2.5-1.2 3.7 5.6 5.3 12.4l.2-8.5a55.6 55.6 0 0 1-.2-3.3 8.5 8.5 0 0 1 .3-.5l.1-4.7v-1c0 .4-.2.7-.7.3-1.1-1.5-.8-4.6-2.3-5.2-1 3.8-.7 3 0 8-1.1-.5-2-3-2.8-.7-2-12.5 1.8-25.2-1.9-35.3 2 1.4 1.1-13.4 3-5.1l-1.2.6a26.1 26.1 0 0 0 4.5 15.7c-2.3-12.7-1-14.8-2.2-28.6 2.5 5.4.2-8 2.4-4.8 0-3.2-.7-6.7-.5-9.3-1.7 7.2-2.5-5.4-4.4-4 0 4.2 1.6 8.6 3.3 8.8.1 2.8-1.5 2.6-2.6 2.1l-.1 12.8c-.7-11-5.3.4-4.7-9.5.2-2.6 2.9.2 1.8-6.7 0-1.2-.5-1.5-1-1.2l-.6 3.1c-.3-1.6.2-2.8.7-3.1a22 22 0 0 0 .2-10c-.2 0-.4.1-.5.5l.2-1.5.3 1c.7-.2 2 1.4 1.8-3.8-.5-7.2-3.5-3.2-4.2-4.6l-.2 1.6c-.6-3.3-2-.5-3.4-5.4a4.8 4.8 0 0 1-.4-1.1l.4 1c.6 1.4 1.4.2 1-3.1-1.4-4.8-4.6 4.6-4-3v-1 1c0 1.3.8 1.7.7-.6-2-10.6-2.2 1.1-4.6-1.5-.6-9-1.2-6.5-1.7-15.4.2 5.6 2 1.5 2.8 5.6-.3-6.5.5-5.2 1-9.7-2 4.2-2.7-2.4-3.6-2v-1.2c.5.9 1 1.7 1.9 2.4l1.2-8c1.8 1.8 2.4 11.7 4.6 7.4.7-7.8 3.3 3.6 2.3-5.4-3.8 1-4.7-13.4-8.2-11.3.5 4 1 7-.7 6.7.2-8.8-2.7-4.5-2-10.2l.4-1.7 1.1 1c.2-1.2-.2-2-.5-3l.4-1.5c.4.3.9 1 1.1-1a4.2 4.2 0 0 1-.6-1l.2-.9c.3.6.6 1 .8 1 .4-3.3-.6-2.8-.9-4.2l.5-1.6c1 .7 2.6 3.1 2.2-1.1l-.1-1 .1 1c1.5 11.4 5.7.9 6.5 13.8 2.7-5.2-.7-10.5-.3-17.4l-.5 3v-2c-1.7-2-1.3 6.3-3.1 5.5l1-3.3c-1 0-1.4-6-2.2-4.2l.8 5.2c-.8-5.2-1.9-10-3-14.6.2-5.8.5-11.3 2-14.5l-2.7.9c2.4-13.9 1.6-33.5 5.3-44.5-1.9 2-2-1-1.8-5.1.3-.2.6-.6.8-1.4a24 24 0 0 0-.5-3.6l.1-2.4-.5 1c-1.1-2.9-3-1.7-3.9-7a12 12 0 0 1-.2 1c0-1.2 0-2.6.2-4.3-.7 2.8-1.6 6.3-2.2 5.8-1.5-9.3 3-10.4.9-19.1l3 .8c-3.3-12.2-1.8-14.2-3.8-28.5 2.3-4.1 5.2-3.3 6.6-10.2-1.2-1.9-3.3-1-2-10.2 1-.5 1.3 2.8 1.8 5.3 2-18 4.5-40.6 3.6-59.4-2 9.9-2.8-4-4.6-3l1.9-18.8c-1.4 5.2-2.5 17.9-4.9 27.6-.7-1.2-1.5-1.4-2.3-1.2 0-2.8-1.6-5.5-.9-9.3-.4-.3-.9-1.1-1.3-2.1-.5-3.1-.2-6.5 0-10.5-1 .2-1.7 2.6-2.5 3.9-.4-.8-.8-1.2-1.3-1 .6-5.3 2.4-8.2 3.4-8.7-.5-1-1.7 1.1-2.1-3 0-9.7 3.2-5.5 4.3-6-1.3-4.5-6.1-10.6-1.9-18.2l-4.4 6.7c0-7.2 3-8 2.1-17-.1 8-1.4 14.8-3.4 11 3.3-10.2-3.2-22.2 2-28l-5 2-.1-1.2c.3-.2.6-.3.8-.6l-.3-6.1c.1-.7.7-1.1 1.3-1.8 1-.7 2.2-1.3 2.6-6-.2 1.4-.5 1.9-.8 2 1.1-5.5-.3-22.3-3.2-26.5 1.8-3 1.3 6.7 2.9 5.3 1.1-4.4-1.4-9.5-.6-14l-2-1.5c.1 1.7-.3 2.6.2 3.4-.5.7-.9.1-1.2-1l-.1-3.9c.7-.1.6-6.4 1.8-7.5.8-9.4-2.3-21.8-1.3-26.8a20 20 0 0 1-2-5.2c0-5.2.2-10.5.6-16-.6 0-1.2-.5-1.6-2.6-2.2-28.7 2.2-41.3-1.5-71-3.4-3-1-15.2-3.8-22.8.5-2.8.8-5.7 1-8.8.9-.1 1.6-1.5 2.2-5.3-1.5-4 .3-2.2.6-5.6-.8-3.8-1.7-4.3-2.8-6l-.8-11.2c1.3 0 2.5 11 3.2 1l-2.8-3.1c2.9-2.8 3.3-10 2.4-17.3 1 1.4 1.8 1.7 2.7 0-2.2.4-1-9.6-3.3-7.5-.1 1.6 1.4 3.5.4 5.9.2-4.4-.7-3.7-1.5-6.8 2-6.9 2 4 4-5.7.3-6.5.2-13-.5-17.8L33.8 86l-2-6.1c0-1.1 4.1 4.5 2-3.1-1.2-4.1-3 .6-4.3-3-.6 4.5.4 8.1.5 12.4l1.6-.8-.8 4c-3-1.6.2-14.8-3.5-15 1.1.1 1.5-1.5 1.7-3.4.4-.7.7-2.3.6-5.2v-.2c0-.2.3 0 .7 1-.5-7.4-2.6-.5-3.6-6.2l1-3.5c-1-5.7-2 3.7-3-1.5 1.9.7 2.9-5 3.7-7.8l.8 3.4-.3 1.5c-.5-.7-1.2-1.4-1 1.7-.8 2.3 2.3 12.5 4.6 8.2.5-4-1.7-5.6-2-9.3 4 .2 0-8.2 4.4-7-.7-8-3.4-5.7-5.2-7.5.9-.7 3 1.6 2.3-3.2h-2.3a1.2 1.2 0 0 1-.4 0h.4c2-.4 2.7-6.7 3.7-10.5l2-2.4c-1-5.1-2.2-11.1-3.3-6.6l-.2 3.8c-.9-3.2-3-8.8-4-14.1.5 1.8 4 8 5.5 1.9-.6-3-1.4-5-2-7.5H0zM23 157.9l.3-.6.6 1.1v.6a15 15 0 0 1-.9-1.1l-.3.7c-.4-1.8-.2-1.5.3-.7zM20.7 225c1-7.7 1.8 2 2.5 2.3.4-1.9 1-3.3 1.5-4.7l.2 5.2c-1.5.2-2.4 3.5-4.2-2.8zm-.7 24.3c1.2-9.2 3.7 3.5 3.6-8.6 1.4 2.8 1.2 2.2 2 3.3l.2 3.1c-.2-.8-.5-1.5-1.2-2 0 7.6-.7 7.2-2.9 10 .4-4.7-1.3-2.9-1.7-5.8zm5.9.3.2 4.8H26c.5 4.7 0 1.7-.1 6-1.2-3.3-.2-7.5 0-10.8zm21.1 695c.6-.5 1.3-.4 1.8-.5-1.3.6-2.2 6.4-3.2 10.3-.6 9.7 0 19.9-.9 28-3.6-17.4.1-49.3-2.4-69.3 2.7 1.8 1.1 16.4 2.3 22.5l1.8-13.9zM50.5 663v-.2.2zm2.2-82.5c.3-1.5.4-2.7.3-3.7a19.7 19.7 0 0 0 .6 2zm-.3-8.7a9 9 0 0 1 .1 1.5v-.1a16.8 16.8 0 0 1-.1-1.4zm-3.8-117.4c-1.6.8-3.1 2-4-1.2.3-1.7.4-3.6.5-6 .9-.3 1.5 2.3 2.3-.2.6 2 1 5.1 1.2 7.4zM26 206.2c-.7-.9-1.3-.2-1.6-2.6v6.4c-.6-3.2-1.1-6.5-2-.6-1-1.2-1.4-3.8-1.8-6.6-.2-.6-.4-1.9-.5-4.4v-.1a10 10 0 0 0-1.3-4.5c-.3.3-.6.2-.6-.8l.6.8c.8-.5 2.2-2.8 2.3 2.3l-1 2.2.5 4.5c.8 1.8 2-1.8 3.3-.3 0-4.8-.2-10.7 1.2-13.7l1 17.4zm-1-20.3c-.6 0-1.3 1-2-.4-.1 2.2 0 3.9-.8 4.6.5-6.9-3.7-6.2-3-16.3.9-9.4 2.2 0 4.4-3.8 1.6-1.4-.7-3.1-.4-5.7l.9-.7.9 22.3zm4-133.3.4-1.1.3 1.2c0 .9-.3.4-.7 0zM32 20l-.1 2.6c-2-1.2-4.4-1.7-4.2-5.8-.5.5-.4 2.5-.1 3.8a6.3 6.3 0 0 1 .4 1c0 .3-.3-.3-.4-1-1-2.2-3-3.2-1.4-7.8 2.2 3.8 3.1 3.2 5.8 7.2zm21.8 547.8c0-7.6-.6-7-1.4-4.6.7-.3 1 2.4 1.4 4.6zm-1.7-4.5-.2 1.6.5-1.7-.3.1z"/><path d="M41.4 276.6c1 9.6.9 19.8 2.1 28 2.9-17.7-2.3-49.3-.6-69.4-2.7 1.9-.5 16.4-1.4 22.5L39.2 244l.3 23c-.6-.5-1.2-.4-1.8-.4 1.3.5 2.5 6.2 3.7 10zm-4-10.2a2.2 2.2 0 0 0 .3 0 .5.5 0 0 0-.3 0zm11-35.8-2.8-2c1.1 7.2-.4 10.1 2 15.3zm-8.9 5.5-.7-11-.6 6.9zM51 398.3l1.6-26.8-2 25.1zm5.8 170.4 1.6-11.6c-1 3-.6 7-2 9.9zm2.6 114.4c4 6-.3 1.7 4-2.6-1.6 1.2-3-4-4 2.6zm4.2-2.8-.3.2a1.5 1.5 0 0 0 .3-.2zm-6 17.7c-.7 2.2-1.4 4.4-1.4 8.4 1-3 3.4-3 1.5-8.4z"/></svg>