<svg xmlns="http://www.w3.org/2000/svg" fill="#d3d3d3" preserveAspectRatio="none" viewBox="0 0 1500 150"><path d="M1500 38.4v-2a36 36 0 0 1-7.7 1c2.7 0 5.4.6 7.7 1zM801.3 71.1c0-.2.3-.5.6-.8-.3.3-1 .6-2 .9h1.4zM694 73.5l4.4-.1.4-.1c-1.1-.5-3.4 0-4.8.2zm438.5-9.5 2.7-.1h-2.7zm23.5-.5 5-.1a23 23 0 0 0-5 0zM0 0v56l102.6 2.6c1-.5 1.7-1 2-1.7 9.3.7 20.4-.3 34.5-2 .5-1.1-1.4 2.9 5 2.7l14-4.5 1.2 1c6-4.2 25.4-2.3 32.3-6l-.7 2.7c13.7-3 33.3-3 44.2-7.3-3 3.1 6.2 1.4 12.5.8l-6 3.8c7.8-1.8 7.4 1.8 15.5.2-2.8.9-6.2 1.9-5.7 2.5 9.4 1 10.3-3.5 19-1.8l-.9-2.9c12.4 2.7 14.3 1 28.6 2.5 4.1-2.5 3.1-5.4 10-7.1 2 1.1 1 3.3 10.3 1.6.4-1.1-2.9-1.2-5.5-1.6 17.9-2.8 40.4-6.4 59.3-6.3-9.8 2.5 4.1 2.6 3.1 4.4L394 37c-5.1 1.6-17.7 3.3-27.3 6.1 5 2.7-6.4 7.7 6.7 7.7 5-2-4-2.2 4.4-4 3.5.9 7.4.3 12.2-.2-.3 1.6-5.6 2.7-4.4 4 6.4-.5 9.7-2.8 10.1-3.9 1 .5-1 1.8 3.2 2 9.6-.5 5.4-3.5 5.8-4.6 4.5 1.1 10.9 5.7 18.3 1l-6.6 4.8c7.2-.3 7.8-3.4 17-2.9-8 .5-14.8 2.1-11 4 10.2-3.8 22.4 2.2 28-3.4l-1.7 5.2c14.4.2 5.3-3.7 15.4-5.1-3.8.8-.3 2-5 2.5 1.2 1.5 10.8 1.6 18 1.2 28.2-1.5 51 1.3 78.8-2.1.1.6.6 1.1 2.7 1.5 28.8 1 41.2-4 71-1.8 3.2 3.3 15.3.4 23 2.8a156 156 0 0 1 38.5-1.9c14 .5 27.8 1.5 38.1.9-15 4-33.6 5.9-53.3 6.7s-40.2.6-59.3.5c1 .7.3 1.3 2.7 1.5C583.1 61 542 58 509.8 62l-.2-.9c-13.4-.2-12.7 2.8-23.5 3.8 1.3-.8 7.6-1.4 4.8-2.8-4-.2-21.7 1.6-30-.1-6.7 1.7-1.5 3.2-10.6 4.4l-4.8-3c-8.4 1.2-13.5.2-22.3 2.5l4.9 1 226.7 5.7c2.4-1.4 4.2-.5 6.6.1l5.4.2.7-.2c1.3-.7-4.8-1.3 1.2-1.7l-.3.8c8.1-.8 12.8-3.2 19.5-4 1.2 2.5-5.5 3.7-12.4 5.3l8.5.2 3.3-.2a8.5 8.5 0 0 1 .6.3l4.6.1h1c-.4 0-.6-.2-.3-.7 1.6-1.1 4.6-.8 5.2-2.3-3.8-1-2.9-.7-7.9 0 .5-1.2 2.9-2 .6-2.8 12.5-2 25.2 1.8 35.3-1.9-1.4 2 13.4 1.1 5.2 3l-.6-1.2a26.1 26.1 0 0 0-15.7 4.5c12.6-2.3 14.7-1 28.6-2.2-5.4 2.5 7.9.2 4.8 2.4 3.2 0 6.7-.7 9.3-.5-7.3-1.7 5.3-2.6 4-4.4-4.3 0-8.7 1.6-8.9 3.2-2.7.2-2.5-1.4-2-2.5l-12.9-.1c11-.7-.4-5.3 9.6-4.7 2.5.2-.3 2.9 6.6 1.8 1.2 0 1.5-.5 1.2-1l-3.1-.6c1.6-.3 2.8.2 3.1.7 2.9.6 6 1.1 10 .2 0-.2-.1-.4-.5-.5l1.5.2-1 .3c.2.7-1.4 2 3.8 1.8 7.2-.5 3.2-3.5 4.6-4.2l-1.6-.2c3.3-.6.5-2 5.4-3.4a4.8 4.8 0 0 1 1.1-.4l-1 .4c-1.4.6-.2 1.4 3.1 1 4.8-1.4-4.6-4.6 3.1-4h.9-.9c-1.4 0-1.8.8.5.7 10.6-2-1.1-2.2 1.5-4.6 9-.6 6.5-1.2 15.4-1.7-5.6.2-1.5 2-5.6 2.8 6.6-.3 5.2.5 9.7 1-4.2-2 2.4-2.7 2-3.6h1.2c-.9.5-1.7 1-2.4 1.9l8 1.2c-1.8 1.8-11.7 2.4-7.4 4.6 7.8.7-3.6 3.3 5.4 2.3-1-3.8 13.4-4.7 11.3-8.2-4 .5-7 1-6.7-.7 8.8.2 4.5-2.7 10.2-2l1.7.4-1 1.1c1.2.2 2-.2 3-.5l1.5.4c-.3.4-.9.9 1 1.1l1.1-.6.8.2c-.6.3-1 .6-1 .8 3.3.4 2.8-.6 4.2-.9l1.6.5c-.7 1-3.1 2.6 1.1 2.2l1-.1-1 .1c-11.4 1.5-.9 5.7-13.8 6.5 5.2 2.7 10.5-.7 17.4-.3l-3-.5h2c2-1.7-6.3-1.3-5.5-3.1l3.3 1c0-1 6-1.4 4.2-2.2l-5.2.8c5.2-.8 10-1.9 14.6-3 5.8.2 11.3.5 14.5 2l-.9-2.7c13.9 2.4 33.5 1.6 44.5 5.3-2-1.9 1-2 5.1-1.8.2.3.6.6 1.4.8a24 24 0 0 0 3.6-.5l2.4.1-1-.5c2.9-1.1 1.7-3 7-3.9a12 12 0 0 1-1-.2c1.2 0 2.6 0 4.3.2-2.8-.7-6.3-1.6-5.8-2.2 9.3-1.5 10.4 3 19.1.9l-.8 3c12.2-3.3 14.2-1.8 28.5-3.8 4.2 2.3 3.3 5.2 10.2 6.6 2-1.2 1-3.3 10.2-2 .5 1-2.8 1.3-5.3 1.8 18 2 40.6 4.5 59.4 3.6-9.9-2 4-2.8 3-4.6l18.8 1.9c-5.2-1.4-17.8-2.5-27.6-4.9 1.2-.7 1.4-1.5 1.2-2.3 2.8 0 5.5-1.6 9.3-.9.3-.4 1.1-.9 2.1-1.3 3.1-.5 6.5-.2 10.5 0-.2-1-2.6-1.7-3.9-2.5.8-.4 1.2-.8 1-1.3 5.3.6 8.2 2.4 8.7 3.4 1-.5-1.1-1.7 3-2.1 9.7 0 5.5 3.2 6 4.3 4.5-1.3 10.6-6.1 18.2-1.9l-6.7-4.4c7.2 0 8 3 17 2.1-8-.1-14.8-1.4-11-3.4 10.3 3.3 22.2-3.2 28 2l-2-5 1.2-.1c.2.3.3.6.6.8l6.1-.3c.7.1 1.1.7 1.8 1.3.7 1 1.3 2.2 6 2.6-1.4-.2-1.9-.5-2-.8 5.5 1.1 22.3-.3 26.5-3.2 3 1.8-6.7 1.3-5.2 2.9 4.3 1.1 9.4-1.4 14-.6l1.4-2c-1.7.1-2.6-.3-3.4.2-.7-.5-.1-.9 1-1.2l3.9-.1c.1.7 6.4.6 7.5 1.8 9.4.8 21.8-2.3 26.8-1.3a20 20 0 0 1 5.2-2c5.2 0 10.5.2 16 .6 0-.6.5-1.2 2.6-1.6 28.7-2.2 41.3 2.2 71-1.5 3-3.4 15.2-1 22.8-3.8 2.8.5 5.7.8 8.8 1 .1.9 1.5 1.6 5.3 2.2 4-1.5 2.2.3 5.6.6 3.8-.8 4.3-1.7 6-2.8l11.2-.8c0 1.3-11 2.5-1 3.2l3.1-2.8c2.8 2.9 10 3.3 17.3 2.4-1.4 1-1.7 1.8 0 2.7-.4-2.2 9.6-1 7.5-3.3-1.7-.1-3.5 1.4-5.9.4 4.4.2 3.7-.7 6.8-1.5 6.9 2-4 2 5.7 4 6.5.3 13 .2 17.8-.5l-4.2-1.5 6.1-2c1.1 0-4.5 4.1 3.1 2 4.1-1.2-.6-3 3-4.3-4.5-.6-8.1.4-12.4.5l.8 1.6-4-.8c1.6-3 14.8.2 15-3.5-.1 1.1 1.5 1.5 3.4 1.7.7.4 2.3.7 5.2.6h.2c.2 0 0 .3-1 .7 7.4-.5.5-2.6 6.2-3.6l3.5 1c5.7-1-3.7-2 1.5-3-.7 1.9 5 2.9 7.8 3.7l-3.4.8-1.5-.3c.7-.5 1.4-1.1-1.7-1-2.3-.7-12.5 2.4-8.2 4.6 3.9.5 5.6-1.7 9.3-2-.2 4 8.2 0 6.9 4.4 8-.7 5.8-3.3 7.6-5.2.7.9-1.6 3 3.2 2.3v-2.2a1.1 1.1 0 0 1 0-.5v.5c.4 2 6.6 2.6 10.5 3.6l2.4 2c5-1 11-2.2 6.6-3.3l-3.8-.2c3.1-.8 8.7-3 14.1-3.9-1.8.4-8 4-2 5.5l7.6-2V0H0zm1342.1 23 .6.3-1.1.6h-.6l1.1-.9-.7-.3c1.8-.4 1.5-.2.7.3zm-67.1-2.3c7.7 1-2 1.8-2.3 2.5 1.9.4 3.3 1 4.7 1.5l-5.2.2c-.2-1.5-3.5-2.4 2.8-4.2zm-24.3-.7c9.2 1.2-3.5 3.7 8.6 3.6-2.8 1.4-2.2 1.2-3.3 2l-3.1.2c.8-.2 1.5-.5 2-1.2-7.6 0-7.2-.7-10-2.9 4.7.4 2.9-1.3 5.8-1.7zm-.3 5.9-4.8.2V26c-4.7.5-1.7 0-6-.1 3.3-1.2 7.5-.2 10.8 0zM555.4 47c.5.6.4 1.3.5 1.8-.6-1.3-6.4-2.2-10.3-3.2-9.7-.6-19.9 0-28-.9 17.4-3.6 49.3.1 69.3-2.4-1.8 2.7-16.4 1.1-22.5 2.3l13.9 1.8-22.9.6zM837 50.5h.2-.2zm82.5 2.2c1.5.3 2.7.4 3.7.3a19.7 19.7 0 0 0-2 .6l-1.7-.9zm8.7-.3a9 9 0 0 1-1.5.1h.1a16.8 16.8 0 0 1 1.4-.1zm117.4-3.8c-.8-1.6-2-3.1 1.2-4 1.7.3 3.6.4 6 .5.3.9-2.3 1.5.2 2.3-2 .6-5.1 1-7.4 1.2zM1293.8 26c.9-.7.2-1.3 2.6-1.6h-6.4c3.2-.6 6.5-1.1.6-2 1.2-1 3.8-1.4 6.6-1.8.6-.2 1.9-.4 4.4-.5h.2a10 10 0 0 0 4.4-1.3c-.3-.3-.2-.6.8-.6l-.8.6c.5.8 2.8 2.2-2.3 2.3l-2.1-1-4.6.5c-1.8.8 1.8 2 .3 3.3 4.8 0 10.7-.2 13.7 1.2l-17.4 1zm20.3-1c0-.6-1-1.3.4-2-2.2-.1-3.9 0-4.6-.8 6.9.5 6.2-3.7 16.3-3 9.4.9 0 2.2 3.8 4.4 1.4 1.6 3.1-.7 5.7-.4l.7.9-22.3.9zm133.3 4 1.1.4-1.2.3c-.9 0-.4-.3 0-.6zm32.6 3-2.6-.1c1.2-2 1.7-4.4 5.8-4.2-.5-.5-2.5-.4-3.8-.1a6.3 6.3 0 0 1-1 .4c-.3 0 .3-.2 1-.4 2.2-1 3.2-3 7.8-1.4-3.8 2.2-3.2 3.1-7.2 5.8zM932.2 53.7c7.6 0 7-.6 4.6-1.4.3.7-2.4 1-4.6 1.4zm4.5-1.7-1.6-.2 1.7.5-.1-.3zm286.7-10.6c-9.6 1-19.8.9-28 2.1 17.7 2.9 49.3-2.3 69.4-.6-1.9-2.7-16.4-.5-22.5-1.4l13.8-2.3-23 .3c.5-.6.4-1.2.4-1.8-.5 1.3-6.2 2.5-10 3.7zm10.2-4a2.2 2.2 0 0 0 0 .3.5.5 0 0 0 0-.3zm35.8 11 2-2.8c-7.2 1.1-10.1-.4-15.3 2l13.3.7zm-5.5-8.9 11-.7-6.9-.6zM1101.7 51l26.8 1.6-25.1-2-1.7.4zm-170.4 5.8 11.6 1.6c-3-1-7-.6-9.9-2l-1.7.4zm-114.4 2.6c-6 4-1.7-.3 2.6 4-1.2-1.6 4-3-2.6-4z"/><path d="m819.7 63.5-.2-.3a1.5 1.5 0 0 0 .2.3zm-17.7-6c-2.2-.7-4.4-1.4-8.4-1.4 3 1 3 3.4 8.4 1.5z"/></svg>