<svg xmlns="http://www.w3.org/2000/svg" preserveAspectRatio="none" viewBox="0 0 100.4 1500.2"><path fill="#d3d3d3" d="M10.4.2H0v1500h88.7c.2-.8.5-1.6.4-2.5 0 1 .3 1.7.6 2.5H96c.1-2 .3-3.8 1.3-2.3-.3-.6-.8-1.2-.7-2.6l1-.2c-.2-2-.4-4.2.1-4.8.3 1.1.7 1.5 1.1 1.8.2-8.4-3.2-1.8-3.3-9.2h.7l-.7-1.8c.3-.6.8-1 1.3-.9-.3-1-.6-.5-.9-.2l.4-1c-2.2-2.6.2-10.4-1-14.9-.1-1.8 1.2-4 1-7.4l-1 .2c1-2.7 1.7-12.9 4-15.4-.8-2.5-.3.3-1 .2a12 12 0 0 1-.3-4c1-.2 1.8 2 2.2-1 .3-2-.4-2.9-1-3.6 0-.3 0-.3-.1-.2-.5-.6-.8-1.2-.7-2.2l-.2.2c-.3-1.2-.7-2.1-.6-4.6l.6-.1.2.8-.1-.8c.4-.2.8-.5 1-.2-.1-1-.4-2-1-2.4a6.1 6.1 0 0 1-.3.8 75 75 0 0 1-.2-7.3c.5.5 1 3.4 1.5.8-.6-1.2-1-1.5-1.5-1.4v-6.4c.5-.3 1.4 1.2 2-1.1-.3-1.1-1.4-.4-1-2.2l-.8.5c.6-6.8.9-16 1.7-23.4l-.4-.2c1-3.4.1-7 .5-11l-.5 2c-.6-2.6-.2-4-.5-6.5l1-1.4c-.3-2.6-.8-1.1-1.4-3 .7-2.5 0-7.5.1-8.7.5-.8.7 1 1 1.4-.4-3.1-1.4-2.9-1.4-6.7l.3-.1c-1.5-9.2-1-20.8-2-31 0 .6-.3.5-.5.7-.4-10.8-.4-23.2-2.9-31.7.3 5.8-1.3 15.7.5 21.6-.7 2.2.3 5.6-.7 6.5a53.9 53.9 0 0 0 0 1.7c-.7 1-1.2 3-2.2 1.2-1.3-1.2-1.1-4.2-1.4-6.3-1.4 1.8-2-.2-2.5-2.3 0 2.8-1.7.7-.7 4h-1.2c0-1.4.6-3 .6-4.4.3.3.5 0 .7.4l-.5-4.2.8.4c.1-2.5 1-5.7.6-7.2 0 1.2-1 2.3-1.4 1-.5-.8-1-2.2-1-3.3 1.4-.7 1.3-5.1 2.7-2.3-.7-3.6-1-2.3-1.8-5.7l.4 2.3c-1 .3-2.8-1.7-3.5.6-.7-2.6-2.6-1-2.8-4.5.6-1.4 2.1.4 2.4 2.4 0-1 .7-1.9 0-2.9.8-.7 1.5 1.9 1.8 1.8 0-1.8-.5 0-.8-1.7-1.3-3 1.7-1.9 1-4.7 0 .6-.3 1.7-.8 1 0-3.9-1-2.2-1.6-5 1.5-1.5 3.2-.8 3.5-3.3v1.4a5 5 0 0 0 1.1-3.1c-1.3-5.3-3.7-9.6-4.9-15l.4 2c-.5.6-.6-1.6-1.2-1.6l.7-1.2c-1.1-.3-1 2.7-2.2 2 .2-.2.2-.6.1-.8l-.3 1.1c.3-2.5-1.7-4.5.1-6.4.2 4.9 3.3.8 3.8 5.6-.4-2.6 1.2-.5 1.7-.8.3-1.3-.8-.6-.5-2.1.8 0 1.6 3.3 2.2 1.8-1.3-.2-1-1.5-1.9-2.1.3-1.1.8 0 1.2-.5 0-.6-.6-1-.4-1.5l.7.4c1.1-3.1-1.1-1-.8-4.5-1 0-.8 1-.6 2.5-2.2.7-2.4-4.6-4.8-4.3-.4-3.3.9.9 1.5-2 1.5-1.5 1.7 2.2 2.7 2.9l1-3c2 1 1.3 2.8 3.1 3.4.1-2.2-.4-2-1-4.2-1.6 3.6-1.3-1.6-3.2.5.5-1.7.9-1.1.9-3.5.4 1.5 1.6 0 1.6 2-.1-3.2-.6-2.3-.7-5.6-1.4-1-1.8 3.3-2.8-.6 0-.9.5-.7.5-.2.5-2.8-1.7.6-2.4-1.2-.2-1.2.3-1.7.7-1.2-.8-1.8-1.7-.8-2-2l-.2.5c-.4-.5-2.4 1-2.5-1.7 0-2 .8-1.3 1.3-1.4-.5-1.5-.1-2.6.4-3.6-.3 0-.6 0-.6-.5-.4-2.5 1.2-1.5 1.4-2.4.7-3.6-2.6.4-2.7-3.6l-.4 4.7c-.7-.2-1.7-.3-1.7.7 1 .1 2 1.8 1.8 3.3-1.2.5-1.4-4.2-2.6-1.5.2-1-.2-2.3 0-3.5 1.2 1.2.2-3.7 1.6-1.7-.3-5.1.6-5.9-.4-10.6.8.5 2.8 3.5 2.2 6l-.7.1c.9 3 .8-2.4 2-1.8-2-3.8 1-8.4.2-13-.6.8-1-.2-1.7-.4.2 2 .5 1.6-.3 3-1-.3-.6-1.4-1.2-2-1-.5 0 1.4-.6 2-.5-1.7-.6-1.5-1.4-2.6.7-1 1.2-.8 2-1.6.2-4.2-1.4-4-1.2-7.1 0 1.2.7-.5.8.3v-.6c1.4 3 1.4 8.3 3.7 7.8-.2-2.5-1.5-4.3-1.5-7.3h.4c0-2.1-.6.1-1-.4-.8-2.5 2.3-3.2.6-4.9l-.4 2.5c-1-1.9-.1.6-1.7.1-1.2-3.3-.4-9.1-1.5-14-.9 1.5-.9 1.9-1 3.7-2-.9-1.8-1.6-3.6-.7v2.2h-2a4.4 4.4 0 0 1 .3-1.7c-1.3-.3.3-3.3-.8-3.5l.1 1.9c-1 1-.9-1.3-1.2-2.6-1.3 1.3 0 4 .1 6.7.8-.2 2.2 2.5 2.4-.1.8 0 1.2 1.5 1.2 2.6-.4-.5-1.8 1.4-2.5.2.5 1.4-.2.7.2 3-.5-.4 0 4.4-1.6 4 .7.9 2.5 0 2.6 3 1.1-.7 1.3-4 2.6-1.8l-.8-1.5c.5-2 1.2.6 1.7-2-.1.7.6 2.3-.3 2.7 2.5-.7 1.2 4 3 4-.7.7-.8 1.5-.6 3-.6-.3-1.3.5-1.7-.6.2-1-.1-1.6.4-2.7-2.4.6-.7 3.8-1.2 6.3.2-.4.4-.4.7.2-.3 1.5-.8 4.8-2 3.9l.4 7.5c-.6 0-.3-1-.4-1.5l-.1 4.2c-.3.4-.5.2-.7-.2.2-4 0-8.2.8-16-2.5-4-5.4-3-7.1-9.8 1-2 3.3-1.1 1.6-10.3-1.1-.5-1.2 2.8-1.7 5.4-2.7-17.9-6.3-40.4-6.2-59.2 2.4 9.7 2.6-4.2 4.4-3.2l-2.7-18.7c1.6 5.1 3.3 17.7 6 27.3 2.8-5 7.7 6.4 7.8-6.7-2-5-2.2 4-4-4.3.9-3.6.3-7.5-.2-12.3 1.5.3 2.7 5.7 4 4.4-.6-6.4-2.8-9.7-4-10.1.6-1 1.9 1 2.1-3.2-.5-9.6-3.5-5.3-4.6-5.8 1-4.5 5.6-10.8 1-18.3l4.8 6.6c-.3-7.2-3.4-7.8-2.9-16.9.5 8 2.1 14.7 4 10.9-3.8-10.2 2.2-22.4-3.4-28l5.2 1.8c.2-14.5-3.7-5.4-5.1-15.4.8 3.8 2 .2 2.5 4.9 1.4-1.2 1.5-10.8 1.2-18-1-17.4-.2-32.9-.3-48.7 1.7 1.6 2.6-4.7 2.5-12 1.2 9.1-1.8 10-1.7 17.2l4.3-7c-4 7.8 1 13.8 2.3 18.2-1 .6-4.3-3.5-4.2 6.1.5 4.2 1.7 2 2.3 3-1.1.6-3.1 4-3.3 10.4 1.5 1.2 2.2-4.2 3.8-4.6-.2 4.8-.5 8.7.7 12.2-1.3 8.5-2.1-.6-3.8 4.6 1 13.1 5.1 1.4 8.2 6.2a89 89 0 0 0 .6-3.2 73 73 0 0 1-.7 13.9c1.7 6.6 3.2 1.5 4.4 10.6l-3 4.8c1.2 8.4.2 13.4 2.5 22.2l1-4.8 1-46c-1-.7-1.8-7.1-3-6.3l1.3-18.9c-.5 2.4-1 6.4-1.5 10.9-1.2-8.5-3.7-8.8-3.6-21.2l.9-.3c-4-32.2-1-73.2-2.6-109.5-.2 2.4-.8 1.8-1.5 2.7 0-19.1.3-39.7-.5-59.3-.8-19.7-2.8-38.3-6.7-53.3.5 10.3-.3 24.2-.9 38.1-.5 14-.6 28 2 38.5-1.8 5.5-.8 13.3-1.3 18.4-.3-17.7-3.9-41-3-57-2.5 1.9 0 16.4-.7 22.5L65 817.8l1 22.9c-.7-.5-1.3-.4-1.9-.4 1.3.5 2.6 6.3 4 10 .8 6.8 1.1 14 1.7 20.4-2.3 29.8 2.7 42.1 1.8 70.9-.4 2-1 2.5-1.6 2.7l.3 2.2-2 .8c.4-1.6.9-2.7 1.4-3-.5 0-1.1 0-1.8.5l-.1-5c1-3.1 3.3-.8 3.9-8-.5 3.9-2 .5-2.2 5.1-1-.7-1.7-5.5-2.1-10.8l-.1-4.2-.1.6-.1-3.3c-.5-28.3-4.8-51-3.4-78.9-.6 0-1.2-.5-1.7-2.6-2.9-28.6 1.3-41.3-3.1-71-3.5-2.9-1.5-15.1-4.4-22.7 1.8-10.7.7-24.6-.7-38.5-1.5-13.8-3.4-27.6-3.5-38l-.9 5.2a67 67 0 0 0-2.2-14.6c.3 5.8-1.3 15.7.5 21.6-.7 2.2.3 5.6-.7 6.5-.2 3.7 0 6.5.4 9l-.3 10.4-.4-4.8-.4 4c-.4-1.8-.1-6-1-6.4 1 5.6.2 14.7 1.5 19.6.3-2.3 0-5.2 0-8l.3-.9.1 12 .7 16h-.2l.2.1.3 5.2.1 2v.8c-.6.6-1-1.2-1-3.3-.3 2.5.7 2.8.7 4.8l-1.5-2c1.4 2.3-.2 4-.7 5.2.4.2 1.5-1 1.4 1.8-.2 1.1-.6.5-.8.8.4.2 1 1.1 1 3-.4.3-.6-1.3-1.1-1.4 0 1.4 0 2.5-.3 3.5.4 2.4.7-.2 1.2 1.3-.3 3.7-1.7.4-2.7 1.7-.7-2.7-1-6.3-1.3-7.8l.4 5.3c-.6-.3-1 3.6-1.6.8-.5 5.3.1 11.8.6 16.9.2-.7.3-1.7.7-1.5.3 2.6-.4 2.3-.8 2.9.4 2 1.4 1.7 2.1 2.9-.8 4-.3 4.6-1.5 8l1-.2c-.8 2.5.7 2.8 0 5.4-.1.2-.4-.8-.6-1.6.3 2.3-.8 2.1-.5 4.4l-1-1.8c0 1.8.3 4.4-.6 3.5 1.1 3.2.7 8.7 1.3 12.6l-.8-.2c1 2 0 7.4 1.2 9.2l-.4.3 1.2 4c-.1 2-1.4 1.3-1 1.4.1 4 .2 7.2-.2 9.8 1.1.7 1.4 5 1.6 8.3-.2 3.5-.2 7.1-.2 10.8L33.7 743.3c1.2-2.5.1-4.2-.6-6.6l-.6-5.3.2-.7c.6-1.4 1.6 4.6 1.5-1.3l-.7.3c.2-8.2 2.3-13 2.7-19.8-2.6-1-3.4 5.8-4.5 12.8l-.8-8.5a56.6 56.6 0 0 0 0-3.3 9.7 9.7 0 0 0-.3-.5l-.5-4.7v-1c0 .5.2.7.7.3 1-1.6.5-4.6 1.9-5.3 1.3 3.7.9 2.8.6 7.9 1.1-.6 1.7-3 2.7-.9 1.2-12.5-3.5-25-.5-35.3-2 1.5-2-13.3-3.3-5l1.1.6c1 6.6-2.1 14.8-3.3 16 1.4-12.8 0-14.8.2-28.7-2.2 5.5-.8-7.9-2.7-4.6-.3-3.2.2-6.8-.2-9.3 2.2 7 2.2-5.6 4-4.4.4 4.3-.9 8.8-2.5 9.1 0 2.8 1.6 2.5 2.7 1.9l1 12.7c-.1-11 5.3 0 4-9.8-.4-2.6-3 .4-2.3-6.5 0-1.2.4-1.5.8-1.3a21 21 0 0 1-.8-10c-.8 0-2 1.6-2.1-3.6 0-7.2 3.2-3.4 3.8-4.8l.3 1.5c.5-3.4 2-.6 3.1-5.6-.5 1.3-1.4.2-1.2-3.2 1-4.8 5 4.3 3.8-3.3 0 1.4-.8 1.8-.8-.5 1.3-10.7 2.3 1 4.5-1.8 0-8.9.7-6.5.7-15.4 0 5.5-1.9 1.6-2.5 5.8-.1-6.1-.7-5.3-1.5-8.8l.1-.3c2.1 2.8 2.3-3.1 3.3-2.9l-.2-1c-.4.8-.9 1.7-1.7 2.4l-.8-3.7v-.2l-.3-1c0-1.2.4-2.5.6-3.1l-1-1 .6-2.1c.2.4.5.6 1 .5l-.2-2.2.4-.4-.4.1c0-5.5 2.4-2.8 1.5-7.9l-.2-.5c-.2-2-.4-4.3.1-4.8.3 1 .7 1.4 1.2 1.8.1-8.5-3.3-1.8-3.4-9.3l.7.1-.7-1.9.8-2c-2.2-2.7.2-10.4-1-15-.1-1.7 1.2-4 1-7.4l-1 .2c1-2.7 1.7-12.8 4-15.3-.8-2.6-.3.2-1 .2-1-5 .5-5.4 1-8-.4-3-.3 2.4-1 .7.7-4.7-1.3-3.8-.6-9.6.5-.6.4 1.5.7 2.1-1-4-.4-11.7-.6-17.8.7-7 1-17.2 2-25.3l-.4-.2c.9-3.3 0-7 .4-11l-.5 2c-.6-2.6-.2-4-.5-6.5l1-1.3c-.3-2.7-.8-1.2-1.4-3.1.7-2.4 0-7.5.1-8.6.5-.8.7 1 1 1.3-.4-3-1.4-2.8-1.4-6.7h.3c-1.5-9.2-1-20.9-2-31.1 0 .7-.3.5-.5.8-.4-10.8-.4-23.3-2.9-31.8.3 5.8-1.3 15.7.5 21.7-.7 2.2.3 5.5-.7 6.5-.5 8.4 1.4 11.9 1.4 20-.2 1.2-.7.6-1.2 1l-.5-6.5-.4 4c-.4-1.7-.1-5.9-1-6.4 1 5.7.2 14.7 1.5 19.6.3-2.3 0-5.2 0-8 .4-1.1.6-3 1.1-2.9 1.5 7.9.8 14.4 1.2 22.4.1 2 0 4.8-.4 5.1-.2-1.3-.6-.3-.8-1.4.4 2.9 1.7.3 1.5 4.4l-1.7-.5c1.8 1.6-.3 5 .8 8-.7 1-1.1-1-1.2-3.2-.3 2.6.7 2.8.7 4.9l-1.4-2c1.3 2.2-.3 4-.8 5.2.4.1 1.5-1 1.4 1.7-.2 1.2-.6.6-.8.9.4.1 1 1 1 2.9-.4.3-.6-1.2-1.1-1.3 0 1.3 0 2.5-.3 3.4.4 2.4.7-.1 1.2 1.4-.3 3.7-1.7.3-2.7 1.7a18.2 18.2 0 0 0-.7-3.8l-.6-4 .2 2.7c-1-2.9-2-5.3-1.2-10.2l-2.9 1c2.5-12.4.7-14.3 1.8-28.7-2.6-4-5.4-3-7.3-9.7 1-2 3.3-1.2 1.3-10.4-1-.4-1.1 2.9-1.5 5.5-3.1-17.8-7.3-40.2-7.6-59 1 3.6 1.6 3.9 2 2.9a29.1 29.1 0 0 1 .5 1.9V349c.5-2.1 1-5.2 1.8-4.7L23 341l.6-1.5-.7.9-.4-2.4c0-.6.3-1-.3-2.5h.6a208 208 0 0 0 4.3 17.3c.6-1.2 1.5-1.5 2.3-1.4-.2-2.8 1.1-5.6.2-9.3.4-.4.8-1.2 1.2-2.2.3-3.1-.2-6.5-.7-10.5 1 .2 1.9 2.5 2.7 3.7.4-.8.8-1.2 1.2-1-1-5.3-3-8-4-8.4.5-1 1.8 1 2-3.3-.8-9.6-3.7-5.2-4.8-5.6 1-4.5 5.4-11 .6-18.3l5 6.4c-.6-7.1-3.6-7.7-3.4-16.8.7 8 2.5 14.7 4.2 10.8-4-10 1.7-22.4-4-27.9l5.2 1.6v-1.1c-.3-.2-.6-.3-.8-.6l-.2-6c-.1-.7-.7-1.2-1.3-1.7-1-.6-4.4.2-6-2.5l.5-.9c.3 0 .7-.2.8-.1 0-.4-.2-.8-.4-1.3-.1-1-.2-1-.3-.9l-1-2.7c-.3-1.1-.7-2.3-.3-5.3.5-.6.3 1.5.7 2-1-4-.4-11.6-.6-17.7.7-7 1-17.2 1.9-25.3l-.4-.2c1-3.4 0-7 .5-11l-.5 2c-.7-2.6-.3-4-.5-6.5l1-1.4c-.3-2.6-.9-1.1-1.4-3 .7-2.4 0-7.5 0-8.7.6-.8.8 1 1 1.4-.3-3-1.3-2.9-1.3-6.7h.3c-1.5-9.3-1.1-21-2-31.1-.1.7-.3.5-.5.7-.4-10.7-.5-23.2-2.9-31.7.3 5.8-1.4 15.7.5 21.6-.8 2.2.3 5.6-.7 6.5-.5 8.5 1.3 12 1.4 20.1-.2 1.2-.7.6-1.2 1l-.5-6.5-.4 4c-.5-1.8-.1-6-1-6.4 1 5.6.2 14.7 1.5 19.6.2-2.3 0-5.2 0-8 .4-1.2.6-3 1.1-3 1.4 8 .7 14.4 1.2 22.5.1 2 0 4.7-.5 5-.1-1.2-.5-.2-.8-1.3.4 2.8 1.8.3 1.6 4.4l-1.7-.5c1.8 1.6-.3 5 .7 8-.7 1-1-1-1.1-3.2-.3 2.6.7 2.8.7 4.8l-1.5-1.9c1.4 2.2-.3 4-.7 5.1.3.2 1.4-1 1.4 1.8-.2 1.2-.6.6-.8.8.4.2 1 1.2 1 3-.4.3-.7-1.2-1.2-1.3 0 1.3.1 2.4-.3 3.4.4 2.4.7-.1 1.3 1.3-.3 3-1.2 1.5-2 1.4-.2-.4-.4-.8-.7-1-1.4-9.3.7-22-.6-26.8a22 22 0 0 0 1.7-5.3 320 320 0 0 0-1.7-15.9c.6-.1 1.1-.6 1.4-2.7.3-28.8-5-41-3.4-71 3.1-3.2 0-15.2 2.2-23a71 71 0 0 1-1.6-8.7c-.9 0-1.7-1.4-2.6-5.1 1.3-4.1-.5-2.2-1-5.5.6-3.9 1.4-4.5 2.4-6.2V30c-1.3.2-1.7 11.1-3.1 1.3l2.6-3.4c-3-2.5-4-9.6-3.6-17-.8 1.4-1.7 1.8-2.7 0 2.2.4.3-9.5 2.8-7.6.2 1.7-1.2 3.6 0 6-.5-4.4.4-3.7 1-6.9a7 7 0 0 0-1-2.2c-.4-.3-.6-.2-.8 0zM87.6 1385c.9-.5.7-3.7 1.5-2.5l.4 5.2c-.6-.3-1 3.6-1.6.8v1.3c-.3-1.6-.6-3.3-.3-4.8zm5.4-62.5c.4 4.4 1.3 7.8 1.3 13.4-.2 1.2-.7.6-1.2 1l-.5-6.5-.4 3.9c-.5-1.7-.1-5.9-1-6.3 1 5.6.2 14.6 1.5 19.6.2-2.4 0-5.2 0-8 .4-1.2.6-3 1.1-3 1.5 8 .8 14.4 1.2 22.5.1 2 0 4.7-.4 5-.2-1.3-.6-.3-.9-1.4.5 2.9 1.8.3 1.6 4.5l-1.7-.6c1.8 1.7-.3 5 .8 8-.7 1-1.1-.9-1.2-3.1-.3 2.5.7 2.8.7 4.8l-1.5-2c1.4 2.3-.2 4-.7 5.2.4.2 1.5-1 1.4 1.7-.2 1.2-.6.6-.8.9.4.1 1 1.1 1 3-.4.3-.7-1.3-1.2-1.4 0 1.4.2 2.5-.2 3.5.4 2.4.7-.2 1.2 1.3-.4 3.7-1.7.4-2.7 1.7-.7-2.6-1-6-1.3-7.6v.1c-.2-.6-.4-2.9-1.2-2.2.3.3 0 .6.1 1.2l-1.2-.5c.5-1.7-1-3.6-.3-5.2 1-.5.6 3 1.8 2-1.8-1.6-2.6-7.8-1.9-9.8.3-1.4 1.8-1.5 2-2.1l-.2-2.2c.5-.3 1-.3 1.7-.8.3-1-.2-1.8-.4-2.5 1-3 2.2-1.4 3.2.1l-.5 1.7c.6 1.2.4 3 1.7 2-.1-1-.7-1-1-1.2l.8-1c-.6-1-1-3.7-2-3.4.7-2-.2-4.3.7-6-.7 1.2-1.1-.3-2 0l-.3 2.1c-.3-1.7-1-4.1-.4-5.7.7.2 1 .2 1.6-.6-1 1.2-1.2-3-2.4-.5.4 1 .5 1.8.4 3-1.4.8-1.6-1.1-2.4-2.1l-1.3-5.7c.3-1 2-1.4 1-3.3-1.4 2.4-2.3-2.3-3.7-2.9.6-1.8-1.2-3 0-4.4.4.7.4 3.5 1.5 4.2 1 .1 2.7-.6 3.2 2.2.5-3.3-.9-2-1.3-3.5l.2 1.1c-.5-.5-1.2.5-1.3-.5.4-4 1.5-4.6 2.8-7.3-.7.6-1.4-.6-1.5-1.2.8-2.1 1.8-.7 3-1l-.3.1.6 3.7c.7-1.4.1-2.2.3-4.2l.1-.1c-1-1-.7-2.7-1.4-2 0-1 .4-.5.7-1.3a3.1 3.1 0 0 1-1.3-2.8c.4.2 1 .3.8 1.7.4-1.5 2-2 2.8-1.4l-.6 2.4c1 1.1.5-2.3 1.5-2.2.2 1.1-.4 2-.1 2.6.2-.1.3-.4.4-.7zm-.5-3.3c0-.6.1-1 .3-1.1a45.4 45.4 0 0 0 0 3c0-.7-.3-1.4-.3-2zm-22.6-26a2.7 2.7 0 0 0-.5-.3v-.8c.2.3.4.6.5 1.1zm1.2-12.1c-.2 2-.1 4.6-.6 6.2-.5-1-1.2-1.2-1.8-1l-.8-6.1.7-1.5c-.4 2.1 1.6 1.7 2.5 2.4zm-.2-33.3c-.1 2.2 0 5 1.5 6.5l-2-.6.2 2.4c-1.2 1.9-1.3-2.2-1.4-3.4-.2 3.4 0 5.6 0 8.7.4-1 .8-.4 1.4-.8.9 1 .3 2.5.5 3.5-.5.3-1 .2-1-.7l.2 2.1c-1.3-.2-1.2.9-2-1.2l.3 2c-.3 2-1-.2-1.4-.7l-.2 3.4c.7 1.2 1-.7 1.4 1.6-.7 2.2-.8 4.8-.8 7.3-.8-4.8-1.7-9.3-3-12.8 3 3 1.3-6.2.7-12.5l3.8 6c-1.7-7.8 1.8-7.4.2-15.6l1.6 4.8zm2.5-4.1c-1.4-.9-1.1.4-1.5 1.2a18.4 18.4 0 0 0-.6-3.8c.4 0 .8-.3 1-1.2a8 8 0 0 0 1 3.8zm-2.7-7c0 1.1-.1 1.3-.4 1.2a18 18 0 0 1-.5-2c.4.2.7.4 1 .8zm-3.5-6v-.4.4zm1.6-.6-1 .4c0-.6 0-1.3-.3-1.8l.4-1.8c.5.9 1 1.7 1 3.2zm-19-376.8h.7l-.7-1.8.8-2c-2.2-2.7.2-10.5-1-15-.1-1.7 1.2-4 1-7.4l-1 .2c.6-1.7 1.1-6 2-9.8 1.7 24.4 3.8 48.8 2.7 69.7l.8.2c1.1 13.4-2 12.9-2.2 23.7.8-1.4 1-7.6 2.5-5 .5 4-.1 21.7 2.2 30-1.2 6.7-3 1.7-3.7 10.8l3.3 4.6c-.5 8.5.8 13.5-1 22.4l-1.1-4.8-7.3-77c.4-2 1.4-2.9 2-4.8l-1 1c-.7-3.4.6-2.3-.4-5H50c-.8-.9-.2-3.3.2-4.3l-1-.9c.6-2.1.8-3.6 1.8-4.2l-1 .2c.6-.8-.1-8.4 1.6-5.8-.3-.6-.8-1.2-.7-2.6l1-.2c-.2-2-.4-4.2.1-4.8.3 1.1.7 1.5 1.1 1.8.2-8.4-3.2-1.7-3.3-9.2zm-7.6-261.6-.1-.2.1.2zm-3.4-.3-.9-1c-1.2-7.7-3 3.8-2.6-5.2 1.3.2 2.1-1.3 2.8-3.2l.7 9.4zm-1.5-29.2c-1.6.9-3.4.2-3.3 8-3-5 0-10.5-.9-17.3l.7 3c0-.6 0-1.7-.2-2.1 1.6-2 1.8 6.2 3.6 5.3l-1.2-3.3c.7 0 .8-4 1.3-4.5v11zm-.3-34.4-.2.5-.4-.6zm-.5-50c.3 2.6-.4 2.4-.8 2.9.4 2 1.4 1.7 2.1 3-.8 4-.3 4.5-1.5 8l1-.2c-.8 2.4.7 2.8.1 5.4-.2.1-.5-.9-.7-1.7.3 2.3-.8 2.1-.4 4.4l-1.2-1.8c0 1.6.4 4-.3 3.7a77 77 0 0 0-4-17.1c2 1.9 2-1.2 1.4-5.3-.3-.1-.6-.5-.8-1.3 0-1.5 0-2.7.2-3.6l-.3-2.4.6 1c.8-2.7 2.4-2.2 3.1-5.8 0 4.2.5 8.6.8 12.3.2-.7.3-1.6.7-1.5zm-1.3-15v.4l-.2-1 .2.6zM18.5 232.3l-.5 3c-.3-1.2-.3-2.5-.3-3.8.3.2.6.4.8.8z"/></svg>