<svg xmlns="http://www.w3.org/2000/svg" preserveAspectRatio="none" viewBox="0 0 1500 150"><path fill="#d3d3d3" d="M1500 10.4V0H0v88.7c.8.2 1.6.5 2.5.4a8 8 0 0 0-2.5.6V96c2 .1 3.7.3 2.3 1.3.6-.3 1.2-.8 2.6-.7l.2 1c2-.2 4.2-.4 4.8.1-1.1.3-1.5.7-1.8 1.1 8.4.2 1.7-3.2 9.2-3.3v.7l1.8-.7c.6.3 1 .8.9 1.3 1-.3.5-.6.2-.9l.9.4c2.7-2.2 10.5.2 15-1 1.7-.1 4 1.2 7.4 1l-.2-1c2.7 1 12.8 1.7 15.4 4 2.5-.8-.3-.3-.2-1 1.8-.4 3-.4 4-.3.2 1-2 1.8 1 2.2 2 .3 2.8-.4 3.6-1 .2 0 .3 0 .2-.1.6-.5 1.1-.8 2.2-.7l-.2-.2c1.2-.3 2.1-.7 4.6-.6v.6l-.7.2.8-.1c.2.4.5.8.1 1 1-.1 2-.4 2.4-1a6.1 6.1 0 0 1-.7-.3 75 75 0 0 1 7.2 0c-.5.5-3.5 1-.8 1.5 1.2-.6 1.4-1 1.4-1.5H90c.4.5-1.2 1.4 1.2 2 1-.3.4-1.4 2.1-1l-.5-.8c6.9.6 16.1.9 23.5 1.7l.2-.4c3.4 1 7 .1 11 .5l-2-.5c2.6-.6 4-.2 6.5-.5l1.4 1c2.6-.3 1.1-.8 3-1.4 2.4.7 7.5 0 8.7.1.8.5-1 .7-1.4 1 3-.4 2.9-1.4 6.7-1.4v.3c9.3-1.5 21-1 31.1-2-.7 0-.5-.3-.7-.5 10.7-.4 23.2-.4 31.7-2.9-5.8.3-15.7-1.3-21.6.5-2.2-.7-5.6.3-6.5-.7a53.9 53.9 0 0 0-1.8 0c-1-.7-3-1.2-1-2.2 1.1-1.3 4-1.1 6.2-1.4-1.8-1.4.2-2 2.3-2.5-2.8 0-.7-1.7-4-.7V85c1.3 0 3 .6 4.4.6-.3.3 0 .5-.4.7l4.2-.5-.5.8c2.6.1 5.8 1 7.3.6-1.2 0-2.3-1-1-1.4.8-.5 2.1-1 3.3-1 .6 1.4 5 1.3 2.3 2.7 3.6-.7 2.3-1 5.7-1.8l-2.3.4c-.3-1 1.6-2.8-.6-3.5 2.6-.7 1-2.6 4.5-2.8 1.4.6-.5 2.1-2.4 2.4 1 0 1.9.7 2.9 0 .7.8-1.9 1.5-1.8 1.8 1.8 0 0-.5 1.7-.8 3-1.3 1.9 1.7 4.7 1-.6 0-1.7-.3-1-.8 3.8 0 2.2-1 5-1.6 1.5 1.5.8 3.2 3.3 3.5H224a5 5 0 0 0 3.1 1.1c5.2-1.3 9.6-3.7 15-4.9l-2 .4c-.6-.5 1.6-.6 1.6-1.2l1.2.7c.3-1.1-2.7-1-2-2.2.2.2.6.2.8.1l-1.1-.3c2.5.3 4.5-1.7 6.4.1-5 .2-.8 3.3-5.6 3.8 2.6-.4.5 1.2.7 1.7 1.4.3.7-.8 2.2-.5 0 .8-3.3 1.6-1.8 2.2.1-1.3 1.5-1 2.1-1.9 1.1.3 0 .8.5 1.2.6 0 1-.6 1.5-.4l-.4.7c3.1 1.1 1-1.1 4.5-.8 0-1-1-.8-2.5-.6-.7-2.2 4.6-2.4 4.3-4.8 3.3-.4-1 .9 2 1.5 1.5 1.5-2.2 1.7-2.9 2.7l3 1c-1 2-2.9 1.3-3.4 3.1 2.2.1 2-.4 4.2-1-3.6-1.6 1.5-1.3-.5-3.2 1.6.5 1.1.9 3.5.9-1.5.4 0 1.6-2 1.6 3.2-.1 2.3-.6 5.6-.7 1-1.4-3.3-1.8.6-2.8.9 0 .7.5.2.5 2.8.5-.6-1.7 1.2-2.4 1.2-.2 1.7.3 1.1.7 1.9-.8.9-1.7 2-2l-.5-.2c.6-.4-.9-2.4 1.8-2.5 1.9 0 1.3.8 1.3 1.3 1.5-.5 2.7-.1 3.7.4 0-.3 0-.6.5-.6 2.5-.4 1.4 1.2 2.4 1.4 3.6.7-.5-2.6 3.6-2.7l-4.7-.4c.2-.7.3-1.7-.7-1.7-.1 1-1.8 2-3.4 1.8-.4-1.2 4.3-1.4 1.6-2.6 1 .2 2.3-.2 3.4 0-1.1 1.2 3.8.2 1.8 1.6 5.1-.3 5.9.6 10.6-.4-.5.8-3.5 2.8-6 2.2l-.1-.7c-3 .9 2.4.8 1.8 2 3.8-2 8.4 1 13 .2-.8-.6.1-1 .3-1.7-1.8.2-1.5.5-2.9-.3.3-1 1.4-.6 2-1.2.5-1-1.4 0-2-.6 1.7-.5 1.5-.6 2.6-1.4 1 .7.8 1.2 1.6 2 4.2.2 3.9-1.4 7.1-1.2-1.2 0 .5.7-.3.8h.6c-3 1.4-8.3 1.4-7.8 3.7 2.5-.2 4.3-1.5 7.3-1.5l-.1.4c2.2 0 0-.6.5-1 2.4-.8 3.2 2.3 4.9.6l-2.6-.4c2-1-.5-.1 0-1.7 3.3-1.2 9.1-.4 13.9-1.5-1.4-.9-1.8-.9-3.6-1 .8-2 1.6-1.8.7-3.6h-2.2v-2a4.4 4.4 0 0 1 1.7.3c.3-1.3 3.3.3 3.5-.8l-2 .1c-.8-1 1.4-.9 2.7-1.2-1.3-1.3-4 0-6.7.1.2.8-2.5 2.2.1 2.4 0 .8-1.6 1.2-2.6 1.2.5-.4-1.4-1.8-.2-2.5-1.4.5-.7-.2-3 .2.4-.5-4.4 0-4-1.6-.9.7 0 2.5-3 2.6.7 1.1 4 1.3 1.8 2.6l1.4-.8c2 .5-.5 1.2 2.2 1.7-.8-.1-2.4.6-2.8-.3.7 2.5-4 1.2-4.1 3-.6-.7-1.4-.8-2.9-.6.3-.6-.6-1.3.6-1.7 1 .2 1.6-.1 2.7.4-.6-2.4-3.9-.7-6.3-1.2.3.2.4.4-.2.7-1.5-.3-4.8-.8-3.9-2l-7.5.4c0-.6 1-.3 1.5-.4l-4.2-.1c-.4-.3-.2-.5.2-.7 4 .2 8.2 0 16 .8 4-2.5 3-5.4 9.8-7.1 2 1 1.1 3.3 10.3 1.6.5-1.1-2.8-1.2-5.4-1.7 17.9-2.7 40.4-6.3 59.2-6.2-9.8 2.4 4.2 2.6 3.2 4.4L394 58c-5.2 1.6-17.7 3.3-27.4 6 5 2.8-6.3 7.7 6.8 7.8 5-2-4-2.2 4.3-4 3.6.9 7.5.3 12.3-.2-.3 1.5-5.7 2.7-4.4 4 6.4-.6 9.7-2.8 10.1-4 1 .6-1 1.9 3.2 2.1 9.6-.5 5.3-3.5 5.8-4.6 4.4 1 10.8 5.6 18.2 1l-6.5 4.8c7.2-.3 7.8-3.4 16.9-2.9-8 .5-14.7 2.1-11 4 10.3-3.8 22.5 2.2 28-3.4l-1.7 5.2c14.5.2 5.4-3.7 15.4-5.1-3.8.8-.2 2-4.9 2.5 1.2 1.4 10.8 1.5 17.9 1.2 17.5-1 33-.2 48.8-.3-1.6 1.7 4.7 2.6 11.9 2.5-9 1.2-9.9-1.8-17-1.7l6.8 4.3c-7.7-4-13.8 1-18.2 2.3-.5-1 3.6-4.3-6-4.2-4.2.5-2 1.7-3 2.3-.6-1.1-4-3.1-10.4-3.3-1.2 1.5 4.2 2.2 4.6 3.8-4.8-.2-8.7-.5-12.2.7-8.5-1.3.5-2.1-4.6-3.8-13.1 1-1.4 5.1-6.2 8.2a89 89 0 0 0 3.2.6c-5.2.1-10.4 0-14-.7-6.5 1.7-1.4 3.2-10.5 4.4l-4.8-3c-8.4 1.2-13.5.2-22.3 2.5l5 1 45.9 1c.7-1 7.1-1.8 6.3-3l18.9 1.3c-2.4-.5-6.4-1-10.9-1.5 8.5-1.2 8.8-3.7 21.2-3.6l.2.9c32.3-4 73.3-1 109.6-2.6-2.5-.2-1.8-.9-2.7-1.5 19 0 39.7.3 59.3-.5 19.6-.8 38.3-2.8 53.3-6.7-10.3.5-24.2-.3-38.2-.9-13.9-.5-27.9-.6-38.4 2-5.6-1.8-13.3-.8-18.4-1.3 17.7-.3 41-3.9 57-3-2-2.5-16.4 0-22.6-.7l13.7-2.7-22.8 1c.4-.7.3-1.3.3-1.9-.5 1.3-6.2 2.6-10 4-6.8.8-13.9 1.1-20.3 1.7-29.8-2.3-42.2 2.7-71 1.8-2-.4-2.5-1-2.6-1.6l-2.2.3-.9-2c1.6.4 2.8.9 3 1.4 0-.5 0-1.1-.4-1.8l4.9-.1c3.2 1 .8 3.3 8 3.9-3.9-.5-.4-2-5-2.2.7-1 5.5-1.7 10.7-2.1l4.3-.1-.6-.1 3.3-.1c28.3-.5 50.9-4.9 78.8-3.4.1-.6.6-1.2 2.6-1.7 28.7-2.9 41.4 1.3 71-3.1 3-3.5 15.2-1.5 22.7-4.4 10.7 1.8 24.6.7 38.5-.7 13.9-1.5 27.7-3.4 38-3.5l-5.1-.9a76 76 0 0 0 14.6-2.2c-5.9.3-15.7-1.3-21.7.5-2.2-.7-5.6.3-6.5-.7-3.7-.2-6.4 0-9 .4a178 178 0 0 0-10.4-.3l4.9-.4-4-.4c1.7-.4 5.9-.1 6.4-1-5.7 1-14.7.2-19.6 1.5 2.3.3 5.2 0 8 0l.9.3a439 439 0 0 0-12.1.1l-16 .7.1-.2-.2.2-5.2.3h-2l-.7.1c-.7-.6 1.2-1 3.3-1-2.6-.3-2.8.7-4.9.7l2-1.5c-2.2 1.4-4-.2-5.2-.7-.1.4 1 1.5-1.7 1.4-1.2-.2-.6-.6-.9-.8-.1.4-1.1 1-2.9 1-.3-.4 1.2-.6 1.3-1.1-1.3 0-2.5 0-3.4-.3-2.4.4.1.7-1.4 1.2-3.7-.3-.3-1.7-1.7-2.7 2.8-.7 6.4-1 7.9-1.3l-5.4.4c.4-.6-3.6-1-.8-1.6-5.3-.5-11.7.1-16.8.6.7.2 1.6.3 1.5.7-2.7.3-2.4-.4-3-.8-1.9.4-1.7 1.4-2.9 2.1-4-.8-4.6-.3-8-1.5l.2 1c-2.4-.8-2.8.7-5.4 0-.1-.1.9-.4 1.7-.6-2.3.3-2.2-.8-4.4-.5l1.8-1c-1.8 0-4.5.3-3.6-.6-3.1 1.1-8.6.7-12.6 1.3l.3-.8c-2 1-7.5 0-9.3 1.1l-.3-.3-4 1.1c-1.9 0-1.2-1.3-1.4-1-4 .2-7.2.3-9.8-.1-.6 1.1-4.9 1.4-8.2 1.6-3.6-.2-7.2-.2-10.8-.2l110.7-10.5c2.5 1.2 4.2.1 6.6-.6l5.3-.5h.7c1.4.7-4.7 1.7 1.3 1.7l-.4-.8c8.2.2 13.1 2.3 19.8 2.7 1-2.6-5.8-3.4-12.7-4.5l8.5-.8a56.6 56.6 0 0 0 3.3 0 9.7 9.7 0 0 0 .5-.3l4.6-.5h1c-.4 0-.6.2-.2.7 1.6 1 4.6.5 5.3 1.9-3.7 1.3-2.8.9-7.9.6.6 1.1 3 1.7.8 2.7 12.6 1.2 25-3.5 35.4-.5-1.6-2 13.2-2 5-3.3l-.6 1.1c-6.7 1-14.8-2-16-3.3 12.8 1.4 14.8 0 28.7.2-5.5-2.2 7.9-.8 4.6-2.7 3.2-.3 6.8.2 9.3-.2-7.1 2.2 5.6 2.2 4.4 4.1-4.3.3-8.8-1-9.1-2.6-2.8 0-2.5 1.6-2 2.7l-12.7 1c11-.1 0 5.3 9.9 4 2.5-.4-.4-2.9 6.5-2.3 1.2 0 1.5.4 1.3.8 2.7-.8 5.8-1.5 10-.8 0-.8-1.6-2 3.6-2.1 7.2 0 3.4 3.2 4.8 3.8l-1.5.3c3.3.5.6 2 5.6 3.1-1.4-.5-.2-1.4 3.2-1.2 4.8 1-4.3 5 3.3 3.8-1.4 0-1.8-.7.5-.8 10.7 1.3-1 2.3 1.8 4.5 8.9 0 6.5.7 15.4.7-5.5 0-1.6-1.9-5.8-2.5 6.1-.1 5.3-.7 8.8-1.5l.3.1c-2.8 2.1 3.1 2.3 2.9 3.3l1-.2c-.8-.4-1.7-.9-2.4-1.7l3.7-.8h.2l1-.3c1.2 0 2.5.4 3.1.6l1-1 2 .6c-.3.2-.5.5-.4 1l2.2-.2.4.4-.1-.4c5.5 0 2.8 2.4 7.9 1.5l.5-.2c2-.2 4.2-.4 4.8.2-1 .2-1.4.6-1.8 1 8.4.2 1.8-3.2 9.3-3.3l-.1.7 1.9-.7 2 .8c2.6-2.2 10.4.2 15-1 1.7-.1 4 1.2 7.4 1l-.2-1c2.7 1 12.8 1.7 15.3 4 2.6-.8-.2-.2-.2-1 5-1 5.3.5 8 1 3-.4-2.4-.3-.7-1 4.7.7 3.8-1.3 9.6-.6.6.5-1.5.4-2.1.7 4-1 11.7-.3 17.8-.5 7 .7 17.2 1 25.3 1.8l.1-.3c3.4.9 7 0 11 .4l-2-.5c2.7-.6 4.1-.2 6.6-.5l1.3 1c2.7-.3 1.2-.8 3.1-1.4 2.4.7 7.5 0 8.6.1.8.5-1 .7-1.3 1 3-.4 2.8-1.4 6.7-1.4v.3c9.2-1.5 20.9-1 31.1-2-.7 0-.5-.3-.8-.5 10.8-.4 23.2-.4 31.8-2.9-5.9.3-15.7-1.3-21.7.5-2.2-.7-5.6.3-6.5-.7-8.5-.5-11.9 1.4-20 1.4-1.2-.2-.7-.7-1-1.2l6.5-.5-4-.4c1.7-.4 5.9 0 6.4-1-5.7 1-14.7.2-19.6 1.5 2.3.3 5.2 0 8 0 1.1.4 3 .6 2.9 1.1-7.9 1.5-14.4.8-22.4 1.2-2 .1-4.8 0-5.1-.4 1.3-.2.3-.6 1.4-.8-2.9.4-.3 1.7-4.4 1.5l.5-1.7c-1.6 1.8-5-.3-8 .8-1-.7.9-1.1 3.2-1.2-2.6-.3-2.8.7-4.9.7l2-1.4c-2.2 1.4-4-.3-5.2-.8-.1.4 1 1.5-1.7 1.4-1.2-.2-.6-.6-.9-.8-.1.4-1.1 1-3 1.1-.2-.5 1.3-.7 1.4-1.2-1.4 0-2.5 0-3.5-.3-2.4.4.2.7-1.3 1.2-3.7-.3-.3-1.7-1.7-2.7a18.2 18.2 0 0 0 3.8-.7l4-.6-2.7.2c2.9-1 5.3-2 10.2-1.2l-1-2.8c12.4 2.4 14.3.7 28.7 1.7 4-2.6 3-5.4 9.7-7.3 2 1 1.2 3.3 10.4 1.4.4-1.2-3-1.2-5.5-1.6 17.8-3.1 40.2-7.3 59-7.6-3.6 1-3.9 1.6-2.9 2a29.1 29.1 0 0 1-1.9.5h3.4c2.1.5 5.2 1 4.7 1.8l3.3-.5 1.5.6-.9-.7 2.4-.4c.6 0 1 .3 2.5-.3v.6a208 208 0 0 0-17.3 4.3c1.2.7 1.5 1.5 1.4 2.3 2.8-.2 5.6 1.2 9.3.2.3.4 1.2.8 2.2 1.2 3.1.3 6.5-.2 10.5-.7-.2 1-2.5 1.9-3.7 2.7.7.4 1.2.8 1 1.2 5.3-1 8-3 8.4-4 1 .5-1 1.8 3.2 2 9.7-.8 5.3-3.7 5.7-4.8 4.5 1 11 5.4 18.3.6l-6.4 5c7.1-.6 7.7-3.6 16.8-3.4-8 .7-14.7 2.5-10.8 4.2 10-4 22.4 1.7 27.9-4l-1.6 5.2h1.1l.5-.8 6.2-.2c.6-.1 1-.7 1.6-1.3.6-1-.2-4.4 2.5-6l.9.5c0 .3.2.7 0 .8.5 0 .9-.2 1.4-.4 1-.1 1-.2.9-.3l2.7-1c1.1-.3 2.3-.7 5.3-.3.6.5-1.5.3-2 .7 4-1 11.6-.4 17.7-.6 7 .7 17.2 1 25.3 1.9l.2-.4c3.3 1 7 0 11 .5l-2-.5c2.6-.6 4-.3 6.5-.5l1.3 1c2.7-.3 1.2-.9 3.1-1.4 2.4.7 7.5 0 8.7.1.7.5-1 .7-1.4 1 3-.4 2.9-1.4 6.7-1.4v.3c9.3-1.5 21-1.1 31.1-2-.7 0-.5-.3-.8-.5 10.8-.4 23.3-.4 31.8-2.9-5.8.3-15.7-1.4-21.6.5-2.2-.8-5.6.3-6.5-.7-8.5-.5-12 1.4-20.1 1.4-1.2-.2-.6-.7-1-1.2l6.5-.5-4-.4c1.8-.5 6-.1 6.4-1-5.7 1-14.7.2-19.6 1.5 2.3.2 5.2 0 8 0 1.1.4 3 .6 2.9 1.1-7.8 1.5-14.3.7-22.4 1.2-2 .1-4.8 0-5.1-.5 1.3-.1.3-.5 1.4-.8-2.8.4-.3 1.8-4.4 1.6l.5-1.7c-1.6 1.8-5-.3-8 .7-1-.6 1-1 3.2-1-2.6-.4-2.8.6-4.9.6l2-1.5c-2.2 1.4-4-.2-5.2-.7-.1.3 1 1.5-1.7 1.4-1.2-.2-.6-.6-.8-.8-.2.4-1.2 1-3 1-.3-.4 1.2-.7 1.3-1.2-1.3 0-2.4.2-3.4-.3-2.4.5.1.8-1.3 1.3-3-.3-1.5-1.2-1.4-2 .4-.2.8-.4 1-.7 9.3-1.4 21.9.7 26.8-.6a22 22 0 0 0 5.3 1.7c5.2-.4 10.4-1 15.9-1.7.1.6.6 1.1 2.7 1.4 28.8.3 41-5 71-3.4 3.2 3.2 15.2 0 23 2.2a71 71 0 0 1 8.7-1.6c0-.9 1.4-1.7 5.1-2.6 4.1 1.3 2.2-.5 5.5-1 3.9.6 4.5 1.4 6.2 2.4h11.3c-.2-1.3-11.2-1.7-1.3-3.1l3.4 2.6c2.5-3 9.6-4 17-3.5-1.4-.9-1.8-1.8-.1-2.8-.3 2.2 9.6.3 7.6 2.8-1.6.2-3.6-1.1-5.8 0 4.3-.5 3.6.4 6.8 1a7 7 0 0 0 2.2-1c.3-.4.2-.6 0-.8zM115.2 87.6c.5.9 3.7.7 2.5 1.5l-5.2.4c.3-.6-3.6-1-.8-1.6h-1.3c1.6-.3 3.3-.6 4.8-.3zm62.5 5.4c-4.4.4-7.8 1.3-13.4 1.3-1.2-.2-.6-.7-1-1.2l6.5-.5-4-.4c1.8-.5 6-.1 6.4-1-5.6 1-14.7.2-19.6 1.5 2.3.2 5.2 0 8 0 1.2.4 3 .6 3 1.1-8 1.5-14.4.8-22.5 1.2-2 .1-4.7 0-5-.4 1.2-.2.2-.6 1.3-.9-2.8.5-.3 1.8-4.4 1.6l.6-1.7c-1.7 1.8-5.1-.3-8 .8-1.1-.7.9-1.1 3.1-1.2-2.6-.3-2.8.7-4.8.7l2-1.5c-2.3 1.4-4-.2-5.2-.7-.2.4 1 1.5-1.8 1.4-1.1-.2-.5-.6-.8-.8-.2.4-1.2 1-3 1-.3-.4 1.2-.7 1.4-1.2-1.4 0-2.5.2-3.5-.2-2.4.4.2.7-1.3 1.2-3.7-.4-.4-1.7-1.7-2.7 2.6-.7 6-1 7.6-1.3h-.1c.6-.2 2.9-.4 2.2-1.2-.3.3-.6 0-1.2.1l.5-1.2c1.7.5 3.6-1 5.2-.3.5 1-3 .6-2 1.8 1.6-1.8 7.8-2.6 9.8-1.9 1.4.3 1.5 1.8 2 2l2.3-.2c.3.5.3 1 .7 1.7 1.2.3 2-.2 2.6-.4 3 1 1.4 2.2-.1 3.2l-1.7-.5c-1.2.6-3 .4-2 1.7 1-.1.9-.7 1.2-1l1 .8c1-.6 3.7-1 3.4-2 2 .7 4.2-.2 6 .7-1.2-.7.3-1.1 0-2l-2.1-.3c1.6-.3 4.1-1 5.7-.4-.2.7-.3 1 .6 1.6-1.2-1 3-1.2.4-2.4-.9.4-1.7.5-2.9.4-.8-1.4 1-1.6 2.1-2.4 1.3-.3 3.9-.8 5.6-1.3 1.1.3 1.5 2 3.4 1-2.4-1.4 2.3-2.3 2.9-3.7 1.8.6 3-1.2 4.4 0-.7.4-3.5.4-4.3 1.5 0 1 .7 2.7-2.1 3.2 3.3.5 2-.9 3.5-1.3l-1.2.2c.6-.5-.4-1.2.6-1.3 4 .4 4.6 1.5 7.2 2.8-.6-.7.7-1.4 1.3-1.5 2 .8.7 1.8 1 3l-.1-.3-3.8.6c1.5.7 2.3.1 4.3.3l.1.1c.9-1 2.6-.7 2-1.4 1 0 .5.4 1.3.7.6-.9 1.4-1.4 2.8-1.3-.2.4-.4 1-1.7.8 1.5.4 2 2 1.4 2.8l-2.4-.6c-1.2 1 2.2.5 2.1 1.5-1 .2-1.9-.4-2.5-.1.1.2.4.3.6.4zm3.3-.5c.6 0 .9.1 1.1.3a45.4 45.4 0 0 0-3 0c.7 0 1.4-.3 2-.3zm26-22.6a2.7 2.7 0 0 0 .3-.5h.7l-1 .5zm12.1 1.2c-2-.2-4.6-.1-6.3-.6 1-.5 1.3-1.2 1-1.8l6.2-.8 1.5.7c-2.2-.4-1.7 1.6-2.4 2.5zm33.3-.2c-2.3-.1-5 0-6.5 1.5l.6-2-2.5.2c-1.8-1.2 2.2-1.3 3.5-1.4-3.4-.2-5.6 0-8.7 0 .9.4.4.8.8 1.4-1 .9-2.5.3-3.6.5-.2-.5 0-1 .8-1l-2.1.2c.1-1.3-.9-1.2 1.2-2l-2 .3c-2-.3.1-1 .7-1.4l-3.4-.2c-1.2.7.7 1-1.6 1.4-2.2-.7-4.8-.8-7.3-.8 4.8-.8 9.3-1.7 12.8-3-3 3 6.2 1.3 12.5.7l-6 3.8c7.8-1.7 7.4 1.8 15.5.2-1.6.5-3.6 1.1-4.7 1.6zm4.1 2.5c.8-1.4-.4-1.1-1.2-1.5a18.4 18.4 0 0 0 3.8-.6c0 .4.2.8 1.2 1a8 8 0 0 0-3.8 1zm7-2.7c-1.1 0-1.3-.1-1.2-.4a18 18 0 0 1 2-.5c-.2.4-.4.7-.8 1zm6-3.5h.4-.4zm.6 1.6-.4-1c.6 0 1.2 0 1.8-.3l1.8.4c-.9.5-1.7 1-3.2 1zm376.8-19v.7l1.8-.7 2 .8c2.7-2.2 10.5.2 15-1 1.7-.1 4 1.2 7.4 1l-.2-1c1.7.6 6 1.1 9.8 2-24.4 1.7-48.8 3.8-69.8 2.7l-.1.8c-13.4 1.1-12.9-2-23.7-2.2 1.4.8 7.6 1 5 2.5-4 .5-21.7-.1-30 2.2-6.7-1.2-1.7-3-10.9-3.7l-4.5 3.3c-8.5-.5-13.5.8-22.4-1l4.8-1.1 76.9-7.3c2 .4 3 1.4 5 2l-1.2-1c3.4-.7 2.4.6 5.1-.4l-.1 1.6c1-.8 3.4-.2 4.4.2l.8-1c2.2.6 3.6.8 4.3 1.8l-.2-1c.8.6 8.3-.1 5.8 1.6.6-.3 1.2-.8 2.6-.7l.2 1c2-.2 4.2-.4 4.7.1-1 .3-1.4.7-1.8 1.1 8.5.2 1.8-3.2 9.3-3.3zm261.6-7.6.2-.1-.2.1zm.3-3.4a3 3 0 0 1 1-.9c7.7-1.2-3.8-3 5.2-2.6-.2 1.3 1.3 2.1 3.2 2.8l-9.4.7zm29.2-1.5c-.9-1.6-.2-3.4-8.1-3.3 5-3 10.6 0 17.4-.9l-3 .7c.6 0 1.7 0 2.1-.2 2 1.6-6.2 1.8-5.3 3.6l3.3-1.2c0 .7 4 .8 4.5 1.3h-11zm34.4-.3c-.3 0-.4-.1-.5-.2l.6-.4-.1.6zm50-.5c-2.7.3-2.4-.4-3-.8-1.9.4-1.6 1.4-2.8 2.1-4-.8-4.6-.3-8-1.5l.1 1c-2.4-.8-2.8.7-5.4.1-.1-.2.9-.5 1.7-.7-2.3.3-2.2-.8-4.4-.4l1.8-1.2c-1.7 0-4 .4-3.7-.3a77 77 0 0 0 17.1-4c-1.9 2 1.2 2 5.3 1.4 0-.3.5-.6 1.3-.8 1.5 0 2.7 0 3.6.2l2.4-.3-1 .6c2.7.8 2.1 2.4 5.8 3.1-4.2 0-8.6.5-12.3.8.7.2 1.6.3 1.5.7zm15-1.3h-.4l1-.2-.6.2zm230.5-16.7-3-.5c1.2-.3 2.5-.3 3.8-.3l-.8.8z"/></svg>