<svg xmlns="http://www.w3.org/2000/svg" xmlns:xlink="http://www.w3.org/1999/xlink" preserveAspectRatio="none" viewBox="0 0 1500 150"><g fill="#d3d3d3"><path d="M46.79 34.86A36.07 36.07 0 0 0 82.79 0h-7.1c-.61 15.41-13.34 27.76-28.9 27.76S18.5 15.41 17.88 0h-7.1a36.07 36.07 0 0 0 36 34.86zm0-12.2A23.82 23.82 0 0 0 70.59 0H22.97a23.83 23.83 0 0 0 23.8 22.67zm93.59 12.2a36.07 36.07 0 0 0 36-34.86h-7.1c-.62 15.41-13.34 27.76-28.9 27.76S112.07 15.41 111.46 0h-7.1a36.07 36.07 0 0 0 36 34.86zm0-12.2A23.82 23.82 0 0 0 164.18 0h-47.62a23.83 23.83 0 0 0 23.8 22.67zm93.94 12.2a36.07 36.07 0 0 0 36-34.86h-7.1c-.61 15.41-13.34 27.76-28.9 27.76S206.03 15.41 205.42 0h-7.1a36.07 36.07 0 0 0 36 34.86z"/><use xlink:href="#a"/><path d="M327.9 34.86A36.07 36.07 0 0 0 363.9 0h-7.09c-.62 15.41-13.34 27.76-28.9 27.76S299.6 15.41 299 0h-7.1a36.07 36.07 0 0 0 36 34.86zm0-12.2A23.84 23.84 0 0 0 351.72 0H304.1a23.84 23.84 0 0 0 23.8 22.67zm93.95 12.2a36.07 36.07 0 0 0 36-34.86h-7.1c-.61 15.41-13.34 27.76-28.9 27.76S393.56 15.41 392.95 0h-7.1a36.07 36.07 0 0 0 36 34.86zm0-12.2A23.82 23.82 0 0 0 445.65 0h-47.62a23.84 23.84 0 0 0 23.81 22.67zm93.59 12.2a36.07 36.07 0 0 0 36-34.86h-7.1c-.61 15.41-13.34 27.76-28.9 27.76S487.14 15.41 486.53 0h-7.1a36.07 36.07 0 0 0 36 34.86zm0-12.2A23.82 23.82 0 0 0 539.24 0H491.6a23.83 23.83 0 0 0 23.8 22.67zm93.94 12.2a36.07 36.07 0 0 0 36-34.86h-7.1c-.61 15.41-13.34 27.76-28.9 27.76S581.1 15.41 580.48 0h-7.1a36.07 36.07 0 0 0 36 34.86z"/><use xlink:href="#a" x="375.06"/><path d="M702.97 34.86a36.07 36.07 0 0 0 36-34.86h-7.1c-.61 15.41-13.34 27.76-28.9 27.76S674.67 15.41 674.06 0h-7.1a36.07 36.07 0 0 0 36 34.86z"/><use xlink:href="#a" x="468.65"/><path d="M796.9 34.86A36.07 36.07 0 0 0 832.9 0h-7.1c-.61 15.41-13.34 27.76-28.9 27.76S768.62 15.41 768 0h-7.1a36.07 36.07 0 0 0 36 34.86zm0-12.2A23.84 23.84 0 0 0 820.71 0H773.1a23.84 23.84 0 0 0 23.81 22.67zm93.6 12.2A36.07 36.07 0 0 0 926.5 0h-7.1c-.62 15.41-13.34 27.76-28.9 27.76S862.2 15.41 861.6 0h-7.1a36.07 36.07 0 0 0 36 34.86zm0-12.2A23.82 23.82 0 0 0 914.3 0h-47.63a23.84 23.84 0 0 0 23.8 22.67zm93.94 12.2a36.07 36.07 0 0 0 36-34.86h-7.1c-.61 15.41-13.34 27.76-28.9 27.76S956.15 15.41 955.54 0h-7.1a36.07 36.07 0 0 0 36 34.86zm0-12.2A23.83 23.83 0 0 0 1008.24 0h-47.62a23.83 23.83 0 0 0 23.8 22.67zm93.59 12.2a36.07 36.07 0 0 0 36-34.86h-7.1c-.62 15.41-13.34 27.76-28.9 27.76s-28.3-12.35-28.91-27.76h-7.1a36.07 36.07 0 0 0 36 34.86zm0-12.2A23.84 23.84 0 0 0 1101.83 0h-47.61a23.84 23.84 0 0 0 23.8 22.67zm93.94 12.2a36.07 36.07 0 0 0 36-34.86h-7.1c-.61 15.41-13.34 27.76-28.9 27.76s-28.29-12.35-28.9-27.76h-7.1a36.07 36.07 0 0 0 36 34.86zm0-12.2A23.82 23.82 0 0 0 1195.77 0h-47.62a23.83 23.83 0 0 0 23.8 22.67zm93.59 12.2a36.07 36.07 0 0 0 36-34.86h-7.1c-.61 15.41-13.34 27.76-28.9 27.76S1237.27 15.41 1236.65 0h-7.1a36.07 36.07 0 0 0 36 34.86zm0-12.2A23.84 23.84 0 0 0 1289.36 0h-47.61a23.84 23.84 0 0 0 23.8 22.67zm93.94 12.2a36.07 36.07 0 0 0 36-34.86h-7.1c-.61 15.41-13.34 27.76-28.9 27.76S1331.21 15.41 1330.6 0h-7.1a36.07 36.07 0 0 0 36 34.86zm0-12.2A23.84 23.84 0 0 0 1383.31 0h-47.62a23.84 23.84 0 0 0 23.81 22.67zm129.14 6.54a20.71 20.71 0 0 0 11.36 3.6V0h-6.9c-.63 21.54-18.33 38.86-40.01 38.86S1413.7 21.53 1413.08 0h-13.57c-.63 21.54-18.32 38.86-40 38.86S1320.1 21.53 1319.49 0h-13.92c-.63 21.54-18.33 38.86-40 38.86s-39.4-17.33-40.02-38.86h-13.57c-.63 21.54-18.33 38.86-40.01 38.86s-39.38-17.33-40-38.86h-13.94c-.62 21.54-18.32 38.86-40 38.86s-39.4-17.33-40.01-38.86h-13.57c-.63 21.54-18.32 38.86-40 38.86s-39.4-17.33-40-38.86h-13.93c-.63 21.54-18.33 38.86-40 38.86S851.12 21.54 850.49 0h-13.57c-.63 21.54-18.33 38.86-40 38.86S757.51 21.53 756.9 0h-13.93c-.62 21.54-18.32 38.86-40 38.86S663.57 21.54 662.95 0h-13.57c-.63 21.54-18.33 38.86-40.01 38.86s-39.39-17.33-40-38.86h-13.93c-.62 21.54-18.32 38.86-40 38.86S476.04 21.53 475.42 0h-13.57c-.63 21.54-18.33 38.86-40.01 38.86s-39.38-17.33-40-38.86H367.9c-.62 21.54-18.32 38.86-40 38.86S288.51 21.53 287.9 0h-13.57c-.63 21.54-18.33 38.86-40.01 38.86S194.93 21.53 194.3 0h-13.93c-.62 21.54-18.32 38.86-40 38.86S101 21.53 100.36 0H86.8c-.63 21.54-18.33 38.86-40 38.86S7.4 21.54 6.78 0H0v32.8a20.72 20.72 0 0 0 11.3-3.54 47.98 47.98 0 0 0 5.88 5.77A28.73 28.73 0 0 1 0 40.94v7.1a35.88 35.88 0 0 0 23.25-8.79 46.48 46.48 0 0 0 23.54 6.35 46.5 46.5 0 0 0 23.27-6.2 35.88 35.88 0 0 0 23.4 8.65c8.97 0 17.19-3.3 23.5-8.73a46.4 46.4 0 0 0 23.43 6.28c8.44 0 16.54-2.23 23.63-6.4a35.9 35.9 0 0 0 23.62 8.85 35.9 35.9 0 0 0 23.4-8.65c7 4.04 14.98 6.2 23.3 6.2s16.27-2.16 23.28-6.2a35.88 35.88 0 0 0 23.4 8.65c8.96 0 17.18-3.3 23.49-8.73a46.39 46.39 0 0 0 23.43 6.28c8.44 0 16.54-2.23 23.64-6.4a35.87 35.87 0 0 0 23.62 8.85 35.9 35.9 0 0 0 23.4-8.65c7 4.04 14.97 6.2 23.3 6.2s16.26-2.16 23.27-6.2a35.88 35.88 0 0 0 23.4 8.65c8.97 0 17.18-3.3 23.5-8.73a46.39 46.39 0 0 0 23.42 6.28c8.44 0 16.54-2.23 23.64-6.4a35.9 35.9 0 0 0 23.62 8.85 35.87 35.87 0 0 0 23.4-8.65c7 4.04 14.98 6.2 23.3 6.2s16.27-2.16 23.27-6.2a35.88 35.88 0 0 0 46.9-.08 46.39 46.39 0 0 0 23.42 6.28c8.45 0 16.55-2.23 23.64-6.4a35.87 35.87 0 0 0 47.02.2c7 4.04 14.98 6.2 23.3 6.2a46.5 46.5 0 0 0 23.27-6.2 35.88 35.88 0 0 0 23.4 8.65c8.97 0 17.18-3.3 23.5-8.73a46.39 46.39 0 0 0 23.42 6.28c8.45 0 16.55-2.23 23.64-6.4a35.9 35.9 0 0 0 23.62 8.85 35.9 35.9 0 0 0 23.4-8.65c7 4.04 14.98 6.2 23.29 6.2s16.27-2.16 23.27-6.2a35.87 35.87 0 0 0 46.89-.08 46.4 46.4 0 0 0 23.42 6.28c8.45 0 16.55-2.23 23.64-6.4a35.9 35.9 0 0 0 23.62 8.85 35.9 35.9 0 0 0 23.4-8.65c7 4.04 14.98 6.2 23.3 6.2 8.3 0 16.27-2.16 23.28-6.2a35.88 35.88 0 0 0 23.4 8.65c8.96 0 17.18-3.29 23.49-8.73a46.39 46.39 0 0 0 23.42 6.28c8.45 0 16.55-2.23 23.64-6.4a35.87 35.87 0 0 0 23.62 8.85 35.86 35.86 0 0 0 23.4-8.65c7 4.04 14.98 6.2 23.3 6.2s16.27-2.16 23.27-6.2a35.82 35.82 0 0 0 23.4 8.65c8.97 0 17.18-3.29 23.49-8.73a46.39 46.39 0 0 0 23.43 6.28c8.44 0 16.54-2.23 23.63-6.4a35.89 35.89 0 0 0 23.28 8.84v-7.1a28.85 28.85 0 0 1-17.23-5.96 47.71 47.71 0 0 0 3.39-3.08 49.22 49.22 0 0 0 2.48-2.7zM93.45 40.95a28.77 28.77 0 0 1-17.27-5.74 47.48 47.48 0 0 0 3.68-3.31 46.55 46.55 0 0 0 2.26-2.45 20.7 20.7 0 0 0 11.33 3.37c4.26 0 8.2-1.28 11.5-3.47.75.87 1.53 1.73 2.35 2.55a47.28 47.28 0 0 0 3.56 3.2 28.78 28.78 0 0 1-17.4 5.85zm94.18 0a28.77 28.77 0 0 1-17.58-5.97 47.47 47.47 0 0 0 3.4-3.08 47.73 47.73 0 0 0 2.48-2.7 20.68 20.68 0 0 0 11.7 3.62 20.67 20.67 0 0 0 11.35-3.37c.73.83 1.47 1.66 2.27 2.45a47.48 47.48 0 0 0 3.67 3.3 28.77 28.77 0 0 1-17.29 5.75zm93.36 0a28.77 28.77 0 0 1-17.28-5.74 47.69 47.69 0 0 0 3.68-3.31 47.75 47.75 0 0 0 2.26-2.45A20.69 20.69 0 0 0 281 32.83a20.68 20.68 0 0 0 11.49-3.48c.75.87 1.53 1.73 2.35 2.55a45.47 45.47 0 0 0 3.56 3.2 28.78 28.78 0 0 1-17.4 5.84zm94.17 0a28.78 28.78 0 0 1-17.58-5.97 47.73 47.73 0 0 0 3.4-3.08 47.37 47.37 0 0 0 2.48-2.7 20.68 20.68 0 0 0 11.7 3.63 20.69 20.69 0 0 0 11.35-3.38c.73.84 1.48 1.66 2.27 2.45a47.48 47.48 0 0 0 3.67 3.3 28.78 28.78 0 0 1-17.29 5.75zm93.36 0a28.77 28.77 0 0 1-17.28-5.74 47.69 47.69 0 0 0 3.68-3.31 47.75 47.75 0 0 0 2.26-2.45 20.7 20.7 0 0 0 11.34 3.37A20.68 20.68 0 0 0 480 29.35c.75.87 1.53 1.73 2.35 2.55a45.47 45.47 0 0 0 3.56 3.2 28.78 28.78 0 0 1-17.4 5.84zm94.17 0c-6.6 0-12.7-2.23-17.58-5.97a47.71 47.71 0 0 0 3.4-3.08 47.37 47.37 0 0 0 2.48-2.7 20.69 20.69 0 0 0 11.7 3.63 20.67 20.67 0 0 0 11.35-3.38 43.6 43.6 0 0 0 2.27 2.45 47.48 47.48 0 0 0 3.67 3.3 28.77 28.77 0 0 1-17.29 5.75zm93.36 0a28.78 28.78 0 0 1-17.28-5.74 47.48 47.48 0 0 0 3.68-3.31 47.75 47.75 0 0 0 2.26-2.45 20.69 20.69 0 0 0 11.34 3.38c4.25 0 8.2-1.3 11.49-3.48a47.94 47.94 0 0 0 2.35 2.55 47.28 47.28 0 0 0 3.56 3.2 28.77 28.77 0 0 1-17.4 5.85zm94.17 0a28.77 28.77 0 0 1-17.57-5.97 47.71 47.71 0 0 0 3.39-3.08 47.73 47.73 0 0 0 2.48-2.7 20.68 20.68 0 0 0 11.7 3.62 20.68 20.68 0 0 0 11.35-3.37c.73.83 1.48 1.66 2.27 2.45a47.27 47.27 0 0 0 3.67 3.3 28.82 28.82 0 0 1-17.29 5.75zm93.36 0a28.77 28.77 0 0 1-17.28-5.74 47.67 47.67 0 0 0 3.68-3.31 43.65 43.65 0 0 0 2.26-2.45 20.7 20.7 0 0 0 11.34 3.37c4.25 0 8.2-1.28 11.5-3.47.74.87 1.52 1.73 2.35 2.55a47.47 47.47 0 0 0 3.55 3.2 28.77 28.77 0 0 1-17.4 5.85zm94.17 0c-6.6 0-12.7-2.23-17.57-5.97a47.71 47.71 0 0 0 3.39-3.08 47.73 47.73 0 0 0 2.48-2.7 20.68 20.68 0 0 0 11.7 3.63 20.7 20.7 0 0 0 11.35-3.38 48 48 0 0 0 2.27 2.45 47.44 47.44 0 0 0 3.67 3.3 28.78 28.78 0 0 1-17.29 5.75zm93.36 0a28.77 28.77 0 0 1-17.28-5.74 48.09 48.09 0 0 0 3.68-3.31 47.73 47.73 0 0 0 2.27-2.45 20.68 20.68 0 0 0 11.33 3.37c4.25 0 8.2-1.3 11.5-3.48a47.92 47.92 0 0 0 2.35 2.56 45.47 45.47 0 0 0 3.55 3.2 28.77 28.77 0 0 1-17.4 5.84zm94.17 0a28.78 28.78 0 0 1-17.57-5.97 47.71 47.71 0 0 0 3.39-3.08 47.73 47.73 0 0 0 2.48-2.7 20.68 20.68 0 0 0 11.7 3.62 20.7 20.7 0 0 0 11.35-3.37c.73.83 1.48 1.66 2.27 2.45a47.47 47.47 0 0 0 3.67 3.3 28.77 28.77 0 0 1-17.29 5.75zm93.36 0a28.76 28.76 0 0 1-17.27-5.74 47.64 47.64 0 0 0 3.67-3.31 47.75 47.75 0 0 0 2.27-2.45 20.7 20.7 0 0 0 11.33 3.37 20.69 20.69 0 0 0 11.5-3.48c.75.88 1.52 1.73 2.35 2.56a47.9 47.9 0 0 0 3.55 3.2 28.78 28.78 0 0 1-17.4 5.85zm94.17 0c-6.6 0-12.7-2.23-17.57-5.97a47.51 47.51 0 0 0 3.4-3.08 43.6 43.6 0 0 0 2.47-2.7 20.68 20.68 0 0 0 23.05.25c.73.84 1.48 1.66 2.27 2.45a47.44 47.44 0 0 0 3.67 3.3 28.78 28.78 0 0 1-17.29 5.75zm93.36 0a28.77 28.77 0 0 1-17.28-5.74 47.26 47.26 0 0 0 3.68-3.31 47.77 47.77 0 0 0 2.27-2.45 20.7 20.7 0 0 0 11.33 3.37c4.25 0 8.2-1.3 11.5-3.48.75.88 1.52 1.73 2.35 2.56a47.47 47.47 0 0 0 3.55 3.2 28.77 28.77 0 0 1-17.4 5.85zm46.92-6.09a36.07 36.07 0 0 0 36-34.86h-7.1c-.61 15.41-13.34 27.76-28.9 27.76S1424.8 15.41 1424.19 0h-7.1a36.07 36.07 0 0 0 36 34.86zm0-12.2A23.84 23.84 0 0 0 1476.9 0h-47.62a23.83 23.83 0 0 0 23.8 22.67z"/><circle cx="25.56" cy="48.94" r="3.5"/><circle cx="39.19" cy="52.63" r="3.5"/><circle cx="54.38" cy="52.63" r="3.5"/><circle cx="67.88" cy="48.81" r="3.5"/><circle cx="119.33" cy="48.94" r="3.5"/><circle cx="132.96" cy="52.63" r="3.5"/><circle cx="148.14" cy="52.63" r="3.5"/><circle cx="161.64" cy="48.81" r="3.5"/><circle cx="213.1" cy="48.94" r="3.5"/><circle cx="226.72" cy="52.63" r="3.5"/><circle cx="241.91" cy="52.63" r="3.5"/><circle cx="255.41" cy="48.81" r="3.5"/><circle cx="306.87" cy="48.94" r="3.5"/><circle cx="320.49" cy="52.63" r="3.5"/><circle cx="335.68" cy="52.63" r="3.5"/><circle cx="349.18" cy="48.81" r="3.5"/><circle cx="400.63" cy="48.94" r="3.5"/><circle cx="414.26" cy="52.63" r="3.5"/><circle cx="429.45" cy="52.63" r="3.5"/><circle cx="442.95" cy="48.81" r="3.5"/><circle cx="494.4" cy="48.94" r="3.5"/><circle cx="508.03" cy="52.63" r="3.5"/><circle cx="523.21" cy="52.63" r="3.5"/><circle cx="536.71" cy="48.81" r="3.5"/><circle cx="588.17" cy="48.94" r="3.5"/><circle cx="601.79" cy="52.63" r="3.5"/><circle cx="616.98" cy="52.63" r="3.5"/><circle cx="630.48" cy="48.81" r="3.5"/><circle cx="681.94" cy="48.94" r="3.5"/><circle cx="695.56" cy="52.63" r="3.5"/><circle cx="710.75" cy="52.63" r="3.5"/><circle cx="724.25" cy="48.81" r="3.5"/><circle cx="775.71" cy="48.94" r="3.5"/><circle cx="789.33" cy="52.63" r="3.5"/><circle cx="804.52" cy="52.63" r="3.5"/><circle cx="818.02" cy="48.81" r="3.5"/><circle cx="869.47" cy="48.94" r="3.5"/><circle cx="883.1" cy="52.63" r="3.5"/><circle cx="898.28" cy="52.63" r="3.5"/><circle cx="911.78" cy="48.81" r="3.5"/><circle cx="963.24" cy="48.94" r="3.5"/><circle cx="976.87" cy="52.63" r="3.5"/><circle cx="992.05" cy="52.63" r="3.5"/><circle cx="1005.55" cy="48.81" r="3.5"/><circle cx="1057.01" cy="48.94" r="3.5"/><circle cx="1070.63" cy="52.63" r="3.5"/><circle cx="1085.82" cy="52.63" r="3.5"/><circle cx="1099.32" cy="48.81" r="3.5"/><circle cx="1150.78" cy="48.94" r="3.5"/><circle cx="1164.4" cy="52.63" r="3.5"/><circle cx="1179.59" cy="52.63" r="3.5"/><circle cx="1193.09" cy="48.81" r="3.5"/><circle cx="1244.54" cy="48.94" r="3.5"/><circle cx="1258.17" cy="52.63" r="3.5"/><circle cx="1273.35" cy="52.63" r="3.5"/><circle cx="1286.85" cy="48.81" r="3.5"/><circle cx="1338.31" cy="48.94" r="3.5"/><circle cx="1351.93" cy="52.63" r="3.5"/><circle cx="1367.12" cy="52.63" r="3.5"/><circle cx="1380.62" cy="48.81" r="3.5"/><circle cx="1432.08" cy="48.94" r="3.5"/><circle cx="1445.7" cy="52.63" r="3.5"/><circle cx="1460.89" cy="52.63" r="3.5"/><circle cx="1474.39" cy="48.81" r="3.5"/></g><defs><path id="a" d="M234.32 22.67A23.84 23.84 0 0 0 258.12 0h-47.61a23.84 23.84 0 0 0 23.8 22.67z"/></defs></svg>