<svg xmlns="http://www.w3.org/2000/svg" preserveAspectRatio="none" viewBox="0 0 147.6 1500"><path fill="#d3d3d3" d="M0 1500h78.5s8-11.5 29-10.5 26-9 26-18-19-7-30-6-18-21-3-20 22 0 23-9-19 2-39-3-61-28-50-35 43-3 55 0 18-6 18-6 19-14 27-14 20-13 8-15-19-12-37-17-47-10-43-22 28-5 34-16-2-21-16-21-29-11-21-13 40 2 37-16-22-7-22-16 17-13 29-12 17-5 10-8-20 0-33-1-2-12 30-9 32-12 32-19-63 2-85-3 7-6 23-6 33 0 33-3-9-9-25-7-17-9-21-15-45-6.1-46-12 33-3 44-3 17-6 23-14 15-23 26-24 9-22-5-20-23-9-23-14-28.9-20.3-29-27 22-6 32-3 37 1 37-13-47-6-68-6-56-7-24-7 51-2 68 0 42-1 37-14-41-3-65-2-45 2-36-1 42-1 46-10 22-14 20-23-33-17-35-24c-1.7-6-26-8-23-15s31-3 26-8c-6-6 0-13 7-21s-9-29-16-39 16-19 24-20 2-17-12-17-35-15-22-18 29-5 42-1 27 3 26-9-11-15-25-12-51.5 8.3-53-3 25-9 31-14 40-5 52-8-1-19-6-18-20.9-2.3-33.7-2c-33 .7-37.3-16-37.3-16 16-3 17.7-20.3 34.7-21.3s19.6-.7 30.6 1.3 17.7-2 17.7-11-16-16-25-14-37 1-34-8 31-8 40-10 4-10-4-10-35 2-41 1-18-13 11-12 49 3 64-5-15-20-37-15-57.5.8-58-4c-2-21.5 37-15 53-15s29 1 29-10-18-6-29-6-53.9-.3-55-10 21-8 23-15 33-15 35-24-16-14-20-23-14-5-23-8-11-4 13-3 60 11 65-2-20-16-37-14-36 0-68 0 3-7 24-7 68 3 68-11-27-11-37-8-32-3-32-3c18 0 29-22 29-27s9-16 23-14 16-19 5-20-20-9-26-17-12-21-23-21-43 3.6-44-3 42-6 46-12 5-17 21-15 25-4 25-7-17-3-33-3-45-1-23-6 85 4 85-3 0-22-32-19-43-8-30-9 26 2 33-1 2-9-10-8-29-3-29-12 19 2 22-16-9-17-17-19-13-10 1-10 32-11 26-22-40-3-44-15 8.3-22.7 43.7-24.7c18.6-1 15.3-11.3 27.3-13.3s9-16 1-16-17.2-14-27.7-20.7c-10.4-6.5-41-10.3-52-17.3s9.7-12 29.7-17 40 6 39-3-8-10-23-9-8-21 3-20 30 3 30-6-5-19-26-18S78.5 0 78.5 0H0z"/></svg>