<svg xmlns="http://www.w3.org/2000/svg" preserveAspectRatio="none" viewBox="0 0 1500 150"><path fill="#d3d3d3" d="M0 0v78.5s11.5 8 10.5 29 9 26 18 26 7-19 6-30 21-18 20-3 0 22 9 23-2-19 3-39 28-61 35-50 3 43 0 55 6 18 6 18 14 19 14 27 13 20 15 8 12-19 17-37 10-47 22-43 5 28 16 34 21-2 21-16 11-29 13-21-2 40 16 37 7-22 16-22 13 17 12 29 5 17 8 10 0-20 1-33 12-2 9 30 12 32 19 32-2-63 3-85 6 7 6 23 0 33 3 33 9-9 7-25 9-17 15-21 6.1-45 12-46 3 33 3 44 6 17 14 23 23 15 24 26 22 9 20-5 9-23 14-23 20.3-28.9 27-29 6 22 3 32-1 37 13 37 6-47 6-68 7-56 7-24 2 51 0 68 1 42 14 37 3-41 2-65-2-45 1-36 1 42 10 46 14 22 23 20 17-33 24-35c6-1.7 8-26 15-23s3 31 8 26c6-6 13 0 21 7s29-9 39-16 19 16 20 24 17 2 17-12 15-35 18-22 5 29 1 42-3 27 9 26 15-11 12-25-8.3-51.5 3-53 9 25 14 31 5 40 8 52 19-1 18-6 2.3-20.9 2-33.7c-.7-33 16-37.3 16-37.3 3 16 20.3 17.7 21.3 34.7s.7 19.6-1.3 30.6 2 17.7 11 17.7 16-16 14-25-1-37 8-34 8 31 10 40 10 4 10-4-2-35-1-41 13-18 12 11-3 49 5 64 20-15 15-37-.8-57.5 4-58c21.5-2 15 37 15 53s-1 29 10 29 6-18 6-29 .3-53.9 10-55 8 21 15 23 15 33 24 35 14-16 23-20 5-14 8-23 4-11 3 13-11 60 2 65 16-20 14-37 0-36 0-68 7 3 7 24-3 68 11 68 11-27 8-37 3-32 3-32c0 18 22 29 27 29s16 9 14 23 19 16 20 5 9-20 17-26 21-12 21-23-3.6-43 3-44 6 42 12 46 17 5 15 21 4 25 7 25 3-17 3-33 1-45 6-23-4 85 3 85 22 0 19-32 8-43 9-30-2 26 1 33 9 2 8-10 3-29 12-29-2 19 16 22 17-9 19-17 10-13 10 1 11 32 22 26 3-40 15-44 22.7 8.3 24.7 43.7c1 18.6 11.3 15.3 13.3 27.3s16 9 16 1 14-17.2 20.7-27.7c6.5-10.4 10.3-41 17.3-52s12 9.7 17 29.7-6 40 3 39 10-8 9-23 21-8 20 3-3 30 6 30 19-5 18-26 10.5-29 10.5-29V0H0z"/></svg>