<svg xmlns="http://www.w3.org/2000/svg" preserveAspectRatio="none" viewBox="0 0 1500 150"><path fill="#d3d3d3" d="m455.5 18.5-98 22-164-24L89.7 30.54l69.8 27.96 124-14 168 50 194.58-33.8zm654 38L941.88 83.8l167.62 50.7 133.18-36.02z" opacity=".36"/><g fill="#d3d3d3"><path d="m193.5 16.5 164 24 98-22 376 83.28 284-65.28 178 78L1500 42.67V0H0v42.67z"/><path d="m455.5 18.5-98 22-154.23-22.57L336.5 46.5l143.92-8.59L681.7 68.6z" opacity=".6"/><path d="m831.5 101.78 278-45.28 184 58-178-78z" opacity=".8"/></g></svg>