<svg xmlns="http://www.w3.org/2000/svg" fill="#d3d3d3" preserveAspectRatio="none" viewBox="0 0 143.7 1500"><path d="M66.5 827.4 88 699.2 36.7 934.3c-23.1 106-16 276.1 15.8 378.2l21.5 69-15.2-90.7C39.6 1175.7 43 967.1 66.5 827.4z" opacity=".5"/><path d="M93.8 1500h17.1l-37-118.5L93.9 1500z" opacity=".6"/><path d="M0 1500h93.8L74 1381.5l-21.5-69c-31.8-102-39-272.3-15.8-378.2l51.3-235 14.4-85.7c23.5-139.7 31.2-335 17-433.8L93.9 0H0z"/><path d="M102.4 613.6 88 699.2l32.2-147.1c23.1-106 30.5-273.5 16.4-372.4L110.9 0H93.8l25.7 179.8c14 98.8 6.4 294-17 433.8z" opacity=".5"/></svg>