<svg xmlns="http://www.w3.org/2000/svg" preserveAspectRatio="none" viewBox="0 0 1500 150"><path fill="#d3d3d3" d="M38 39.1c9.5 0 9.5 8 19 8s9.4-8 19-8 9.4 8 19 8 9.4-8 19-8 9.4 8 18.9 8 9.5-8 19-8 9.5 8 19 8 9.5-8 19-8 9.4 8 19 8 9.4-8 19-8 9.4 8 19 8 9.4-8 18.9-8 9.5 8 19 8 9.5-8 19-8 9.5 8 19 8 9.4-8 19-8 9.4 8 19 8 9.4-8 19-8 9.4 8 18.9 8 9.5-8 19-8 9.5 8 19 8 9.5-8 19-8 9.4 8 19 8 9.4-8 19-8 9.4 8 19 8 9.4-8 18.9-8 9.5 8 19 8 9.5-8 19-8 9.5 8 19 8 9.5-8 19-8 9.4 8 19 8 9.4-8 19-8 9.4 8 18.9 8 9.5-8 19-8 9.5 8 19 8 9.5-8 19-8 9.5 8 19 8 9.4-8 19-8 9.4 8 19 8 9.4-8 18.9-8 9.5 8 19 8 9.5-8 19-8 9.5 8 19 8 9.4-8 19-8 9.4 8 19 8 9.4-8 18.9-8 9.5 8 19 8 9.5-8 19-8 9.5 8 19 8 9.5-8 19-8 9.4 8 19 8 9.4-8 19-8 9.4 8 19 8 9.4-8 18.9-8 9.5 8 19 8 9.5-8 19-8 9.5 8 19 8 9.5-8 19-8 9.4 8 19 8 9.4-8 19-8 9.4 8 19 8 9.4-8 19-8 9.4 8 18.9 8 9.5-8 19-8 9.5 8 19 8 9.5-8 19-8 9.5 8 19 8 9.4-8 19-8 9.4 8 19 8 9.4-8 19-8 9.4 8 19 8 9.4-8 19-8 9.4 8 18.9 8 9.5-8 19-8 9.5 8 19 8 9.5-8 19-8 9.5 8 19 8V0H0v39.1c9.5 0 9.5 8 19 8s9.5-8 19-8z"/></svg>