<svg xmlns="http://www.w3.org/2000/svg" preserveAspectRatio="none" viewBox="0 0 47.1 1500"><path fill="#d3d3d3" d="M39 1462c0-9.5 8-9.5 8-19s-8-9.5-8-19 8-9.5 8-19c0-9.4-8-9.4-8-19 0-9.4 8-9.4 8-19s-8-9.4-8-19c0-9.4 8-9.4 8-18.9 0-9.5-8-9.5-8-19s8-9.5 8-19-8-9.5-8-19c0-9.4 8-9.4 8-19 0-9.4-8-9.4-8-19 0-9.4 8-9.4 8-19 0-9.4-8-9.4-8-18.9 0-9.5 8-9.5 8-19s-8-9.5-8-19 8-9.5 8-19-8-9.4-8-19 8-9.4 8-19c0-9.4-8-9.4-8-19 0-9.4 8-9.4 8-18.9s-8-9.5-8-19 8-9.5 8-19-8-9.5-8-19 8-9.4 8-19c0-9.4-8-9.4-8-19 0-9.4 8-9.4 8-19 0-9.4-8-9.4-8-18.9 0-9.5 8-9.5 8-19s-8-9.5-8-19 8-9.5 8-19-8-9.5-8-19c0-9.4 8-9.4 8-19 0-9.4-8-9.4-8-19 0-9.4 8-9.4 8-19 0-9.4-8-9.4-8-18.9 0-9.5 8-9.5 8-19s-8-9.5-8-19c0-9.4 8-9.4 8-19 0-9.4-8-9.4-8-19s8-9.4 8-19c0-9.4-8-9.4-8-18.9 0-9.5 8-9.5 8-19s-8-9.5-8-19 8-9.5 8-19c0-9.4-8-9.4-8-19s8-9.4 8-19c0-9.4-8-9.4-8-18.9 0-9.5 8-9.5 8-19s-8-9.5-8-19 8-9.5 8-19-8-9.5-8-19 8-9.4 8-19c0-9.4-8-9.4-8-19 0-9.4 8-9.4 8-19 0-9.4-8-9.4-8-18.9 0-9.5 8-9.5 8-19s-8-9.5-8-19 8-9.5 8-19-8-9.5-8-19 8-9.4 8-19c0-9.4-8-9.4-8-19s8-9.4 8-19c0-9.4-8-9.4-8-19 0-9.4 8-9.4 8-18.9s-8-9.5-8-19 8-9.5 8-19-8-9.5-8-19 8-9.5 8-19c0-9.4-8-9.4-8-19s8-9.4 8-19-8-9.4-8-19c0-9.4 8-9.4 8-19 0-9.4-8-9.4-8-19s8-9.4 8-18.9c0-9.5-8-9.5-8-19s8-9.5 8-19H0v1500h39c0-9.5 8-9.5 8-19s-8-9.5-8-19z"/></svg>