<svg xmlns="http://www.w3.org/2000/svg" fill="#d3d3d3" preserveAspectRatio="none" viewBox="0 0 133.3 1500"><path d="m49.8 921.4 14-75.7-36.4 86.1a130.3 130.3 0 0 0-.3 87.3l25.3 61.2L46 1015c-2.6-26-.8-68 4-93.6zm51-250.1-14-33.2c-10-24-13.8-64.5-8.3-90l25.8-120.8-47.5 107.4a174.2 174.2 0 0 0-9.6 89.6l20.7 101.3c5.2 25.5 5.6 67.2.9 92.8l-5 27.3 36.8-87.2c10.1-24 10.2-63.2.1-87.2zM124 292.5 112.5 269l3 15.2a272 272 0 0 1-.4 92.6l-10.8 50.6 21.7-49.1a115.2 115.2 0 0 0-1.9-85.7zm-60.6 982.7 11.9-74.6c4.1-25.7-.7-66.4-10.6-90.4l-12.4-29.9 7 70c2.6 25.9-1.1 67.6-8.1 92.6l-17.4 62c-7 25-7 66 .3 91l29.9 104h32.2L66.4 1368c-5.7-25.4-7-67.1-3-92.8z" opacity=".6"/><path d="M0 1500h64l-29.9-104.2c-7.1-25-7.3-66-.2-91l17.4-61.9c7-25 10.7-66.7 8-92.6l-6.9-70-25.3-61.2c-10-24-9.8-63.3.3-87.3l36.4-86 5-27.4c4.7-25.6 4.3-67.3-1-92.8L47.3 624.3c-5.2-25.5-.9-65.9 9.6-89.7l47.5-107.3 10.8-50.6a272 272 0 0 0 .5-92.6l-3.1-15.2-11-22a184.5 184.5 0 0 1-14.8-89.4l3.6-27.6C93.6 104 89 64.3 80.2 41.5L64 0H0z"/><path d="m90.2 129.9-3.5 27.6c-3.3 25.8 3.4 66 14.9 89.4l10.9 22-3.7-18.1a260.8 260.8 0 0 1 1.3-92.5l7.8-33.8c5.8-25.3 3.4-63.7-5.5-85.3L96.3 0H64l16 41.5a214.2 214.2 0 0 1 10.1 88.4z" opacity=".6"/></svg>