<svg xmlns="http://www.w3.org/2000/svg" fill="#d3d3d3" preserveAspectRatio="none" viewBox="0 0 1500 150"><path d="m578.6 49.8 75.7 14-86.1-36.4a130.3 130.3 0 0 0-87.3-.3l-61.2 25.3 65.3-6.5c26-2.6 68-.8 93.6 3.9zm250.1 51 33.2-14c24-10 64.5-13.8 90-8.3l120.8 25.8-107.3-47.5a174.2 174.2 0 0 0-89.7-9.6L774.4 67.9a291.4 291.4 0 0 1-92.8.9l-27.3-5 87.2 36.8c24 10.1 63.2 10.2 87.2.1zm378.8 23.3 23.6-11.6-15.2 3a272 272 0 0 1-92.6-.4l-50.6-10.8 49.1 21.7a115.2 115.2 0 0 0 85.7-1.9zM224.8 63.5l74.6 11.9c25.7 4.1 66.4-.7 90.4-10.6l29.9-12.4-70 7c-25.9 2.6-67.6-1-92.6-8.1l-62-17.4c-25-7-66-7-91 .3L0 64v32.2l132-29.9c25.4-5.7 67.1-7 92.8-3z" opacity=".6"/><path d="M0 0v64l104.2-29.9c25-7.1 66-7.3 91-.2L257 51.3c25 7 66.7 10.7 92.6 8l70-6.9 61.2-25.3c24-10 63.3-9.8 87.3.3l86 36.4 27.4 5c25.6 4.7 67.3 4.3 92.8-1l101.3-20.6c25.5-5.2 65.9-.9 89.7 9.6l107.3 47.5 50.6 10.8a272 272 0 0 0 92.6.5l15.2-3.1 22-10.9a184.5 184.5 0 0 1 89.4-15l27.6 3.7c25.8 3.3 65.6-1.2 88.4-10.1L1500 64V0H0z"/><path d="m1370.1 90.2-27.6-3.5c-25.8-3.3-66 3.4-89.4 14.9l-22 10.9 18.1-3.7c25.5-5.2 67.1-4.6 92.5 1.3l33.8 7.8c25.3 5.8 63.7 3.4 85.3-5.5l39.2-16.1V64l-41.5 16a214.2 214.2 0 0 1-88.4 10.1z" opacity=".6"/></svg>