<svg xmlns="http://www.w3.org/2000/svg" fill="#d3d3d3" preserveAspectRatio="none" viewBox="0 0 1500 150"><path d="M672.6 66.5 800.8 88 565.7 36.7c-106-23.1-276.1-16-378.2 15.8l-69 21.5 90.8-15.2c115-19.2 323.6-15.8 463.3 7.7z" opacity=".5"/><path d="M0 93.8v17.1l118.5-37L0 93.9z" opacity=".6"/><path d="M0 0v93.8L118.5 74l69-21.5c102-31.8 272.3-39 378.2-15.8l235 51.3 85.7 14.4c139.7 23.5 335 31.2 433.9 17L1500 93.9V0H0z"/><path d="M886.4 102.4 800.8 88l147.1 32.2c106 23.1 273.5 30.5 372.4 16.4l179.7-25.7V93.8l-179.8 25.7c-98.8 14-294 6.4-433.8-17z" opacity=".5"/></svg>