<svg xmlns="http://www.w3.org/2000/svg" preserveAspectRatio="none" viewBox="0 0 45.6 1500"><path fill="#d3d3d3" d="m33.6 1461.5 12-19.2-12-19.2 12-19.2-12-19.3 12-19.2-12-19.2 12-19.3-12-19.2 12-19.2-12-19.2 12-19.3-12-19.2 12-19.2-12-19.3 12-19.2-12-19.2 12-19.3-12-19.2 12-19.2-12-19.2 12-19.3-12-19.2 12-19.2-12-19.3 12-19.2-12-19.2 12-19.3-12-19.2 12-19.2-12-19.2 12-19.3-12-19.2 12-19.2-12-19.3 12-19.2-12-19.2 12-19.3-12-19.2 12-19.2-12-19.2 12-19.3-12-19.2 12-19.2-12-19.2 12-19.3-12-19.2 12-19.2-12-19.3 12-19.2-12-19.2 12-19.3-12-19.2 12-19.2-12-19.3 12-19.2-12-19.2 12-19.3-12-19.2 12-19.2-12-19.2 12-19.3-12-19.2 12-19.2-12-19.3 12-19.2-12-19.2 12-19.3-12-19.2 12-19.2-12-19.3 12-19.2-12-19.3 12-19.2-12-19.2 12-19.3L33.6 0H0v1500h33.6l12-19.2z"/></svg>