<svg xmlns="http://www.w3.org/2000/svg" preserveAspectRatio="none" viewBox="0 0 1500 150"><path fill="#d3d3d3" d="M0 0v33.6l19.2 12 19.3-12 19.2 12 19.2-12 19.2 12 19.3-12 19.2 12 19.2-12 19.3 12 19.2-12 19.2 12 19.2-12 19.3 12 19.2-12 19.2 12 19.3-12 19.2 12 19.2-12 19.3 12 19.2-12 19.2 12 19.2-12 19.3 12 19.2-12 19.2 12 19.3-12 19.2 12 19.2-12 19.3 12 19.2-12 19.2 12 19.2-12 19.3 12 19.2-12 19.2 12 19.3-12 19.2 12 19.2-12 19.3 12 19.2-12 19.2 12 19.2-12 19.3 12 19.2-12 19.2 12 19.2-12 19.3 12 19.2-12 19.2 12 19.3-12 19.2 12 19.2-12 19.3 12 19.2-12 19.2 12 19.3-12 19.2 12 19.2-12 19.3 12 19.2-12 19.2 12 19.2-12 19.3 12 19.2-12 19.2 12 19.3-12 19.2 12 19.2-12 19.3 12 19.2-12 19.2 12 19.3-12 19.2 12 19.3-12 19.2 12 19.2-12 19.3 12 19.2-12V0z"/></svg>