<svg xmlns="http://www.w3.org/2000/svg" fill="#dcaa2e" viewBox="0 0 32 32"><path d="M23.5 1.25c4.688 0 8.5 3.813 8.5 8.438 0 .688-.063 1.313-.25 2.063l-.25.688c-1.875 7.563-14.375 17.688-14.938 18.125l-.563.438-.563-.438c-.5-.438-12.25-9.875-14.938-18.063l-.188-.688C.06 11-.003 10.375-.003 9.688c0-4.625 3.813-8.438 8.5-8.438 3.25 0 6.063 1.875 7.5 4.563 1.438-2.688 4.25-4.563 7.5-4.563zm6.438 10c.125-.563.188-1.063.188-1.563 0-3.625-2.938-6.563-6.625-6.563-3.625 0-6.563 2.938-6.563 6.563v.5h-1.875v-.5c0-3.625-2.938-6.563-6.563-6.563-3.688 0-6.625 2.938-6.625 6.563 0 .5.063 1 .25 1.625l.188.563c2.188 6.688 11.25 14.688 13.688 16.75 2.5-2.125 12.188-10.563 13.688-16.688z"/></svg>