<svg xmlns="http://www.w3.org/2000/svg" fill="#dcaa2e" viewBox="0 0 32 32"><path d="M5.188 23.5c1.813 0 3.313 1.5 3.313 3.313s-1.5 3.313-3.313 3.313-3.313-1.5-3.313-3.313 1.5-3.313 3.313-3.313zm0 4.75c.75 0 1.375-.625 1.375-1.438 0-.75-.625-1.375-1.375-1.375-.813 0-1.438.625-1.438 1.375 0 .813.625 1.438 1.438 1.438zm16-4.75c1.813 0 3.313 1.5 3.313 3.313s-1.5 3.313-3.313 3.313-3.313-1.5-3.313-3.313 1.5-3.313 3.313-3.313zm0 4.75c.75 0 1.375-.625 1.375-1.438 0-.75-.625-1.375-1.375-1.375-.813 0-1.438.625-1.438 1.375 0 .813.625 1.438 1.438 1.438zm4-24.5h6.813v1.875h-5.188l-.5 3-1.938 14H1.937L-.126 7.5h24.75zm-.875 5.688H2l.313 1.875h21.75zM3.625 20.75H22.75l1.063-7.563H2.563z"/></svg>