<svg xmlns="http://www.w3.org/2000/svg" viewBox="0 0 46 35" width="46px" height="35px"><path fill="#B4B3B4" d="M7.33 20.96v-7.51h2.59c.58 0 1.03.03 1.34.1.43.1.8.28 1.1.54.4.34.7.77.89 1.29.2.52.3 1.11.3 1.78 0 .58-.07 1.08-.2 1.52-.14.44-.31.8-.52 1.1-.2.28-.44.51-.68.68-.25.16-.55.29-.9.38-.35.08-.75.12-1.2.12H7.32zm1-.88h1.6a4 4 0 0 0 1.17-.14c.28-.1.5-.22.67-.4.24-.23.42-.54.55-.94.13-.4.2-.88.2-1.45a3.5 3.5 0 0 0-.39-1.81 2 2 0 0 0-.94-.85c-.27-.1-.7-.15-1.29-.15H8.33v5.74zm10.19-.87.95.12a2.4 2.4 0 0 1-.83 1.3c-.4.3-.93.46-1.56.46a2.5 2.5 0 0 1-1.9-.74c-.46-.5-.7-1.18-.7-2.06 0-.92.24-1.63.71-2.14s1.09-.75 1.84-.75c.73 0 1.32.24 1.78.74.46.5.7 1.2.7 2.1l-.01.24h-4.06c.03.6.2 1.05.5 1.37s.7.48 1.15.48c.33 0 .62-.1.86-.27s.43-.46.57-.85zm-3.03-1.5h3.04a1.8 1.8 0 0 0-.35-1.02 1.4 1.4 0 0 0-1.14-.54c-.42 0-.78.15-1.07.43-.29.28-.45.66-.48 1.14zm5.36 3.25v-4.72h-.81v-.72h.81v-.58c0-.37.04-.64.1-.81.09-.24.25-.44.47-.59.22-.15.54-.22.94-.22.26 0 .55.03.86.1l-.14.8a3.1 3.1 0 0 0-.54-.05c-.28 0-.48.06-.6.18s-.17.34-.17.67v.5h1.06v.72h-1.06v4.72h-.92zm6.25-.66a3.08 3.08 0 0 1-2 .79c-.6 0-1.06-.15-1.38-.44-.32-.3-.48-.67-.48-1.12a1.49 1.49 0 0 1 .66-1.26c.2-.14.41-.24.66-.3.18-.05.45-.1.82-.14.75-.1 1.3-.2 1.65-.32v-.24c0-.38-.09-.64-.26-.8a1.6 1.6 0 0 0-1.05-.31c-.44 0-.76.08-.96.23-.21.15-.36.42-.46.8l-.9-.12c.08-.38.21-.7.4-.93.19-.24.46-.42.82-.55s.76-.2 1.23-.2.84.06 1.13.17c.3.1.5.25.65.41.13.17.23.38.28.63.03.16.05.44.05.85v1.23c0 .86.02 1.4.06 1.63s.11.44.23.65h-.96c-.1-.19-.16-.41-.19-.67zm-.07-2.07c-.34.14-.84.25-1.51.35-.38.05-.65.12-.8.18s-.29.17-.37.3a.78.78 0 0 0-.13.44c0 .25.1.45.28.62.19.16.46.24.82.24.35 0 .67-.07.95-.23.27-.16.48-.37.6-.64.1-.2.16-.51.16-.92v-.34zm5.93 2.73v-.8a2 2 0 0 1-1.73.93 2.2 2.2 0 0 1-.9-.19 1.49 1.49 0 0 1-.62-.46 1.71 1.71 0 0 1-.29-.69 4.73 4.73 0 0 1-.05-.86v-3.37h.92v3.02c0 .48.02.8.06.97.05.24.18.44.36.57s.42.21.7.21.54-.07.78-.21c.24-.14.42-.34.52-.58.1-.24.15-.6.15-1.06v-2.92h.92v5.44h-.82zm2.24 0v-7.51h.93v7.51h-.92zm4.37-.82.14.81c-.26.06-.5.09-.7.09-.34 0-.6-.06-.78-.16a.9.9 0 0 1-.39-.42 3.35 3.35 0 0 1-.11-1.1v-3.12h-.68v-.72h.68v-1.35l.91-.55v1.9h.93v.72h-.93v3.18c0 .26.02.43.05.5a.4.4 0 0 0 .16.19.7.7 0 0 0 .32.06c.1 0 .24 0 .4-.03z"/></svg>