<svg xmlns="http://www.w3.org/2000/svg" viewBox="0 0 46 35" width="46px" height="35px"><path fill="#B4B3B4" d="M4.04 17.57h3.52v-.89H4.04v-2.32H8.1v-.9H3.04v7.52h1zm5.56 2.89c.14.18.35.34.63.46a2.2 2.2 0 0 0 .9.19 2 2 0 0 0 1.72-.93v.8h.83v-5.44h-.92v2.92c0 .46-.05.82-.15 1.06a1.19 1.19 0 0 1-.52.58c-.24.14-.5.21-.78.21s-.51-.07-.7-.2a.97.97 0 0 1-.37-.58c-.03-.17-.05-.49-.05-.97v-3.02h-.92v3.37c0 .4.01.68.05.86.06.27.15.5.29.69zm5.5-7h.93v7.52h-.93zm2.34 0h.92v7.52h-.92zm4.32 7.52 1.1-4.18.2.92.88 3.26h.96l1.7-5.44h-.9l-.93 3.15-.32 1.05-.27-1.04-.81-3.16h-.95l-.87 3.19-.28 1.12-.32-1.17-.87-3.14h-.95l1.66 5.44h.97zm5.61-7.51h.93v1.06h-.92zm0 2.07h.93v5.44h-.92zm3.14 5.2c.37.25.77.37 1.2.37a1.7 1.7 0 0 0 1.52-.81v.68h.86v-7.51h-.92v2.7a1.82 1.82 0 0 0-1.5-.75 2.12 2.12 0 0 0-2.03 1.37 3.86 3.86 0 0 0-.27 1.48c0 .56.1 1.05.3 1.48.2.43.48.76.85 1zm.22-4.06a1.32 1.32 0 0 1 2.09.02c.28.35.43.9.43 1.64 0 .68-.14 1.18-.42 1.51a1.3 1.3 0 0 1-2.07-.02c-.3-.34-.44-.86-.44-1.56 0-.72.13-1.25.41-1.59zm4.98 2.71c0 .55.04.92.11 1.09.08.17.2.31.4.42s.44.16.77.16c.2 0 .44-.03.7-.09l-.14-.81a2.92 2.92 0 0 1-.4.03c-.14 0-.24-.02-.32-.06s-.12-.1-.16-.18-.04-.25-.04-.5v-3.2h.92v-.71h-.92v-1.9l-.92.55v1.35h-.68v.72h.68v3.13zm3.67-1.38c0-.43.05-.77.15-1s.28-.44.52-.59c.24-.14.5-.2.77-.2.37 0 .65.1.85.3.2.22.3.55.3 1.01v3.45h.92v-3.45c0-.53-.06-.94-.2-1.22s-.33-.5-.63-.65a2.2 2.2 0 0 0-1.05-.24c-.66 0-1.2.25-1.63.74v-2.69h-.92v7.51h.92v-2.97zm4.94 9.97.47-.46-.47-.46V27h-.06l-2.42-2.43-.71.71L42.85 27H3.45l1.72-1.72-.7-.7-2.95 2.94 2.95 2.95.7-.7L3.41 28H42.9l-1.76 1.76.7.71L44.32 28h.01z"/></svg>