<svg width="236" height="253" fill="none" xmlns="http://www.w3.org/2000/svg"><path d="M3 .5h229a2.5 2.5 0 012.5 2.5v239.51a9.5 9.5 0 01-9.5 9.5H3a2.5 2.5 0 01-2.5-2.5V3A2.5 2.5 0 013 .5z" fill="#fff" stroke="#E3ECF3"/><path d="M28.917 64.351v5.818h-.704v-5.08h-.034l-1.42.944v-.716l1.454-.966h.704zm2.341 5.023l-.045.307a6.189 6.189 0 01-.148.693c-.064.246-.132.478-.202.696-.07.218-.128.391-.173.52h-.511l.096-.48a18.163 18.163 0 00.222-1.418l.034-.318h.727zm1.231.795v-.51l1.92-2.103c.226-.246.411-.46.557-.642.146-.184.254-.356.324-.517.072-.163.108-.334.108-.512a.945.945 0 00-.545-.878 1.29 1.29 0 00-.569-.122c-.223 0-.418.047-.585.14a.959.959 0 00-.383.383 1.201 1.201 0 00-.134.58h-.67c0-.341.078-.64.236-.898.157-.258.37-.458.642-.602a1.93 1.93 0 01.917-.216c.341 0 .643.072.906.216.264.144.47.338.62.582.15.244.224.516.224.815 0 .214-.039.424-.116.628a2.776 2.776 0 01-.398.68 12.13 12.13 0 01-.781.908L33.455 69.5v.045h2.704v.625h-3.67zm6.742.08c-.429 0-.793-.117-1.094-.35-.301-.234-.532-.574-.69-1.02-.16-.446-.24-.986-.24-1.619 0-.628.08-1.165.24-1.61.16-.447.391-.788.693-1.023.303-.237.666-.355 1.09-.355.425 0 .787.118 1.089.355.303.235.534.576.693 1.023.16.445.241.982.241 1.61 0 .633-.08 1.173-.238 1.62-.16.445-.39.785-.69 1.02-.302.232-.667.349-1.095.349zm0-.625c.424 0 .753-.205.988-.614.235-.409.352-.992.352-1.75 0-.503-.054-.932-.162-1.287-.106-.354-.259-.624-.46-.81a1.015 1.015 0 00-.718-.278c-.421 0-.75.208-.986.622-.237.413-.355.998-.355 1.753 0 .504.053.932.159 1.284.106.353.258.62.457.804.2.184.442.276.724.276zm5 .625c-.429 0-.793-.117-1.094-.35-.301-.234-.532-.574-.69-1.02-.16-.446-.24-.986-.24-1.619 0-.628.08-1.165.24-1.61.16-.447.391-.788.693-1.023.303-.237.666-.355 1.09-.355.425 0 .787.118 1.089.355.303.235.534.576.693 1.023.16.445.241.982.241 1.61 0 .633-.08 1.173-.238 1.62-.16.445-.39.785-.69 1.02-.302.232-.667.349-1.095.349zm0-.625c.424 0 .753-.205.988-.614.235-.409.352-.992.352-1.75 0-.503-.054-.932-.162-1.287-.106-.354-.259-.624-.46-.81a1.015 1.015 0 00-.718-.278c-.421 0-.75.208-.986.622-.237.413-.355.998-.355 1.753 0 .504.053.932.159 1.284.106.353.258.62.457.804.2.184.442.276.724.276zm-9.741 86.792c-.333 0-.633-.067-.9-.199a1.678 1.678 0 01-.642-.546 1.485 1.485 0 01-.264-.789h.682a.934.934 0 00.358.653c.214.17.47.256.767.256.238 0 .45-.056.636-.168a1.18 1.18 0 00.44-.46c.108-.197.162-.42.162-.668 0-.254-.056-.48-.167-.679a1.224 1.224 0 00-.455-.474 1.27 1.27 0 00-.662-.176 1.809 1.809 0 00-.548.082 1.53 1.53 0 00-.463.213l-.66-.079.353-2.864h3.023v.625h-2.432l-.205 1.716h.035a1.49 1.49 0 01.448-.236 1.69 1.69 0 01.563-.094c.356 0 .673.085.952.256.28.168.5.4.659.693.16.294.241.629.241 1.006 0 .371-.083.702-.25.994a1.83 1.83 0 01-.682.688c-.29.166-.619.25-.988.25zm4.982 0a2.187 2.187 0 01-.716-.137 1.716 1.716 0 01-.654-.44c-.197-.208-.355-.49-.474-.844-.12-.356-.18-.803-.18-1.341 0-.515.05-.971.146-1.369.096-.4.236-.736.42-1.009a1.9 1.9 0 01.665-.625 1.82 1.82 0 01.883-.213c.326 0 .616.066.87.196.255.129.464.309.625.54.16.231.265.497.312.798h-.693a1.284 1.284 0 00-.375-.65c-.186-.172-.432-.259-.739-.259-.45 0-.805.196-1.065.588-.257.392-.387.943-.389 1.651h.045a1.718 1.718 0 01.867-.679 1.68 1.68 0 01.565-.094c.334 0 .639.084.915.25.276.165.498.393.665.685.166.29.25.622.25.997 0 .36-.08.689-.242.989a1.84 1.84 0 01-.679.71c-.29.174-.63.259-1.022.256zm0-.625c.238 0 .452-.06.642-.179.19-.12.342-.28.451-.48.112-.201.168-.425.168-.671 0-.24-.054-.459-.162-.656a1.24 1.24 0 00-.44-.475 1.168 1.168 0 00-.637-.176c-.18 0-.347.036-.502.108-.156.07-.292.167-.41.29a1.397 1.397 0 00-.272.423 1.348 1.348 0 00.511 1.631c.191.123.408.185.65.185zm4.958.625c-.428 0-.793-.117-1.094-.35-.301-.235-.531-.575-.69-1.02-.16-.447-.239-.986-.239-1.619 0-.629.08-1.166.239-1.611.16-.447.392-.788.693-1.023a1.723 1.723 0 011.09-.355c.425 0 .788.119 1.089.355.303.235.534.576.693 1.023.16.445.241.982.241 1.611 0 .633-.08 1.172-.238 1.619-.16.445-.39.785-.69 1.02-.302.233-.666.35-1.094.35zm0-.625c.424 0 .754-.205.988-.614.235-.409.353-.992.353-1.75 0-.504-.054-.933-.162-1.287-.106-.354-.26-.624-.46-.81a1.018 1.018 0 00-.72-.278c-.42 0-.748.207-.985.622-.237.413-.355.997-.355 1.753 0 .504.053.932.159 1.284.106.352.258.62.457.804.201.184.443.276.725.276z" fill="#444" fill-opacity=".5"/><path d="M24.831 23.273l2.11 6.63h.08l2.114-6.63h2.046L28.172 32h-2.378l-3.012-8.727h2.05zM32.197 32v-6.546h1.815V32h-1.815zm.912-7.39a.986.986 0 01-.695-.268.87.87 0 01-.285-.652c0-.25.095-.464.285-.643a.978.978 0 01.695-.273c.27 0 .5.091.69.273.194.179.29.393.29.643 0 .253-.096.47-.29.652a.972.972 0 01-.69.269zm4.77 7.496a2.47 2.47 0 01-1.351-.383c-.4-.258-.72-.638-.955-1.138-.233-.503-.35-1.12-.35-1.85 0-.75.121-1.373.363-1.87.241-.5.562-.873.963-1.12.403-.25.845-.376 1.325-.376.367 0 .672.063.916.188.248.122.447.275.597.46.154.182.27.36.35.537h.055v-3.281h1.811V32h-1.79v-1.048h-.077a2.341 2.341 0 01-.362.54 1.8 1.8 0 01-.6.44c-.245.116-.543.174-.895.174zm.575-1.444c.292 0 .54-.08.741-.239.205-.162.361-.387.47-.677.11-.29.165-.63.165-1.019 0-.389-.054-.727-.162-1.014a1.455 1.455 0 00-.468-.665 1.192 1.192 0 00-.746-.234c-.298 0-.55.08-.754.243-.205.162-.36.386-.465.673-.105.287-.158.62-.158.997 0 .381.053.718.158 1.01.108.29.263.517.465.682.204.162.456.243.754.243zm7.624 1.466c-.673 0-1.252-.137-1.738-.41a2.802 2.802 0 01-1.117-1.167c-.261-.505-.392-1.104-.392-1.794 0-.673.131-1.264.392-1.773.262-.508.63-.905 1.104-1.189.477-.284 1.037-.426 1.679-.426.432 0 .834.07 1.206.21.375.136.702.341.98.617.281.276.5.622.656 1.04.157.415.235.9.235 1.457v.499h-5.527v-1.125h3.818a1.39 1.39 0 00-.17-.695 1.222 1.222 0 00-.474-.473 1.35 1.35 0 00-.694-.175c-.276 0-.52.064-.733.192-.21.125-.375.294-.494.507-.12.21-.18.445-.184.703v1.07c0 .324.06.604.18.84.121.235.293.417.515.545.221.128.484.192.788.192.202 0 .387-.029.554-.085a1.111 1.111 0 00.703-.673l1.68.11c-.086.403-.26.756-.525 1.057a2.63 2.63 0 01-1.014.699c-.412.164-.888.247-1.428.247zm7.147 0c-.662 0-1.235-.14-1.718-.422a2.887 2.887 0 01-1.112-1.185c-.261-.508-.392-1.098-.392-1.768 0-.676.13-1.267.392-1.773a2.852 2.852 0 011.112-1.184c.483-.285 1.056-.427 1.718-.427.662 0 1.233.142 1.713.427.483.28.855.676 1.116 1.184.262.506.392 1.097.392 1.773 0 .67-.13 1.26-.392 1.768a2.88 2.88 0 01-1.116 1.185c-.48.281-1.051.422-1.713.422zm.008-1.406c.301 0 .553-.086.755-.256.201-.173.353-.41.456-.707.105-.299.157-.638.157-1.019 0-.38-.052-.72-.157-1.018a1.585 1.585 0 00-.456-.708 1.117 1.117 0 00-.755-.26c-.304 0-.56.087-.767.26-.204.174-.36.41-.464.708a3.132 3.132 0 00-.154 1.018c0 .38.052.72.154 1.019a1.6 1.6 0 00.464.707c.208.17.463.256.767.256zm8.782-7.45l2.11 6.631h.08l2.114-6.63h2.045L65.356 32h-2.378l-3.013-8.727h2.05zM69.38 32v-6.546h1.815V32H69.38zm.912-7.39a.986.986 0 01-.695-.268.87.87 0 01-.285-.652c0-.25.095-.464.285-.643a.978.978 0 01.695-.273c.27 0 .5.091.69.273.193.179.29.393.29.643 0 .253-.097.47-.29.652a.972.972 0 01-.69.269zm5.34 7.518c-.673 0-1.253-.137-1.739-.41a2.802 2.802 0 01-1.116-1.167c-.261-.505-.392-1.104-.392-1.794 0-.673.13-1.264.392-1.773.261-.508.63-.905 1.104-1.189.477-.284 1.037-.426 1.679-.426.431 0 .833.07 1.206.21.375.136.701.341.98.617.281.276.5.622.656 1.04.156.415.234.9.234 1.457v.499H73.11v-1.125h3.819a1.39 1.39 0 00-.17-.695 1.222 1.222 0 00-.474-.473 1.35 1.35 0 00-.694-.175c-.276 0-.52.064-.733.192-.21.125-.375.294-.495.507-.119.21-.18.445-.183.703v1.07c0 .324.06.604.179.84.122.235.294.417.516.545.221.128.484.192.788.192.202 0 .386-.029.554-.085a1.111 1.111 0 00.703-.673l1.68.11c-.086.403-.26.756-.525 1.057a2.63 2.63 0 01-1.014.699c-.412.164-.888.247-1.428.247zM81.066 32l-1.78-6.546h1.836l1.014 4.398h.06l1.056-4.398h1.803l1.074 4.373h.055l.998-4.373h1.832L87.237 32h-1.922l-1.125-4.116h-.081L82.984 32h-1.918zm11.728 0v-8.727h3.443c.662 0 1.226.126 1.692.379.465.25.82.598 1.065 1.044.247.443.37.955.37 1.534 0 .58-.124 1.091-.374 1.534-.25.443-.612.789-1.087 1.036-.472.247-1.043.37-1.713.37h-2.195v-1.478h1.897c.355 0 .647-.061.877-.183a1.21 1.21 0 00.52-.516 1.61 1.61 0 00.175-.763c0-.29-.058-.543-.175-.758a1.166 1.166 0 00-.52-.508c-.232-.122-.528-.183-.886-.183H94.64V32h-1.845zm10.613.128c-.674 0-1.253-.137-1.739-.41a2.807 2.807 0 01-1.117-1.167c-.261-.505-.392-1.104-.392-1.794 0-.673.131-1.264.392-1.773.262-.508.63-.905 1.104-1.189.477-.284 1.037-.426 1.679-.426.432 0 .834.07 1.206.21.375.136.702.341.98.617.281.276.5.622.656 1.04.157.415.235.9.235 1.457v.499h-5.527v-1.125h3.818c0-.262-.057-.493-.17-.695a1.229 1.229 0 00-.473-.473 1.352 1.352 0 00-.695-.175c-.276 0-.52.064-.733.192-.21.125-.375.294-.494.507-.12.21-.181.445-.184.703v1.07c0 .324.06.604.179.84.123.235.294.417.516.545.222.128.484.192.788.192.202 0 .387-.029.554-.085.168-.057.311-.142.431-.256.119-.114.21-.253.273-.418l1.679.111c-.086.403-.26.756-.525 1.057a2.626 2.626 0 01-1.014.699c-.412.164-.888.247-1.427.247zm4.189-.128v-6.546h1.759v1.143h.069c.119-.407.319-.713.601-.92.281-.211.605-.316.971-.316a2.758 2.758 0 01.571.064v1.61a2.357 2.357 0 00-.354-.068c-.15-.02-.288-.03-.413-.03-.267 0-.506.059-.716.175a1.287 1.287 0 00-.494.478 1.38 1.38 0 00-.179.707V32h-1.815zm7.721-8.727h2.276l2.403 5.863h.102l2.404-5.863h2.275V32h-1.789v-5.68h-.073l-2.258 5.637h-1.219l-2.259-5.659h-.072V32h-1.79v-8.727zM126.263 32v-6.546h1.816V32h-1.816zm.912-7.39a.986.986 0 01-.694-.268.868.868 0 01-.286-.652.85.85 0 01.286-.643.978.978 0 01.694-.273c.27 0 .5.091.691.273.193.179.29.393.29.643 0 .253-.097.47-.29.652a.974.974 0 01-.691.269zm4.173 3.606V32h-1.815v-6.546h1.73v1.155h.077a1.83 1.83 0 01.729-.903c.34-.224.754-.337 1.24-.337.454 0 .85.1 1.189.299.338.198.6.483.788.852.187.366.281.804.281 1.312V32h-1.815v-3.844c.003-.4-.1-.713-.307-.937-.207-.228-.493-.341-.857-.341a1.3 1.3 0 00-.647.157c-.185.106-.33.259-.435.46a1.6 1.6 0 00-.158.72zm9.847.997v-3.759h1.816V32h-1.743v-1.189h-.068a1.935 1.935 0 01-.738.925c-.341.233-.757.35-1.248.35-.438 0-.823-.1-1.155-.3a2.056 2.056 0 01-.78-.847c-.185-.367-.278-.805-.281-1.317v-4.168h1.815v3.844c.003.387.107.692.311.917.205.224.479.336.823.336.218 0 .423-.05.613-.149a1.17 1.17 0 00.461-.452c.119-.199.177-.444.174-.737zm6.749-3.759v1.364h-3.942v-1.364h3.942zm-3.047-1.568h1.816v6.103a.83.83 0 00.076.392.43.43 0 00.213.191.88.88 0 00.324.056c.086 0 .171-.007.256-.021l.196-.039.286 1.351a5.103 5.103 0 01-.384.098c-.165.04-.365.064-.601.072-.437.017-.821-.04-1.15-.174a1.606 1.606 0 01-.763-.622c-.182-.282-.271-.637-.269-1.066v-6.34zm7.142 8.242c-.673 0-1.252-.137-1.738-.41a2.807 2.807 0 01-1.117-1.167c-.261-.505-.392-1.104-.392-1.794 0-.673.131-1.264.392-1.773.262-.508.63-.905 1.104-1.189.477-.284 1.037-.426 1.679-.426.432 0 .834.07 1.206.21.375.136.702.341.98.617.281.276.5.622.656 1.04.157.415.235.9.235 1.457v.499h-5.527v-1.125h3.818c0-.262-.057-.493-.171-.695a1.215 1.215 0 00-.473-.473 1.346 1.346 0 00-.694-.175c-.276 0-.52.064-.733.192-.21.125-.375.294-.494.507-.12.21-.181.445-.184.703v1.07c0 .324.06.604.179.84.122.235.294.417.516.545.221.128.484.192.788.192.202 0 .387-.029.554-.085a1.107 1.107 0 00.703-.673l1.679.11c-.085.403-.26.756-.524 1.057a2.626 2.626 0 01-1.014.699c-.412.164-.888.247-1.428.247z" fill="#444"/><path stroke="#D9D9D9" stroke-opacity=".5" d="M50.686 66.277H235M50.686 153.826H235M69.157 66.777v186.157M92.196 66.777v186.157m23.039-186.157v186.157m23.039-186.157v186.157m23.039-186.157v186.157m23.04-186.157v186.157m23.039-186.157v186.157"/><path d="M68.657 242.336l23.762-13.155 23.77-25.56 23.754 10.145 23.77-37.236 23.763 19.082 23.762 19.926L235 152.022" stroke="#509FE2" stroke-miterlimit="10"/><path d="M91.696 231.492a2.663 2.663 0 002.667-2.659 2.664 2.664 0 00-2.667-2.66 2.664 2.664 0 00-2.667 2.66 2.663 2.663 0 002.667 2.659zm25.245-24.867a2.663 2.663 0 002.667-2.659 2.664 2.664 0 00-2.667-2.66 2.664 2.664 0 00-2.667 2.66 2.663 2.663 0 002.667 2.659zm23.235 10.089a2.664 2.664 0 002.667-2.66 2.663 2.663 0 00-2.667-2.659 2.663 2.663 0 00-2.667 2.659 2.664 2.664 0 002.667 2.66zm24.572-37.843a2.663 2.663 0 002.667-2.659 2.664 2.664 0 00-2.667-2.66 2.664 2.664 0 00-2.667 2.66 2.663 2.663 0 002.667 2.659zm19.105 16.538a2.664 2.664 0 002.667-2.66 2.663 2.663 0 00-2.667-2.659 2.663 2.663 0 00-2.667 2.659 2.664 2.664 0 002.667 2.66zm27.488 22.457a2.664 2.664 0 002.667-2.66 2.663 2.663 0 00-2.667-2.659 2.663 2.663 0 00-2.667 2.659 2.664 2.664 0 002.667 2.66z" fill="#509FE2"/></svg>