<svg xmlns="http://www.w3.org/2000/svg" width="87" height="85" fill="#545454"><g clip-path="url(#_clipPath_RhsOZklQf5rvtUBwhXUXSujAYanUBMVb)"><path d="M1.7 0h5v9h-5V0zm33 0h4v9h-4V0zm5 0h4v9h-4V0zm5 0h9v9h-9V0zm23 0h14v9h-14V0zm15 0h4v9h-4V0zm-81 19h4v9h-4v-9zm5 0h9v9h-9v-9zm10 0h4v9h-4v-9zm18 0h4v9h-4v-9zm5 0h14v9h-14v-9zm28 0h5v9h-5v-9zm-66 19h19v9h-19v-9zm33 0h12v9h-12v-9zm14 0h5v9h-5v-9zm19 0h4v9h-4v-9zm5 0h4v9h-4v-9zm5 0h4v9h-4v-9zm5 0h4v9h-4v-9zm-81 19h9v9h-9v-9zm10 0h4v9h-4v-9zm5 0h4v9h-4v-9zm18 0h9v9h-9v-9zm10 0h9v9h-9v-9zm23 0h3v9h-3v-9zm-68 19h3v9h-3v-9zm4 0h3v9h-3v-9zm4 0h3v9h-3v-9zm4 0h3v9h-3v-9zm4 0h3v9h-3v-9zm4 0h3v9h-3v-9zm52-19h3v9h-3v-9zm4 0h3v9h-3v-9zm4 0h3v9h-3v-9zm4 0h3v9h-3v-9zm-9-38h5v9h-5v-9zm7 0h5v9h-5v-9zM8.7 0h12v9h-12V0z" class="a"/><path d="M35.8 84.9H35l2.2-5.8h.8l2.4 5.8h-.9l-.6-1.7h-2.5l-.6 1.7zm1.5-4.1-.6 1.7h1.9l-.6-1.6-.4-1.2-.3 1.1zm7 4.1h-.6v-.6q-.5.7-1.3.7l-.7-.1-.5-.4q-.2-.2-.2-.5l-.1-.7v-2.6h.7V83l.1.8q0 .3.3.4.2.2.5.2t.6-.2q.3-.1.4-.4l.1-.8v-2.3h.7v4.2zm2.7-.6.1.6-.5.1q-.4 0-.6-.2-.3-.1-.3-.3l-.1-.8v-2.4H45v-.6h.6v-1l.7-.5v1.5h.7v.6h-.7v2.8l.1.1.3.1h.3zm.4-1.5q0-1.2.7-1.7.5-.5 1.3-.5t1.4.6q.5.6.5 1.6 0 .8-.2 1.2-.2.5-.7.7-.5.3-1 .3-.9 0-1.4-.6-.6-.5-.6-1.6zm.7 0q0 .8.4 1.2.3.4.9.4.5 0 .9-.4.3-.4.3-1.2 0-.8-.3-1.2-.4-.4-.9-.4-.6 0-.9.4-.4.4-.4 1.2z"/></g></svg>