<svg xmlns="http://www.w3.org/2000/svg" xmlns:xlink="http://www.w3.org/1999/xlink" fill="#fff" width="224" height="360" xmlns:v="https://vecta.io/nano"><style><![CDATA[.B{fill-rule:evenodd}.C{fill:#fff}.D{fill:#dbdada}.E{stroke-width:2}.F{fill:#bcbaba}.G{fill:#dcdbdb}.H{fill:#ebebeb}.I{fill:#bcbbbb}.J{fill:#a2a2a2}.K{stroke:#dcdbdb}.L{stroke-miterlimit:3}]]></style><defs><path id="A" d="M0 0h224v280H0Z"/><path id="B" d="M-448-559h896V561h-896zm646.05 794.43h8.75V238h-8.75z" class="B C"/><path id="C" d="M-448-559h896V561h-896zm657.3 794.43h8.75V238h-8.75z" class="B C"/><path id="D" d="M38.05 263h20v3h-20z" class="B C"/><path id="E" d="M38.05 267.13h20v3h-20z" class="B C"/><path id="F" d="M197.05 205h6.66a10.6 10.6 0 0 1 10.59 10.59V220h-17.25z" class="C"/><path id="G" d="M5.05 234h13a5 5 0 0 1 5 5v9h-18z" class="C"/><clipPath id="H"><use xlink:href="#A"/></clipPath><clipPath id="I"><path d="M0 1h224v280H0Z"/></clipPath></defs><g clip-path="url(#H)"><clipPath id="J"><use xlink:href="#A"/></clipPath><g clip-path="url(#J)"><path d="M102 259h20v12h-20zm0 13h3v3h-3zm4 0h3v3h-3zm4 0h3v3h-3zm28-13h20v16h-20zm-4 8h3v3h-3zm0-4h3v3h-3zm0-4h3v3h-3z" class="D"/><g clip-path="url(#I)" class="F"><path d="M8.5 6h15.83c.8 0 1.44.65 1.44 1.44v15.12A1.44 1.44 0 0 1 24.33 24H8.5c-.8 0-1.44-.64-1.44-1.44V7.44C7.05 6.64 7.7 6 8.5 6Z" class="D"/><path d="M8.5 6h15.83c.8 0 1.44.65 1.44 1.44v.72H7.05v-.72C7.05 6.64 7.7 6 8.5 6ZM7.04 21.84h18.72v.72A1.44 1.44 0 0 1 24.33 24H8.5a1.44 1.44 0 0 1-1.44-1.44Zm0-2.88h18.72v2.16H7.05Z"/><path d="M40.5 6h15.83c.8 0 1.44.65 1.44 1.44v9.36c0 .8-.64 1.44-1.44 1.44H40.5c-.8 0-1.44-.65-1.44-1.44V7.44c0-.8.65-1.44 1.44-1.44Z" class="D"/><path d="M40.13 18.96H56.7a1.08 1.08 0 0 1 0 2.16H40.13a1.08 1.08 0 0 1 0-2.16zm0 2.88H56.7a1.08 1.08 0 0 1 0 2.16H40.13a1.08 1.08 0 0 1 0-2.16zM40.5 6h15.84c.8 0 1.44.65 1.44 1.44v.72H39.05v-.72c0-.8.65-1.44 1.44-1.44Z"/><path d="M70.35 8.85h19.4c.72 0 1.3.58 1.3 1.3v9.7c0 .72-.58 1.3-1.3 1.3h-19.4a1.3 1.3 0 0 1-1.3-1.3v-9.7c0-.72.58-1.3 1.3-1.3z" class="D"/><path d="M72.29 11.44h7.76v1.3H72.3zm0 1.94H89.1v.65H72.3Zm0 1.3H89.1v.64H72.3Zm.97 2.59h4.53a.97.97 0 0 1 0 1.94h-4.53a.97.97 0 0 1 0-1.95z"/><path d="M102.35 10.15h19.4c.72 0 1.3.58 1.3 1.3v7.1c0 .72-.58 1.3-1.3 1.3h-19.4a1.3 1.3 0 0 1-1.3-1.3v-7.1c0-.72.58-1.3 1.3-1.3z" class="D"/><path d="M109.79 15.97h4.53a.97.97 0 0 1 0 1.94h-4.53a.97.97 0 0 1 0-1.94zm-5.5-3.24h15.53v.65h-15.53zm1.3 1.3h12.93v.65h-12.94z"/><path d="M134.35 10.04h19.4c.72 0 1.3.58 1.3 1.3v7.12a1.3 1.3 0 0 1-1.3 1.29h-19.4a1.3 1.3 0 0 1-1.3-1.3v-7.11c0-.72.58-1.3 1.3-1.3z" class="D"/><path d="M136.61 13.28h4.53a.97.97 0 0 1 0 1.94h-4.53a.97.97 0 0 1 0-1.94zm7.44 1.94h9.06v.65h-9.06zm0 1.3h9.06v.64h-9.06zm0-3.89h7.77v1.3h-7.77z"/><g class="D"><path d="M187.05 11.34h-22v8.41c0 .71.58 1.3 1.3 1.3h19.4c.72 0 1.3-.59 1.3-1.3z" class="B"/><path d="M166.02 8.75h3.56v1.94h-4.53v-.97c0-.54.44-.97.97-.97zm15.2 0h4.86a.97.97 0 0 1 .97.97v.97h-5.82z"/></g><path d="M170.23 8.75h4.53v1.94h-4.53z"/><g class="D"><path d="M175.4 8.75h5.18v1.94h-5.18zm-42.35 56.46h7.13v6.41h-7.13zm7.84 0h8.55v1.43h-8.55zm0 2.14h14.25v.71h-14.25zm0 1.42h14.25v.72h-14.25zm0 1.43h14.25v.71h-14.25zm0 1.42h14.25v.72h-14.25zm0 1.43h14.25v.71h-14.25zm0 1.42h14.25v.72h-14.25zm0 1.43h14.25v.71h-14.25zm-34.01-1.43h4.52V79h-4.52zm-5.83-11.65h4.53v4.53h-4.53zm5.83 0h4.52v4.53h-4.52zm5.82 0h4.53v4.53h-4.53zm5.82 0h4.53v4.53h-4.53zm-17.47 5.83h4.53v4.53h-4.53zm5.83 0h4.52v4.53h-4.52zm5.82 0h4.53v4.53h-4.53zm5.82 0h4.53v4.53h-4.53zm-17.47 5.82h4.53V79h-4.53zm11.65 0h4.53V79h-4.53zm5.82 0h4.53V79h-4.53zM69.05 64.41h6.47v5.83h-6.47zm7.77 0h6.47v5.83h-6.47zm7.76 0h6.47v5.83h-6.47zm-15.53 7.77h6.47V78h-6.47zm7.77 0h6.47V78h-6.47zm7.76 0h6.47V78h-6.47zm-47.53-8.09h3.06v2.44h-3.06zm3.67 0h4.89v1.22h-4.9zm0 1.83h6.72v.61h-6.72zm0 1.23h6.72v.6h-6.72zm0 1.22h6.72v.6h-6.72zm0 1.22h6.72v.61h-6.72zm7.94-5.5h3.06v2.44h-3.06zm3.67 0h4.89v1.22h-4.89zm0 1.83h6.72v.61h-6.72zm0 1.22h6.72v.62h-6.72zm0 1.23h6.72v.6h-6.72zm0 1.22h6.72v.61h-6.72zm-15.28 2.44h3.06v2.45h-3.06zm3.67 0h4.89v1.23h-4.9zm0 1.84h6.72v.6h-6.72zm0 1.22h6.72v.61h-6.72zm0 1.22h6.72v.61h-6.72zm0 1.22h6.72v.61h-6.72zm7.94-5.5h3.06v2.45h-3.06zm3.67 0h4.89v1.23h-4.89zm0 1.84h6.72v.6h-6.72zm0 1.22h6.72v.61h-6.72zm0 1.22h6.72v.61h-6.72zm0 1.22h6.72v.61h-6.72zM5.05 64h10.36v6.47H5.04zm11.65 0h10.35v6.47H16.7zM5.05 71.77h10.36v6.47H5.04zm11.65 0h10.35v6.47H16.7zm156.54-2.87h6.14v1.01h-6.14zm-3.58 2.04h13.3v.5h-13.3zm0 1.02h13.3v.51h-13.3zm0 1.02h13.3v.52h-13.3zm1.02 1.03h11.26v.5h-11.26zm3.58 2.04h3.07v.52h-3.07zm-.51 1.03h4.1v.5h-4.1z"/><path d="m185 72.47 1.4-1.28-1.4-1.28h.67l1.38 1.28-1.38 1.28zm-17.9 0-1.39-1.28 1.39-1.28h-.67l-1.38 1.28 1.39 1.28z" class="B"/><circle cx="176.05" cy="66.08" r="1.79" vector-effect="non-scaling-stroke"/><path d="M173.33 37h6.14v1.02h-6.14zm-3.58 2.05h13.3v.5h-13.3Zm0 1.02h13.3v.51h-13.3Zm0 1.02h13.3v.52h-13.3Zm1.02 1.03h11.26v.5h-11.26Zm4.1 5.88h3.07v.51h-3.07zm-.51 1.02h4.09v.52h-4.1z"/><path d="m184.92 44.5 1.38-1.27-1.38-1.28h.67l1.38 1.28-1.39 1.28zm-17.9 0-1.4-1.27 1.4-1.28h-.67l-1.38 1.28 1.38 1.28z" class="B"/><circle cx="176.4" cy="45.79" r="1.79" vector-effect="non-scaling-stroke"/><path d="M19.96 93.64h7.1v6.4h-7.1zm-9.23 0h8.52v1.42h-8.52Zm-5.68 2.13h14.2v.71H5.05Zm0 1.42h14.2v.71H5.05Zm0 1.42h14.2v.71H5.05Zm0 1.42h14.2v.71H5.05Zm0 1.42h14.2v.71H5.05Zm0 1.42h14.2v.71H5.05Zm0 1.42h14.2v.71H5.05Zm39.59-13.31h7.59v6.83h-7.6zm-2.28 8.34H54.5v1.52H42.36Zm-5.3 3.04h22v.76h-22zm0 1.51h22v.76h-22zm0 1.52h22v.76h-22zm0 1.52h22v.76h-22zM71.95 90h16.19v7.36h-16.2Zm2.94 9.57h9.57v1.47H74.9zm-2.2 2.94h13.98v.74H72.69Zm0 1.48h13.98v.73H72.69Zm0 1.47h13.98v.73H72.69Zm0 1.47h13.98v.74H72.69Zm28.35-13.82h9.06v9.71h-9.06zm10.36 0h9.7v1.3h-9.7zm0 2.6h11.64v.64H111.4zm0 1.29h11.64v.64H111.4zm0 1.3h11.64v.64H111.4zm0 1.28h11.64v.65H111.4zm0 1.3h11.64v.65H111.4zm0 1.3h11.64v.64H111.4zm0 1.29h11.64v.64H111.4zm0 1.3h11.64v.64H111.4zm21.7-11.67h22v12.3h-22z"/><path d="M133.1 100.88h22v4.53h-22z" class="F"/><path d="M139.57 102.17h9.7v.65h-9.7zm.64 1.3h8.41v.64h-8.4zm24.93-10.36h9.02v9.67h-9.02z"/><path d="m171.58 97.95-3.86-2.26v4.51z" class="B J"/><path d="M175.45 93.11h9.67v1.3h-9.67zm0 2.58h11.6v.65h-11.6zm0 1.3h11.6v.64h-11.6zm0 1.28h11.6v.65h-11.6zm0 1.29h11.6v.65h-11.6zm0 1.29h11.6v.64h-11.6zm0 1.29h11.6v.64h-11.6zm0 1.29h11.6v.64h-11.6zm0 1.29h11.6v.64h-11.6ZM5.05 121.3h9.73v1.3H5.05Zm0 2.6h11.68v.64H5.05Zm0 1.29h11.68v.65H5.05Zm0 1.3h11.68v.64H5.05Zm0 1.3h11.68v.64H5.05Zm0 1.29h11.68v.65H5.05Zm0 1.3h11.68v.65H5.05Zm0 1.3h11.68v.64H5.05Zm0 1.3h11.68v.64H5.05Zm12.97-11.68h9.08v9.72h-9.08zm20.03-2.24h20v10h-20zm0 11.54h9.23v1.53h-9.23zm0 2.3h20v.77h-20zm0 1.54h20v.77h-20zm32-16.15h9.23v1.54h-9.23zm0 2.3h20v.77h-20zm0 1.54h20v.77h-20zm0 1.54h20v.77h-20zm0 1.54h20v.77h-20zm0 3.08h9.23v1.54h-9.23zm0 2.3h20v.77h-20zm0 1.54h20v.77h-20zm0 1.54h20v.77h-20zm0 1.54h20v.77h-20zM102 118.64h4.44v3.7H102Zm5.18 0h8.9v1.48h-8.9zm0 2.22H122v.74h-14.81zm0 1.48H122v.74h-14.81zm0 1.48H122v.75h-14.81zm0 1.49H122v.74h-14.81Zm-5.18 2.96h4.44v3.7H102Zm5.18 0h8.9v1.48h-8.9zm0 2.22H122v.74h-14.81zm0 1.48H122v.74h-14.81zm0 1.48H122v.74h-14.81zm0 1.49H122v.74h-14.81Zm25.95-9.94h6.67v3.81h-6.67zm7.63 0h6.67v3.81h-6.67zm7.62 0h6.67v3.81h-6.67zm16.67-4.54h21.92v12.9h-21.92z"/><path d="m178.59 125.3-3.87-2.26v4.51z" class="B J"/><path d="M165.05 128.84h21.92v4.51h-21.92z" class="F"/><path d="M171.5 130.13h9.67v.64h-9.67zm.64 1.29h8.38v.64h-8.38zM5.05 153.4h5.19v2.6H5.05Zm5.84 0h4.54v2.6h-4.54zm5.19 0h4.54v2.6h-4.54zm5.19 0h5.83v2.6h-5.83zm21.05-7.22H54.5v3.75H42.32Zm0 4.69H54.5v3.75H42.32Zm0 4.69H54.5v3.74H42.32Zm0 4.68H54.5V164H42.32ZM69.05 151h10.93v6.9H69.05Zm13.23 1.15h8.62v.57h-8.62zm0 1.15h8.62v.57h-8.62zm0 1.15h8.62v.58h-8.62zm.57 1.15h7.48v.58h-7.48Zm18.15-6.67h22.05v12.33H101Z"/><path d="M101 154.77h12.32v3.24H101Z" class="F"/><path d="M133.13 147.93h21.52v9.93h-21.52zm4.97 11.59h12.41v.82H138.1Zm.83 1.65h10.75v.83h-10.75zm26.12-12.16h9.67v1.3h-9.67zm0 2.58h11.6v.65h-11.6zm0 1.29h11.6v.64h-11.6zm0 1.29h11.6v.64h-11.6zm0 1.29h11.6v.64h-11.6zm0 1.29h11.6v.64h-11.6zm0 1.28h11.6v.65h-11.6zm0 1.3h11.6v.64h-11.6zm0 1.28h11.6v.65h-11.6zm12.9-11.6h9.02v9.67h-9.03z"/><path d="m183.74 153.85-3.22-2.26v4.51z" class="B J"/><path d="M5.05 175.62h22V190h-22z"/><path d="M5.05 185.77h22V190h-22z" class="F"/><path d="M10.13 187.46h12.7v.85h-12.7ZM37.05 182h22v2.3h-22zm128-8h22v11h-22z"/><path d="m178.6 179.5-5.09-2.96v5.92z" class="B J"/><path d="M165.05 186.7h10.16v1.68h-10.16zm0 2.53h22v.85h-22zm0 1.7h22v.84h-22zm-26.14-13.91h16.14v12.27h-16.14z"/><path d="M139.55 177.66h14.86v10.98h-14.86z" class="C"/><path d="M133.1 178.96h5.8v1.93h-5.8z" class="F"/><path d="M133.1 181.54h5.8v1.94h-5.8zm0 2.58h5.8v1.94h-5.8z"/><path d="M75.52 179.09h15.53v10.35h-22v-12.3h6.47z" class="B"/><path d="M82.64 177.15h4.53v1.94h-4.53zm-5.82 0h4.53v1.94h-4.53z"/><path d="M74.88 179.74H90.4v9.05H69.7v-11h5.18z" class="B C"/><path d="M107.07 178.34h4.86v-.65h-4.86zm6.26 0h4.86v-.65h-4.86z"/><path fill="#bebbbb" d="M198.81 17.39h-1.76V12.5h1.68q.57 0 .87.07.42.1.71.35.39.33.58.83.2.51.2 1.16 0 .56-.14.99-.13.43-.33.7-.2.29-.44.45-.24.16-.59.24-.34.09-.78.09zm-1.11-4.3v3.72h1.04q.48 0 .75-.09.28-.09.44-.25.23-.23.36-.62.13-.39.13-.94 0-.76-.25-1.17-.26-.41-.61-.55-.26-.1-.84-.1zm6.61 3.16.62.07q-.15.55-.54.85-.4.3-1.01.3-.78 0-1.23-.48-.46-.48-.46-1.34 0-.9.46-1.38.46-.5 1.2-.5.7 0 1.15.49.45.48.45 1.35v.16h-2.64q.04.58.33.9.3.3.74.3.33 0 .56-.17.23-.17.37-.55zm-1.96-.97h1.97q-.04-.44-.23-.67-.28-.34-.74-.34-.41 0-.7.27-.27.28-.3.74zm4.07 2.1h-.6v-3.06h-.52v-.47h.52v-.37q0-.36.07-.53.08-.23.3-.38.22-.14.61-.14.25 0 .56.06l-.09.52q-.19-.03-.35-.03-.27 0-.39.11-.11.12-.11.44v.33h.69v.46h-.7zm3.46-.43q-.34.28-.64.4-.31.12-.66.12-.58 0-.9-.29-.31-.28-.31-.72 0-.26.12-.48.12-.21.3-.34.2-.13.44-.2.17-.05.53-.09.72-.08 1.07-.2v-.16q0-.37-.17-.52-.23-.2-.68-.2-.42 0-.62.15t-.3.52l-.59-.08q.08-.37.27-.6.18-.23.52-.36.35-.12.8-.12.46 0 .74.1.28.1.42.27.13.16.18.4.03.16.03.56v.8q0 .83.04 1.05.04.22.15.43H210q-.1-.19-.12-.44zm-.05-1.12v-.22q-.33.14-.98.23-.37.05-.52.12-.16.07-.24.2-.08.12-.08.28 0 .24.18.4.18.16.53.16.35 0 .62-.15.26-.16.39-.42.1-.2.1-.6zm4.38 1.56h-.54v-.52q-.4.6-1.12.6-.31 0-.58-.12-.27-.12-.4-.3-.13-.19-.19-.45-.03-.17-.03-.56v-2.18h.6v1.95q0 .47.03.64.06.23.24.37.18.13.45.13t.5-.14q.24-.14.34-.37.1-.24.1-.7v-1.88h.6zm1.52 0h-.6V12.5h.6zm2.24-.54.08.53q-.25.05-.45.05-.33 0-.5-.1-.18-.1-.26-.27-.07-.17-.07-.7v-2.04h-.44v-.47h.44v-.87l.6-.36v1.24h.6v.46h-.6v2.06q0 .26.03.33.03.08.1.12.07.04.2.04l.27-.02z"/><g class="B"><path d="M6.35 38h19.4c.72 0 1.3.58 1.3 1.3v7.11c0 .72-.58 1.3-1.3 1.3H6.36a1.3 1.3 0 0 1-1.3-1.3V39.3c0-.71.58-1.29 1.3-1.29Z"/><path fill="#bfbcbc" d="M7 39.94h7.11v1.3H7Zm0 2.59h8.4v.65H7Zm0 1.3h8.4v.64H7Zm11-2.6h7.11v1.95H18z"/><path d="M37.05 42h5.83v1.94h-5.83zm8.41 0h5.83v1.94h-5.83zm7.77 0h5.82v1.94h-5.82z"/><path d="M69.05 41.86h1.99v1.99h-1.99zm3.98 0H75v1.99h-1.98zm3.97 0h1.98v1.99H77zm3.97 0h1.99v1.99h-1.99Zm3.97 0h1.99v1.99h-1.99zm3.97 0h2v1.99h-2z" class="G"/><path d="M101 41.73h22.05v.65H101Zm0 1.3h22.05v.65H101Z"/><path d="M133.13 37.5h21.92v10.95h-21.92z" class="G"/><path fill="#ededed" d="M198.72 34.35h18.6c.66 0 1.2.53 1.2 1.2v12.6c0 .66-.54 1.2-1.2 1.2h-18.6a1.2 1.2 0 0 1-1.2-1.2v-12.6c0-.66.54-1.2 1.2-1.2z"/><path fill="#c0bdbd" d="M199.92 36.75h16.8v.6h-16.8zm0 1.2h15v.6h-15zm0 1.2h15v.6h-15zm0 4.8h12v.6h-12zm0 1.2h13.2v.6h-13.2zm2.4 1.8a2.4 2.4 0 1 1 0 4.8 2.4 2.4 0 0 1 0-4.8z"/></g><path d="M197.05 66h21.47v10.16h-21.47Z" class="H"/><g class="B"><path d="M199.27 68.13h17.2v5.98h-17.2z" class="G"/><path fill="#c2c1c1" d="M197.22 68.13h2.05v5.98h-2.05zm19.25-2.05v2.05h-17.2v-2.05zm0 8.03v2.05h-17.2v-2.05zm0-6.06h2.05v6.06h-2.05z"/><path fill="#e9e7e7" d="M197.05 180.3h17.2v11.47h-17.2z"/><path d="M214.24 183.75v8.02h-.57V180.3h-16.62v-.58h17.2z" class="I"/></g><path fill="#bebbbb" d="m204.53 156.71 1.32-.2q.1.79.61 1.2.5.43 1.42.43.9 0 1.35-.38.44-.37.44-.87 0-.45-.39-.7-.27-.19-1.35-.46-1.46-.37-2.03-.64-.56-.27-.85-.74-.3-.48-.3-1.05 0-.53.25-.97.24-.45.65-.74.3-.23.84-.39t1.15-.16q.92 0 1.62.27.7.26 1.03.72.33.45.45 1.21l-1.3.18q-.08-.6-.5-.95-.43-.34-1.2-.34-.92 0-1.31.3-.4.3-.4.71 0 .26.17.47.16.21.51.35.2.08 1.17.34 1.41.38 1.97.62.55.24.87.7.32.45.32 1.13 0 .66-.39 1.25t-1.12.9q-.73.33-1.65.33-1.52 0-2.32-.64-.8-.63-1.02-1.88zm-1.7-25.2h-1.47l3.56-4.8-3.14-4.41h1.45l1.68 2.36q.52.74.74 1.13.3-.5.73-1.05l1.85-2.44h1.33l-3.24 4.34 3.5 4.88h-1.52l-2.32-3.3q-.2-.28-.4-.61-.3.5-.44.7zm13.77 0h-5.76v-9.21h1.22v8.13h4.54zm-4.74-26.84h-7.3V93h1.55v10.3h5.75z"/><g class="B"><path d="M101.01 179.09H123v.65h-21.99z" opacity=".99" paint-order="markers fill stroke"/><path d="M101.01 177.68h4.79v.66h-4.79z" opacity=".99" paint-order="markers fill stroke" class="F"/></g></g><clipPath id="K"><use xlink:href="#B" class="B"/></clipPath><g clip-path="url(#K)"><clipPath id="L"><use xlink:href="#B" class="B"/></clipPath><g clip-path="url(#L)"><clipPath id="M"><use xlink:href="#B" class="B"/></clipPath><g clip-path="url(#M)"><clipPath id="N"><path d="M-448-560h896V560h-896zm646.05 795.43h8.75V238h-8.75z" class="B C"/></clipPath><g clip-path="url(#N)"><mask id="O" width="400%" height="400%" x="-200%" y="-200%"><path d="M-448-720h896V720h-896z" class="C"/><path fill="#000" d="M198.05 235.43h8.75V238h-8.75z" class="B"/></mask><path d="M198.05 235.43h8.75V238h-8.75z" mask="url(#O)" vector-effect="non-scaling-stroke" class="B C E K"/></g></g></g></g><clipPath id="P"><use xlink:href="#C" class="B"/></clipPath><g clip-path="url(#P)"><clipPath id="Q"><use xlink:href="#C" class="B"/></clipPath><g clip-path="url(#Q)"><clipPath id="R"><use xlink:href="#C" class="B"/></clipPath><g clip-path="url(#R)"><clipPath id="S"><path d="M-448-560h896V560h-896zm657.3 795.43h8.75V238h-8.75z" class="B C"/></clipPath><g clip-path="url(#S)"><mask id="T" width="400%" height="400%" x="-200%" y="-200%"><path d="M-448-720h896V720h-896z" class="C"/><path fill="#000" d="M209.3 235.43h8.75V238h-8.75z" class="B"/></mask><path d="M209.3 235.43h8.75V238h-8.75z" mask="url(#T)" vector-effect="non-scaling-stroke" class="B C E K"/></g></g></g></g><g class="B"><path fill="#c8c6c6" d="M197.13 240h21.92v3.04h-21.92z"/><path d="M5.05 265.86h6.92v3H5.05Zm7.54 0h6.92v3h-6.92z" class="G"/><path d="M20.14 265.86h6.91v3h-6.91z" class="I"/><path d="M5.68 266.46h5.66v1.8H5.68Zm7.54 0h5.66v1.8h-5.66z" class="C"/></g><clipPath id="U"><use xlink:href="#D" class="B"/></clipPath><g clip-path="url(#U)"><clipPath id="V"><use xlink:href="#D" class="B"/></clipPath><g clip-path="url(#V)"><clipPath id="W"><use xlink:href="#D" class="B"/></clipPath><g clip-path="url(#W)"><clipPath id="X"><use xlink:href="#D" class="B"/></clipPath><g clip-path="url(#X)"><mask id="Y"><use xlink:href="#D" class="B"/></mask><path d="M38.05 263h20v3h-20z" mask="url(#Y)" vector-effect="non-scaling-stroke" class="B C E K"/></g></g></g></g><clipPath id="Z"><use xlink:href="#E" class="B"/></clipPath><g clip-path="url(#Z)"><clipPath id="a"><use xlink:href="#E" class="B"/></clipPath><g clip-path="url(#a)"><clipPath id="b"><use xlink:href="#E" class="B"/></clipPath><g clip-path="url(#b)"><clipPath id="c"><use xlink:href="#E" class="B"/></clipPath><g clip-path="url(#c)"><mask id="d"><use xlink:href="#E" class="B"/></mask><path d="M38.05 267.13h20v3h-20z" mask="url(#d)" vector-effect="non-scaling-stroke" class="B C E K"/></g></g></g></g><path d="M38.05 271.5h20v3h-20z" class="B I"/><clipPath id="e"><use xlink:href="#F"/></clipPath><g clip-path="url(#e)"><clipPath id="f"><use xlink:href="#F"/></clipPath><g clip-path="url(#f)"><clipPath id="g"><use xlink:href="#F"/></clipPath><g clip-path="url(#g)"><clipPath id="h"><use xlink:href="#F"/></clipPath><g clip-path="url(#h)"><mask id="i"><use xlink:href="#F"/></mask><path stroke="#bcbbbb" d="M197.05 205h6.66a10.6 10.6 0 0 1 10.59 10.59V220h-17.25z" mask="url(#i)" vector-effect="non-scaling-stroke" class="E H L"/></g></g></g></g><g class="H"><path d="M198.71 219h14.47v1H198.7z"/><path d="M197.05 206h5.3v14h-5.3z"/></g><clipPath id="j"><use xlink:href="#G"/></clipPath><g clip-path="url(#j)"><clipPath id="k"><use xlink:href="#G"/></clipPath><g clip-path="url(#k)"><clipPath id="l"><use xlink:href="#G"/></clipPath><g clip-path="url(#l)"><clipPath id="m"><use xlink:href="#G"/></clipPath><g clip-path="url(#m)"><mask id="n"><use xlink:href="#G"/></mask><path stroke="#bcbbbb" d="M5.05 234h13a5 5 0 0 1 5 5v9h-18z" mask="url(#n)" vector-effect="non-scaling-stroke" class="E H L"/></g></g></g></g><path d="M9.05 244v-9h-4v13h17v-4z" class="H"/><circle cx="48.05" cy="239.24" r="5.37" fill="#e9e7e7" vector-effect="non-scaling-stroke"/><clipPath id="o"><circle cx="79.98" cy="239.24" r="5.37" vector-effect="non-scaling-stroke" class="C"/></clipPath><g clip-path="url(#o)"><clipPath id="p"><circle cx="79.98" cy="239.24" r="5.37" vector-effect="non-scaling-stroke" class="C"/></clipPath><g clip-path="url(#p)"><clipPath id="q"><circle cx="79.98" cy="239.24" r="5.37" vector-effect="non-scaling-stroke" class="C"/></clipPath><g clip-path="url(#q)"><clipPath id="r"><circle cx="79.98" cy="239.24" r="5.37" vector-effect="non-scaling-stroke" class="C"/></clipPath><g clip-path="url(#r)"><mask id="s"><circle cx="79.98" cy="239.24" r="5.37" vector-effect="non-scaling-stroke" class="C"/></mask><circle cx="79.98" cy="239.24" r="5.37" stroke="#bfbebe" mask="url(#s)" vector-effect="non-scaling-stroke" class="C E"/></g></g></g></g><clipPath id="t"><circle cx="111.69" cy="239.24" r="5.37" vector-effect="non-scaling-stroke" class="C"/></clipPath><g clip-path="url(#t)"><clipPath id="u"><circle cx="111.69" cy="239.24" r="5.37" vector-effect="non-scaling-stroke" class="C"/></clipPath><g clip-path="url(#u)"><clipPath id="v"><circle cx="111.69" cy="239.24" r="5.37" vector-effect="non-scaling-stroke" class="C"/></clipPath><g clip-path="url(#v)"><clipPath id="w"><circle cx="111.69" cy="239.24" r="5.37" vector-effect="non-scaling-stroke" class="C"/></clipPath><g clip-path="url(#w)"><mask id="x"><circle cx="111.69" cy="239.24" r="5.37" vector-effect="non-scaling-stroke" class="C"/></mask><circle cx="111.69" cy="239.24" r="5.37" stroke="#bfbebe" mask="url(#x)" vector-effect="non-scaling-stroke" class="C E"/></g></g></g></g><g class="I"><path fill="#bfbebe" d="M110.69 234.2h2v2h-2zm-2 2h2v2h-2zm0 4h2v2h-2zm4-4h2v2h-2zm0 4h2v2h-2zm2-2h2v2h-2zm-8 0h2v2h-2zm4 0h2v2h-2zm0 4h2v2h-2z"/><path d="M143.62 230h1.13v2.93h-1.13zm0 3.52h1.13v2.34h-1.13zm0 2.93h1.13v2.34h-1.13zm0 2.93h1.13V247h-1.13z" class="B"/><path d="m140.8 242.4 3.27 3.7-.48.9-3.56-3.94zm4 4.6 3.27-3.7-.48-.9-3.55 3.94z"/><path d="M167.47 238.93v-1.13h2.93v1.13zm3.51 0v-1.13h2.35v1.13zm2.93 0v-1.13h2.35v1.13zm2.94 0v-1.13h7.62v1.13z" class="B"/><path d="m179.87 241.76 3.7-3.28.9.48-3.94 3.56zm4.6-4-3.7-3.28-.9.48 3.94 3.56z"/><path d="M177.06 223.4h-1.13v-25h1.13z" class="B"/><path d="m179.89 203-3.28-3.7.48-.9 3.56 3.94zm-4-4.6-3.28 3.7.48.9 3.55-3.94zm4.02 20.5-3.28 3.7.48.9 3.55-3.94zm-4 4.6-3.28-3.7.48-.9 3.55 3.94z"/><path d="M97 212.15v-1.2h30v1.2z" class="B"/><path d="m121.2 216.09 4.59-4.89 1.1.72-4.88 5.3z"/><path d="m126.9 210.89-4.6-4.89-1.1.71 4.89 5.3zm-24.2 5.22-4.6-4.89-1.1.72 4.89 5.3z"/><path d="m97 210.9 4.59-4.88 1.1.72-4.88 5.28z"/><g fill="#b3b3b3" class="B"><path d="M134.06 197.9h.71v2.23h-.7zm0 2.97h.71v2.23h-.7zm0 2.97h.71v2.23h-.7zm0 2.97h.71v2.23h-.7zm0 2.98h.71V212h-.7zm0 2.97h.71v2.23h-.7zm0 2.97h.71v2.23h-.7zm0 2.97h.71v2.23h-.7zm0 2.97h.71v2.23h-.7zm19.37-23.77h.7v2.23h-.7zm0 2.97h.7v2.23h-.7zm0 2.97h.7v2.23h-.7zm0 2.97h.7v2.23h-.7zm0 2.98h.7V212h-.7zm0 2.97h.7v2.23h-.7zm0 2.97h.7v2.23h-.7zm0 2.97h.7v2.23h-.7zm0 2.97h.7v2.23h-.7z"/></g><path d="M68.3 204h25v14h-25z" class="D"/><path d="M76.12 208.6h7.71v.65h-7.7zm-1.93 1.93H86.4v.65H74.2zm0 1.29H86.4v.64H74.2zm0 1.28H86.4v.65H74.2z" class="B C"/></g><g class="G"><g class="B"><path d="M5.05 208.4H9.3v3.54H5.05Zm4.96 0h6.38v1.42H10zm0 2.13h14.17v.7H10Zm0 1.41h14.17v.71H10Zm0 1.42h14.17v.7H10Zm0 1.42h14.17v.7H10Zm14.88-6.38H27v1.42h-2.1ZM43.6 204h9.7a2 2 0 0 1 2 2v9.7a2 2 0 0 1-2 2h-9.7a2 2 0 0 1-2-2V206c0-1.1.9-2 2-2zm0 1.01h9.7a.99.99 0 0 1 1 1v9.69a.99.99 0 0 1-1 1h-9.7a.99.99 0 0 1-1-1v-9.69a.99.99 0 0 1 1-1z"/><path d="M41.56 206.97 42.9 205l11.11-.38 1.26 2.34v8.69a2 2 0 0 1-2 2h-9.7a2 2 0 0 1-2-2zm1 5h11.7v3.7a1 1 0 0 1-1 1h-9.7a1 1 0 0 1-1-1z"/></g><path d="M44.16 212.98h8.53v1.15h-8.53Zm1.28 1.97h6.01v.75h-6z"/></g></g><path d="M74.79 266H86.2c.99 0 1.79.8 1.79 1.79v.42c0 .99-.8 1.79-1.79 1.79H74.8c-.99 0-1.79-.8-1.79-1.79v-.42c0-.99.8-1.79 1.79-1.79z" class="I"/></g><path d="M165.05 259.13h3.49v3.5h-3.49zm4.55 0h3.49v3.5h-3.49zm4.55 0h3.49v3.5h-3.49zm4.55 0h3.49v3.5h-3.49zm4.55 0h3.49v3.5h-3.5zm-18.2 4.07h3.49v3.5h-3.49zm4.55 0h3.49v3.5h-3.49zm4.55 0h3.49v3.5h-3.49zm4.55 0h3.49v3.5h-3.49zm4.55 0h3.49v3.5h-3.5zm-18.2 4.08h3.49v3.48h-3.49zm4.55 0h3.49v3.48h-3.49zm4.55 0h3.49v3.48h-3.49zm4.55 0h3.49v3.48h-3.49zm4.55 0h3.49v3.48h-3.5zm-18.2 4.07h3.49v3.49h-3.49zm4.55 0h3.49v3.49h-3.49zm4.55 0h3.49v3.49h-3.49zm4.55 0h3.49v3.49h-3.49zm4.55 0h3.49v3.49h-3.5zm13.93-12.22h3.25v3.25h-3.25zm3.84 0h3.25v3.25h-3.25zm3.84 0h3.25v3.25h-3.25zm3.84 0h3.25v3.25h-3.25zm3.84 0h3.25v3.25h-3.25zm3.84 0h3.25v3.25h-3.25zm-19.2 4.15h3.25v3.25h-3.25zm3.84 0h3.25v3.25h-3.25zm3.84 0h3.25v3.25h-3.25zm3.84 0h3.25v3.25h-3.25zm3.84 0h3.25v3.25h-3.25zm3.84 0h3.25v3.25h-3.25zm-19.2 4.16h3.25v3.24h-3.25zm3.84 0h3.25v3.24h-3.25zm3.84 0h3.25v3.24h-3.25zm3.84 0h3.25v3.24h-3.25zm3.84 0h3.25v3.24h-3.25zm3.84 0h3.25v3.24h-3.25zm-19.2 4.15h3.25v3.25h-3.25zm3.84 0h3.25v3.25h-3.25zm3.84 0h3.25v3.25h-3.25zm3.84 0h3.25v3.25h-3.25zm3.84 0h3.25v3.25h-3.25zm3.84 0h3.25v3.25h-3.25z" opacity=".99" paint-order="markers fill stroke" class="D"/></g></svg>