<svg xmlns="http://www.w3.org/2000/svg" width="100" height="100"><g fill="#fefefc"><rect width="20" height="20"/><rect width="20" height="20" fill="#fefdfb" x="20"/><rect width="20" height="20" fill="#def2f0" x="40"/><rect width="20" height="20" fill="#be8677" x="60"/><rect width="20" height="20" fill="#775041" x="80"/><rect width="20" height="20" fill="#f9f9f7" y="20"/><rect width="20" height="20" fill="#8ea2a0" x="20" y="20"/><rect width="20" height="20" fill="#919483" x="40" y="20"/><rect width="20" height="20" fill="#64605d" x="60" y="20"/><rect width="20" height="20" fill="#f8ffff" x="80" y="20"/><rect width="20" height="20" fill="#8e8483" y="40"/><rect width="20" height="20" fill="#e5f7ff" x="20" y="40"/><rect width="20" height="20" fill="#fff8db" x="40" y="40"/><rect width="20" height="20" fill="#d1c4e2" x="60" y="40"/><rect width="20" height="20" fill="#7a9380" x="80" y="40"/><rect width="20" height="20" fill="#bfb6b1" y="60"/><rect width="20" height="20" fill="#e9ffff" x="20" y="60"/><rect width="20" height="20" fill="#ffbe94" x="40" y="60"/><rect width="20" height="20" fill="#b590b2" x="60" y="60"/><rect width="20" height="20" fill="#9d757e" x="80" y="60"/><rect width="20" height="20" fill="#bab7b0" y="80"/><rect width="20" height="20" fill="#6766aa" x="20" y="80"/><rect width="20" height="20" fill="#ffefca" x="40" y="80"/><rect width="20" height="20" fill="#d3c5de" x="60" y="80"/><rect width="20" height="20" fill="#9a9a9a" x="80" y="80"/></g></svg>