<svg xmlns="http://www.w3.org/2000/svg" width="28" height="28"><g fill="#fafffe"><rect width="5" height="5"/><rect width="5" height="5" fill="#f9fff9" x="5"/><rect width="5" height="5" fill="#fffaf6" x="10"/><rect width="5" height="5" fill="#d0beb2" x="15"/><rect width="5" height="5" fill="#fff3e3" x="20"/><rect width="5" height="5" fill="#fafcf7" y="5"/><rect width="5" height="5" fill="#fffce8" x="5" y="5"/><rect width="5" height="5" fill="#b17d68" x="10" y="5"/><rect width="5" height="5" fill="#cf997f" x="15" y="5"/><rect width="5" height="5" fill="#d3a990" x="20" y="5"/><rect width="5" height="5" fill="#faffff" y="10"/><rect width="5" height="5" fill="#fbe5ce" x="5" y="10"/><rect width="5" height="5" fill="#d09077" x="10" y="10"/><rect width="5" height="5" fill="#bc795c" x="15" y="10"/><rect width="5" height="5" fill="#a77459" x="20" y="10"/><rect width="5" height="5" fill="#f5ffff" y="15"/><rect width="5" height="5" fill="#d2bfb0" x="5" y="15"/><rect width="5" height="5" fill="#cd8e7d" x="10" y="15"/><rect width="5" height="5" fill="#975640" x="15" y="15"/><rect width="5" height="5" fill="#976751" x="20" y="15"/><rect width="5" height="5" fill="#f9fdfc" y="20"/><rect width="5" height="5" fill="#837061" x="5" y="20"/><rect width="5" height="5" fill="#c08577" x="10" y="20"/><rect width="5" height="5" fill="#884b36" x="15" y="20"/><rect width="5" height="5" fill="#83553d" x="20" y="20"/></g></svg>