<svg xmlns="http://www.w3.org/2000/svg" width="100" height="100"><g fill="#ffffff"><rect width="20" height="20"/><rect width="20" height="20" fill="#feffff" x="20"/><rect width="20" height="20" fill="#fbfff9" x="40"/><rect width="20" height="20" fill="#da9c83" x="60"/><rect width="20" height="20" fill="#e4c4b5" x="80"/><rect width="20" height="20" y="20"/><rect width="20" height="20" fill="#f8f9f4" x="20" y="20"/><rect width="20" height="20" fill="#b87558" x="40" y="20"/><rect width="20" height="20" fill="#d19b81" x="60" y="20"/><rect width="20" height="20" fill="#cb9982" x="80" y="20"/><rect width="20" height="20" y="40"/><rect width="20" height="20" fill="#e7c6b3" x="20" y="40"/><rect width="20" height="20" fill="#d59a7c" x="40" y="40"/><rect width="20" height="20" fill="#956348" x="60" y="40"/><rect width="20" height="20" fill="#b67d69" x="80" y="40"/><rect width="20" height="20" y="60"/><rect width="20" height="20" fill="#836751" x="20" y="60"/><rect width="20" height="20" fill="#ce9174" x="40" y="60"/><rect width="20" height="20" fill="#8d5642" x="60" y="60"/><rect width="20" height="20" fill="#b27f6c" x="80" y="60"/><rect width="20" height="20" y="80"/><rect width="20" height="20" fill="#775441" x="20" y="80"/><rect width="20" height="20" fill="#cc947b" x="40" y="80"/><rect width="20" height="20" fill="#78442e" x="60" y="80"/><rect width="20" height="20" fill="#ab7362" x="80" y="80"/></g></svg>