<svg xmlns="http://www.w3.org/2000/svg" width="100" height="100"><g fill="#675a54"><rect width="20" height="20"/><rect width="20" height="20" fill="#98615e" x="20"/><rect width="20" height="20" fill="#945e5c" x="40"/><rect width="20" height="20" fill="#d5d1c8" x="60"/><rect width="20" height="20" fill="#cfd1cc" x="80"/><rect width="20" height="20" fill="#be454e" y="20"/><rect width="20" height="20" fill="#4c2d2b" x="20" y="20"/><rect width="20" height="20" fill="#464155" x="40" y="20"/><rect width="20" height="20" fill="#d1d0cb" x="60" y="20"/><rect width="20" height="20" fill="#cecfc1" x="80" y="20"/><rect width="20" height="20" fill="#32384e" y="40"/><rect width="20" height="20" fill="#8f847e" x="20" y="40"/><rect width="20" height="20" fill="#43374d" x="40" y="40"/><rect width="20" height="20" fill="#636562" x="60" y="40"/><rect width="20" height="20" fill="#c2c5bc" x="80" y="40"/><rect width="20" height="20" fill="#bbbdba" y="60"/><rect width="20" height="20" fill="#c8cac7" x="20" y="60"/><rect width="20" height="20" fill="#d1d3d0" x="40" y="60"/><rect width="20" height="20" fill="#d8d9dd" x="60" y="60"/><rect width="20" height="20" fill="#b7b9b6" x="80" y="60"/><rect width="20" height="20" fill="#97989a" y="80"/><rect width="20" height="20" fill="#beb2c6" x="20" y="80"/><rect width="20" height="20" fill="#aa2a1f" x="40" y="80"/><rect width="20" height="20" fill="#e3f8f1" x="60" y="80"/><rect width="20" height="20" fill="#ccc6d4" x="80" y="80"/></g></svg>