<svg xmlns="http://www.w3.org/2000/svg" width="100" height="100"><g fill="#ebecee"><rect width="20" height="20"/><rect width="20" height="20" fill="#eaebed" x="20"/><rect width="20" height="20" fill="#eaebed" x="40"/><rect width="20" height="20" fill="#e8e9eb" x="60"/><rect width="20" height="20" fill="#e7e8ea" x="80"/><rect width="20" height="20" fill="#e5e5e5" y="20"/><rect width="20" height="20" fill="#e5dfdf" x="20" y="20"/><rect width="20" height="20" fill="#eaeaea" x="40" y="20"/><rect width="20" height="20" fill="#e7e8ea" x="60" y="20"/><rect width="20" height="20" fill="#e7e8ea" x="80" y="20"/><rect width="20" height="20" fill="#f2ebe5" y="40"/><rect width="20" height="20" fill="#e2dfda" x="20" y="40"/><rect width="20" height="20" fill="#e9e8ed" x="40" y="40"/><rect width="20" height="20" fill="#e7e8ea" x="60" y="40"/><rect width="20" height="20" fill="#e6e7e9" x="80" y="40"/><rect width="20" height="20" fill="#eceaeb" y="60"/><rect width="20" height="20" fill="#eaebed" x="20" y="60"/><rect width="20" height="20" fill="#e7e8ea" x="40" y="60"/><rect width="20" height="20" fill="#dfe3e2" x="60" y="60"/><rect width="20" height="20" fill="#e8dada" x="80" y="60"/><rect width="20" height="20" fill="#d8c2aa" y="80"/><rect width="20" height="20" fill="#ebe9ec" x="20" y="80"/><rect width="20" height="20" fill="#e0e3e8" x="40" y="80"/><rect width="20" height="20" fill="#eee4e5" x="60" y="80"/><rect width="20" height="20" fill="#f6eeec" x="80" y="80"/></g></svg>