<svg xmlns="http://www.w3.org/2000/svg" width="100" height="100"><g fill="#908f95"><rect width="20" height="20"/><rect width="20" height="20" fill="#9c9ba3" x="20"/><rect width="20" height="20" fill="#aba2a5" x="40"/><rect width="20" height="20" fill="#826255" x="60"/><rect width="20" height="20" fill="#4f322a" x="80"/><rect width="20" height="20" fill="#a2a1a7" y="20"/><rect width="20" height="20" fill="#a9acb5" x="20" y="20"/><rect width="20" height="20" fill="#774d35" x="40" y="20"/><rect width="20" height="20" fill="#ffdfc8" x="60" y="20"/><rect width="20" height="20" fill="#f5c4a6" x="80" y="20"/><rect width="20" height="20" fill="#acabb1" y="40"/><rect width="20" height="20" fill="#b8b7bd" x="20" y="40"/><rect width="20" height="20" fill="#dfb59d" x="40" y="40"/><rect width="20" height="20" fill="#f3d1b6" x="60" y="40"/><rect width="20" height="20" fill="#7e5038" x="80" y="40"/><rect width="20" height="20" fill="#b7b6bc" y="60"/><rect width="20" height="20" fill="#b5b5c1" x="20" y="60"/><rect width="20" height="20" fill="#c1917a" x="40" y="60"/><rect width="20" height="20" fill="#e4b08b" x="60" y="60"/><rect width="20" height="20" fill="#7e462d" x="80" y="60"/><rect width="20" height="20" fill="#c1bec5" y="80"/><rect width="20" height="20" fill="#c8c8ca" x="20" y="80"/><rect width="20" height="20" fill="#825e50" x="40" y="80"/><rect width="20" height="20" fill="#e3b291" x="60" y="80"/><rect width="20" height="20" fill="#d6997a" x="80" y="80"/></g></svg>