<svg xmlns="http://www.w3.org/2000/svg" width="100" height="100"><g fill="#000000"><rect width="20" height="20"/><rect width="20" height="20" x="20"/><rect width="20" height="20" x="40"/><rect width="20" height="20" fill="#121212" x="60"/><rect width="20" height="20" fill="#1c1c1c" x="80"/><rect width="20" height="20" y="20"/><rect width="20" height="20" x="20" y="20"/><rect width="20" height="20" x="40" y="20"/><rect width="20" height="20" fill="#171717" x="60" y="20"/><rect width="20" height="20" fill="#0e0e0e" x="80" y="20"/><rect width="20" height="20" y="40"/><rect width="20" height="20" x="20" y="40"/><rect width="20" height="20" x="40" y="40"/><rect width="20" height="20" fill="#272727" x="60" y="40"/><rect width="20" height="20" fill="#090909" x="80" y="40"/><rect width="20" height="20" y="60"/><rect width="20" height="20" x="20" y="60"/><rect width="20" height="20" x="40" y="60"/><rect width="20" height="20" fill="#383838" x="60" y="60"/><rect width="20" height="20" fill="#0c0c0c" x="80" y="60"/><rect width="20" height="20" y="80"/><rect width="20" height="20" x="20" y="80"/><rect width="20" height="20" x="40" y="80"/><rect width="20" height="20" fill="#383838" x="60" y="80"/><rect width="20" height="20" fill="#0d0d0d" x="80" y="80"/></g></svg>