<svg xmlns="http://www.w3.org/2000/svg" width="100" height="100"><g fill="#bbbab5"><rect width="20" height="20"/><rect width="20" height="20" fill="#c0bfbb" x="20"/><rect width="20" height="20" fill="#cecdc9" x="40"/><rect width="20" height="20" fill="#4f4b4a" x="60"/><rect width="20" height="20" fill="#181715" x="80"/><rect width="20" height="20" fill="#cccbc9" y="20"/><rect width="20" height="20" fill="#cecdc8" x="20" y="20"/><rect width="20" height="20" fill="#3d383c" x="40" y="20"/><rect width="20" height="20" fill="#3f3534" x="60" y="20"/><rect width="20" height="20" fill="#484443" x="80" y="20"/><rect width="20" height="20" fill="#d1d0ce" y="40"/><rect width="20" height="20" fill="#d5d7d2" x="20" y="40"/><rect width="20" height="20" fill="#644d47" x="40" y="40"/><rect width="20" height="20" fill="#f7dcd1" x="60" y="40"/><rect width="20" height="20" fill="#d99d81" x="80" y="40"/><rect width="20" height="20" fill="#d1d0cc" y="60"/><rect width="20" height="20" fill="#dad7d0" x="20" y="60"/><rect width="20" height="20" fill="#9c887f" x="40" y="60"/><rect width="20" height="20" fill="#e9c3ba" x="60" y="60"/><rect width="20" height="20" fill="#6b4f4c" x="80" y="60"/><rect width="20" height="20" fill="#d8d7d5" y="80"/><rect width="20" height="20" fill="#dad9d7" x="20" y="80"/><rect width="20" height="20" fill="#dfdedc" x="40" y="80"/><rect width="20" height="20" fill="#eebeb0" x="60" y="80"/><rect width="20" height="20" fill="#fac2b5" x="80" y="80"/></g></svg>