<svg xmlns="http://www.w3.org/2000/svg" width="100" height="100"><g fill="#e6ddd8"><rect width="20" height="20"/><rect width="20" height="20" fill="#e5e4e2" x="20"/><rect width="20" height="20" fill="#efe4f4" x="40"/><rect width="20" height="20" fill="#e9d7bf" x="60"/><rect width="20" height="20" fill="#cebb9b" x="80"/><rect width="20" height="20" fill="#761907" y="20"/><rect width="20" height="20" fill="#ecc09d" x="20" y="20"/><rect width="20" height="20" fill="#63624e" x="40" y="20"/><rect width="20" height="20" fill="#cea675" x="60" y="20"/><rect width="20" height="20" fill="#cfb286" x="80" y="20"/><rect width="20" height="20" fill="#942b18" y="40"/><rect width="20" height="20" fill="#710d0b" x="20" y="40"/><rect width="20" height="20" fill="#ceb481" x="40" y="40"/><rect width="20" height="20" fill="#243640" x="60" y="40"/><rect width="20" height="20" fill="#d7a46f" x="80" y="40"/><rect width="20" height="20" fill="#f86428" y="60"/><rect width="20" height="20" fill="#ed6938" x="20" y="60"/><rect width="20" height="20" fill="#881c10" x="40" y="60"/><rect width="20" height="20" fill="#c19860" x="60" y="60"/><rect width="20" height="20" fill="#cfb082" x="80" y="60"/><rect width="20" height="20" fill="#f35d2b" y="80"/><rect width="20" height="20" fill="#f05e22" x="20" y="80"/><rect width="20" height="20" fill="#e7612e" x="40" y="80"/><rect width="20" height="20" fill="#99270c" x="60" y="80"/><rect width="20" height="20" fill="#dfb17f" x="80" y="80"/></g></svg>