<svg xmlns="http://www.w3.org/2000/svg" width="100" height="100"><g fill="#e0af91"><rect width="20" height="20"/><rect width="20" height="20" fill="#ebe3e1" x="20"/><rect width="20" height="20" fill="#eae1e4" x="40"/><rect width="20" height="20" fill="#ebe2e3" x="60"/><rect width="20" height="20" fill="#e9e6d3" x="80"/><rect width="20" height="20" fill="#f9f8f3" y="20"/><rect width="20" height="20" fill="#f7f4ff" x="20" y="20"/><rect width="20" height="20" fill="#f87b81" x="40" y="20"/><rect width="20" height="20" fill="#a7b1b0" x="60" y="20"/><rect width="20" height="20" fill="#f0e7f8" x="80" y="20"/><rect width="20" height="20" fill="#fff5ef" y="40"/><rect width="20" height="20" fill="#d65859" x="20" y="40"/><rect width="20" height="20" fill="#ff3b5d" x="40" y="40"/><rect width="20" height="20" fill="#e9e9f3" x="60" y="40"/><rect width="20" height="20" fill="#7f7865" x="80" y="40"/><rect width="20" height="20" fill="#daeef7" y="60"/><rect width="20" height="20" fill="#ab998d" x="20" y="60"/><rect width="20" height="20" fill="#eca19e" x="40" y="60"/><rect width="20" height="20" fill="#e1e9ec" x="60" y="60"/><rect width="20" height="20" fill="#d5d6d1" x="80" y="60"/><rect width="20" height="20" fill="#966859" y="80"/><rect width="20" height="20" fill="#e7d4d8" x="20" y="80"/><rect width="20" height="20" fill="#c84940" x="40" y="80"/><rect width="20" height="20" fill="#cea68d" x="60" y="80"/><rect width="20" height="20" fill="#574448" x="80" y="80"/></g></svg>