<svg xmlns="http://www.w3.org/2000/svg" width="100" height="100"><g fill="#c9bda7"><rect width="20" height="20"/><rect width="20" height="20" fill="#dacdba" x="20"/><rect width="20" height="20" fill="#d6ceb9" x="40"/><rect width="20" height="20" fill="#d5cdba" x="60"/><rect width="20" height="20" fill="#d5c8b7" x="80"/><rect width="20" height="20" fill="#412710" y="20"/><rect width="20" height="20" fill="#533417" x="20" y="20"/><rect width="20" height="20" fill="#ae9f88" x="40" y="20"/><rect width="20" height="20" fill="#b4a995" x="60" y="20"/><rect width="20" height="20" fill="#a99f86" x="80" y="20"/><rect width="20" height="20" fill="#492b11" y="40"/><rect width="20" height="20" fill="#774b2e" x="20" y="40"/><rect width="20" height="20" fill="#ecf4f6" x="40" y="40"/><rect width="20" height="20" fill="#f6f6f4" x="60" y="40"/><rect width="20" height="20" fill="#f7f6f1" x="80" y="40"/><rect width="20" height="20" fill="#744e29" y="60"/><rect width="20" height="20" fill="#b28e5a" x="20" y="60"/><rect width="20" height="20" fill="#ece9e2" x="40" y="60"/><rect width="20" height="20" fill="#f0ede6" x="60" y="60"/><rect width="20" height="20" fill="#cdc6b3" x="80" y="60"/><rect width="20" height="20" fill="#a1916f" y="80"/><rect width="20" height="20" fill="#d7d1c1" x="20" y="80"/><rect width="20" height="20" fill="#d7ded7" x="40" y="80"/><rect width="20" height="20" fill="#f0efea" x="60" y="80"/><rect width="20" height="20" fill="#f7f5e9" x="80" y="80"/></g></svg>