<svg xmlns="http://www.w3.org/2000/svg" width="100" height="100"><g fill="#e4e4e4"><rect width="20" height="20"/><rect width="20" height="20" x="20"/><rect width="20" height="20" x="40"/><rect width="20" height="20" x="60"/><rect width="20" height="20" x="80"/><rect width="20" height="20" y="20"/><rect width="20" height="20" x="20" y="20"/><rect width="20" height="20" x="40" y="20"/><rect width="20" height="20" x="60" y="20"/><rect width="20" height="20" x="80" y="20"/><rect width="20" height="20" y="40"/><rect width="20" height="20" fill="#e1e1e1" x="20" y="40"/><rect width="20" height="20" x="40" y="40"/><rect width="20" height="20" x="60" y="40"/><rect width="20" height="20" x="80" y="40"/><rect width="20" height="20" fill="#e0e9ce" y="60"/><rect width="20" height="20" fill="#e6e6e6" x="20" y="60"/><rect width="20" height="20" x="40" y="60"/><rect width="20" height="20" x="60" y="60"/><rect width="20" height="20" x="80" y="60"/><rect width="20" height="20" fill="#ececea" y="80"/><rect width="20" height="20" fill="#d6dbd7" x="20" y="80"/><rect width="20" height="20" fill="#dce0df" x="40" y="80"/><rect width="20" height="20" fill="#e5e3e4" x="60" y="80"/><rect width="20" height="20" x="80" y="80"/></g></svg>