<svg xmlns="http://www.w3.org/2000/svg" width="100" height="100"><g fill="#d2d1cc"><rect width="20" height="20"/><rect width="20" height="20" fill="#d3d2cd" x="20"/><rect width="20" height="20" fill="#d5d4cf" x="40"/><rect width="20" height="20" fill="#dbdad6" x="60"/><rect width="20" height="20" fill="#5f4c46" x="80"/><rect width="20" height="20" fill="#d6d3ce" y="20"/><rect width="20" height="20" fill="#d3d2cd" x="20" y="20"/><rect width="20" height="20" x="40" y="20"/><rect width="20" height="20" fill="#7d6156" x="60" y="20"/><rect width="20" height="20" fill="#806961" x="80" y="20"/><rect width="20" height="20" fill="#d3d0cb" y="40"/><rect width="20" height="20" fill="#d0cfca" x="20" y="40"/><rect width="20" height="20" fill="#d3d2cd" x="40" y="40"/><rect width="20" height="20" fill="#b29587" x="60" y="40"/><rect width="20" height="20" fill="#f5c8b5" x="80" y="40"/><rect width="20" height="20" fill="#f1edea" y="60"/><rect width="20" height="20" fill="#f0e6e4" x="20" y="60"/><rect width="20" height="20" fill="#d8c9c4" x="40" y="60"/><rect width="20" height="20" fill="#8e6855" x="60" y="60"/><rect width="20" height="20" fill="#af847b" x="80" y="60"/><rect width="20" height="20" fill="#eae5e1" y="80"/><rect width="20" height="20" fill="#fbf5f5" x="20" y="80"/><rect width="20" height="20" fill="#6c463d" x="40" y="80"/><rect width="20" height="20" fill="#d3a79a" x="60" y="80"/><rect width="20" height="20" fill="#af8076" x="80" y="80"/></g></svg>