<svg xmlns="http://www.w3.org/2000/svg" width="100" height="100"><g fill="#bfb8a6"><rect width="20" height="20"/><rect width="20" height="20" fill="#c6bfad" x="20"/><rect width="20" height="20" fill="#c9c2b0" x="40"/><rect width="20" height="20" fill="#989590" x="60"/><rect width="20" height="20" fill="#9d948d" x="80"/><rect width="20" height="20" fill="#cfc8b6" y="20"/><rect width="20" height="20" fill="#d0cbb8" x="20" y="20"/><rect width="20" height="20" fill="#7f746e" x="40" y="20"/><rect width="20" height="20" fill="#f6e3d2" x="60" y="20"/><rect width="20" height="20" fill="#fbd4b5" x="80" y="20"/><rect width="20" height="20" fill="#d5cebc" y="40"/><rect width="20" height="20" fill="#e0d4c8" x="20" y="40"/><rect width="20" height="20" fill="#1c1c1e" x="40" y="40"/><rect width="20" height="20" fill="#ffe4dc" x="60" y="40"/><rect width="20" height="20" fill="#e3a478" x="80" y="40"/><rect width="20" height="20" fill="#e1d9cc" y="60"/><rect width="20" height="20" fill="#d0caba" x="20" y="60"/><rect width="20" height="20" fill="#825248" x="40" y="60"/><rect width="20" height="20" fill="#665543" x="60" y="60"/><rect width="20" height="20" fill="#c88767" x="80" y="60"/><rect width="20" height="20" fill="#dcd4c7" y="80"/><rect width="20" height="20" fill="#5d5047" x="20" y="80"/><rect width="20" height="20" fill="#6d403d" x="40" y="80"/><rect width="20" height="20" fill="#ffd8b8" x="60" y="80"/><rect width="20" height="20" fill="#ffe5d0" x="80" y="80"/></g></svg>