<svg xmlns="http://www.w3.org/2000/svg" width="100" height="100"><g fill="#e3e4e6"><rect width="20" height="20"/><rect width="20" height="20" fill="#a7a8aa" x="20"/><rect width="20" height="20" fill="#b0b1b3" x="40"/><rect width="20" height="20" fill="#b6b7b9" x="60"/><rect width="20" height="20" fill="#b5b6b8" x="80"/><rect width="20" height="20" fill="#ecedef" y="20"/><rect width="20" height="20" fill="#a3a4a6" x="20" y="20"/><rect width="20" height="20" fill="#adaeb0" x="40" y="20"/><rect width="20" height="20" fill="#b5b6b8" x="60" y="20"/><rect width="20" height="20" fill="#b5b6b8" x="80" y="20"/><rect width="20" height="20" fill="#f4f5f7" y="40"/><rect width="20" height="20" fill="#eaebed" x="20" y="40"/><rect width="20" height="20" fill="#aaabad" x="40" y="40"/><rect width="20" height="20" fill="#b2b3b5" x="60" y="40"/><rect width="20" height="20" fill="#b4b5b7" x="80" y="40"/><rect width="20" height="20" fill="#f6f7f9" y="60"/><rect width="20" height="20" fill="#eeeff1" x="20" y="60"/><rect width="20" height="20" fill="#a4a5a7" x="40" y="60"/><rect width="20" height="20" fill="#abacae" x="60" y="60"/><rect width="20" height="20" fill="#b0b1b3" x="80" y="60"/><rect width="20" height="20" fill="#eff0f2" y="80"/><rect width="20" height="20" fill="#e0e4e7" x="20" y="80"/><rect width="20" height="20" fill="#c9cdd0" x="40" y="80"/><rect width="20" height="20" fill="#babab8" x="60" y="80"/><rect width="20" height="20" fill="#a9a9a9" x="80" y="80"/></g></svg>