<svg xmlns="http://www.w3.org/2000/svg" width="100" height="100"><g fill="#f0efed"><rect width="20" height="20"/><rect width="20" height="20" fill="#efeeec" x="20"/><rect width="20" height="20" fill="#eeedeb" x="40"/><rect width="20" height="20" fill="#ebeae8" x="60"/><rect width="20" height="20" fill="#eae9e5" x="80"/><rect width="20" height="20" fill="#f3f3f1" y="20"/><rect width="20" height="20" fill="#f1f1ef" x="20" y="20"/><rect width="20" height="20" fill="#eeeeec" x="40" y="20"/><rect width="20" height="20" fill="#ebebe9" x="60" y="20"/><rect width="20" height="20" fill="#faf9f4" x="80" y="20"/><rect width="20" height="20" fill="#f7f7f5" y="40"/><rect width="20" height="20" fill="#f4f4f2" x="20" y="40"/><rect width="20" height="20" fill="#f1f1ef" x="40" y="40"/><rect width="20" height="20" fill="#efefed" x="60" y="40"/><rect width="20" height="20" fill="#fbfaf8" x="80" y="40"/><rect width="20" height="20" fill="#f9f9f7" y="60"/><rect width="20" height="20" fill="#fdfcf8" x="20" y="60"/><rect width="20" height="20" fill="#f7f5f6" x="40" y="60"/><rect width="20" height="20" fill="#efefed" x="60" y="60"/><rect width="20" height="20" fill="#efeeec" x="80" y="60"/><rect width="20" height="20" fill="#f4f4f2" y="80"/><rect width="20" height="20" fill="#f2f2f0" x="20" y="80"/><rect width="20" height="20" fill="#f1f1ef" x="40" y="80"/><rect width="20" height="20" fill="#ececea" x="60" y="80"/><rect width="20" height="20" fill="#ecebe9" x="80" y="80"/></g></svg>